<svg width="69" height="68" viewBox="0 0 69 68" fill="none" xmlns="http://www.w3.org/2000/svg">
<path d="M68 34C68 15.2223 52.7777 0 34 0C15.2223 0 0 15.2223 0 34C0 52.7777 15.2223 68 34 68C52.7777 68 68 52.7777 68 34Z" fill="#CCCCDA"/>
<path fill-rule="evenodd" clip-rule="evenodd" d="M21.7885 23.2099C21.2956 23.777 21 24.5015 21 25.2909V38.4544C21 40.2719 22.567 41.7453 24.5 41.7453H25.375V44.3546C25.375 45.2634 26.1585 46 27.125 46C27.5891 46 28.0342 45.8267 28.3624 45.5181L32.375 41.7453H37.4723L21.7885 23.2099ZM42.7121 41.7453H45.5C47.433 41.7453 49 40.2719 49 38.4544V25.2909C49 23.4734 47.433 22 45.5 22H26.0046L42.7121 41.7453Z" fill="#F8F8FD"/>
<path d="M23.7082 16.4733C24.5092 15.7955 25.6882 15.8565 26.4158 16.5872L26.5268 16.7082L48.5268 42.7082C49.2403 43.5514 49.1351 44.8133 48.2919 45.5268C47.4909 46.2046 46.3119 46.1436 45.5843 45.4129L45.4733 45.2919L23.4733 19.2919C22.7598 18.4487 22.8649 17.1868 23.7082 16.4733Z" fill="#F8F8FD"/>
</svg>
