<svg width="124" height="124" viewBox="0 0 124 124" fill="none" xmlns="http://www.w3.org/2000/svg">
<path d="M27.5002 20.0004C9.50001 24.4989 2.50021 51.0003 6.50002 76.0003C13 98 23.8867 119.707 51.5021 110.5C72.5 103.5 105.245 112.53 110.5 79.5003C114 57.5003 116.5 34.5002 91.0015 29.5004C70.4456 25.4697 43.0002 16.1267 27.5002 20.0004Z" fill="#E0E0E0"/>
<g clip-path="url(#clip0_6524_31643)">
<g filter="url(#filter0_d_6524_31643)">
<path d="M113.231 108.027H103.468C102.687 108.027 102.072 107.387 102.073 106.607C102.073 106.602 102.073 106.597 102.073 106.592C102.073 100.683 97.2822 95.8926 91.3731 95.8926C87.339 95.8926 83.828 98.1258 82.0048 101.423C81.8958 101.418 81.7867 101.414 81.6768 101.414C78.4462 101.414 75.6675 103.344 74.4287 106.114C73.9114 107.271 72.777 108.027 71.5102 108.027H70.6375C68.041 108.027 65.8358 110.152 65.8846 112.748C65.9317 115.266 67.9873 117.292 70.5162 117.292H113.352C115.881 117.292 117.937 115.266 117.984 112.748C118.032 110.152 115.827 108.027 113.231 108.027Z" fill="white"/>
</g>
<g filter="url(#filter1_d_6524_31643)">
<path d="M78.1818 21.5135H74.7485C74.7951 21.2461 74.8242 20.9724 74.8242 20.6914C74.8242 18.0605 72.6913 15.9276 70.0603 15.9276C69.136 15.9276 68.2761 16.1952 67.5459 16.6507C66.1292 13.166 62.7117 10.708 58.7182 10.708C55.1261 10.708 51.9994 12.6967 50.376 15.6324C50.279 15.6284 50.1819 15.625 50.0839 15.625C46.1136 15.625 42.9077 18.8982 43.0174 22.8931C43.123 26.7435 46.379 29.7636 50.2309 29.7636H78.29C80.5418 29.7636 82.3722 27.9592 82.4142 25.7176C82.4575 23.4057 80.494 21.5135 78.1818 21.5135Z" fill="white"/>
</g>
<path d="M33.3043 61.0028L19.3759 45.0234C18.9195 44.4996 18.2587 44.1992 17.5642 44.1992H6.12171C4.31612 44.1992 3.15513 46.1157 3.99144 47.716L12.2996 63.6142L26.0215 66.9207L33.3043 61.0028Z" fill="#CBC4CC"/>
<path d="M33.3043 61.0028L19.3759 45.0234C18.9195 44.4996 18.2587 44.1992 17.5642 44.1992H6.12171C4.31612 44.1992 3.15513 46.1157 3.99144 47.716L12.2996 63.6142L26.0215 66.9207L33.3043 61.0028Z" fill="#CBC4CC"/>
<g filter="url(#filter2_d_6524_31643)">
<path d="M33.3043 61.0028L19.3759 45.0234C18.9195 44.4996 18.2587 44.1992 17.5642 44.1992H6.12171C4.31612 44.1992 3.15513 46.1157 3.99144 47.716L12.2996 63.6142L26.0215 66.9207L33.3043 61.0028Z" fill="#352466"/>
<path d="M33.8515 58.127H73.4391L77.6426 60.7356L104.538 67.3504L115.912 71.4656C118.366 72.3533 120 74.6831 120 77.2927C120 80.715 117.226 83.4894 113.804 83.4894H38.4512C33.1201 83.4894 27.9595 81.6103 23.8766 78.1823L8.99282 65.6859C8.45122 65.2313 8.13867 64.5603 8.13867 63.8532C8.13867 62.6843 8.98307 61.6865 10.1357 61.4931L26.5942 58.7316C28.9923 58.3294 31.4196 58.127 33.8515 58.127Z" fill="#62528F"/>
<path d="M115.911 71.4651L112.596 70.2656C112.769 70.8377 112.864 71.4402 112.864 72.0593C112.864 75.4816 110.089 78.256 106.667 78.256H31.315C27.7069 78.256 24.1785 77.3926 21.0078 75.7737L23.8759 78.1818C27.9588 81.6098 33.1194 83.4889 38.4505 83.4889H113.803C117.225 83.4889 120 80.7145 120 77.2922C120 74.6827 118.365 72.3531 115.911 71.4651Z" fill="#352466"/>
<path d="M43.8512 67.3508H37.5957C31.2532 67.3508 24.9499 66.3554 18.9161 64.4007L18.7855 64.3583C15.2733 63.2204 15.2733 58.2515 18.7855 57.1136L18.9161 57.0713C24.9499 55.1165 31.2532 54.1211 37.5957 54.1211H43.8512C45.0314 54.1211 45.9883 55.078 45.9883 56.2583V65.2134C45.9883 66.3942 45.0314 67.3508 43.8512 67.3508Z" fill="#D7C9FF"/>
<path d="M57.6041 87.8805H47.6861C44.9757 87.8805 42.5878 86.0979 41.8174 83.4993L40.8084 78.8213C40.65 78.2871 41.0503 77.751 41.6073 77.751H72.1116C73.3463 77.751 73.9093 79.2918 72.9653 80.0877L68.4961 83.9015C65.4487 86.4709 61.5906 87.8805 57.6041 87.8805Z" fill="#D7C9FF"/>
<path d="M100.081 65.738C98.0253 64.994 96.0489 64.0456 94.1822 62.907C89.058 59.7808 83.1714 58.127 77.1688 58.127H73.4385V60.1216C73.4385 64.1141 76.675 67.3504 80.6673 67.3504H104.537L100.081 65.738Z" fill="#D7C9FF"/>
<path d="M12.9612 54.273H1.78394C0.798731 54.273 0 53.4742 0 52.489C0 51.5038 0.798731 50.7051 1.78394 50.7051H12.9612C13.9464 50.7051 14.7451 51.5038 14.7451 52.489C14.7451 53.4742 13.9464 54.273 12.9612 54.273Z" fill="#D7C9FF"/>
<path d="M54.8005 69.134C53.8153 69.134 53.0166 68.3352 53.0166 67.35V64.6843C53.0166 63.6991 53.8153 62.9004 54.8005 62.9004C55.7858 62.9004 56.5845 63.6991 56.5845 64.6843V67.35C56.5845 68.3352 55.7858 69.134 54.8005 69.134Z" fill="#D7C9FF"/>
<path d="M64.1111 69.134C63.1259 69.134 62.3271 68.3352 62.3271 67.35V64.6843C62.3271 63.6991 63.1259 62.9004 64.1111 62.9004C65.0963 62.9004 65.895 63.6991 65.895 64.6843V67.35C65.895 68.3352 65.0963 69.134 64.1111 69.134Z" fill="#D7C9FF"/>
</g>
<g filter="url(#filter3_d_6524_31643)">
<path d="M27.4394 97.6763H12.9607C11.9755 97.6763 11.1768 96.8776 11.1768 95.8923C11.1768 94.9071 11.9755 94.1084 12.9607 94.1084H27.4394C28.4246 94.1084 29.2234 94.9071 29.2234 95.8923C29.2234 96.8776 28.4246 97.6763 27.4394 97.6763Z" fill="white"/>
<path d="M21.779 105.689H4.56324C3.57803 105.689 2.7793 104.89 2.7793 103.905C2.7793 102.92 3.57803 102.121 4.56324 102.121H21.779C22.7642 102.121 23.563 102.92 23.563 103.905C23.563 104.89 22.7642 105.689 21.779 105.689Z" fill="white"/>
</g>
</g>
<g filter="url(#filter4_d_6524_31643)">
<rect x="80" y="4" width="40" height="40" rx="20" fill="#352466" shape-rendering="crispEdges"/>
<path d="M107.095 21H93.7617C92.7097 21 91.8569 21.8954 91.8569 23V30C91.8569 31.1046 92.7097 32 93.7617 32H107.095C108.147 32 109 31.1046 109 30V23C109 21.8954 108.147 21 107.095 21Z" stroke="white" stroke-width="1.68" stroke-linecap="round" stroke-linejoin="round"/>
<path d="M95.6665 21V17C95.6665 15.6739 96.1682 14.4021 97.0612 13.4645C97.9543 12.5268 99.1655 12 100.428 12C101.691 12 102.903 12.5268 103.796 13.4645C104.689 14.4021 105.19 15.6739 105.19 17V21" stroke="white" stroke-width="1.68" stroke-linecap="round" stroke-linejoin="round"/>
</g>
<defs>
<filter id="filter0_d_6524_31643" x="61.8838" y="91.8926" width="60.1011" height="29.3994" filterUnits="userSpaceOnUse" color-interpolation-filters="sRGB">
<feFlood flood-opacity="0" result="BackgroundImageFix"/>
<feColorMatrix in="SourceAlpha" type="matrix" values="0 0 0 0 0 0 0 0 0 0 0 0 0 0 0 0 0 0 127 0" result="hardAlpha"/>
<feOffset/>
<feGaussianBlur stdDeviation="2"/>
<feComposite in2="hardAlpha" operator="out"/>
<feColorMatrix type="matrix" values="0 0 0 0 0 0 0 0 0 0 0 0 0 0 0 0 0 0 0.25 0"/>
<feBlend mode="normal" in2="BackgroundImageFix" result="effect1_dropShadow_6524_31643"/>
<feBlend mode="normal" in="SourceGraphic" in2="effect1_dropShadow_6524_31643" result="shape"/>
</filter>
<filter id="filter1_d_6524_31643" x="39.0146" y="6.70801" width="47.4004" height="27.0557" filterUnits="userSpaceOnUse" color-interpolation-filters="sRGB">
<feFlood flood-opacity="0" result="BackgroundImageFix"/>
<feColorMatrix in="SourceAlpha" type="matrix" values="0 0 0 0 0 0 0 0 0 0 0 0 0 0 0 0 0 0 127 0" result="hardAlpha"/>
<feOffset/>
<feGaussianBlur stdDeviation="2"/>
<feComposite in2="hardAlpha" operator="out"/>
<feColorMatrix type="matrix" values="0 0 0 0 0 0 0 0 0 0 0 0 0 0 0 0 0 0 0.25 0"/>
<feBlend mode="normal" in2="BackgroundImageFix" result="effect1_dropShadow_6524_31643"/>
<feBlend mode="normal" in="SourceGraphic" in2="effect1_dropShadow_6524_31643" result="shape"/>
</filter>
<filter id="filter2_d_6524_31643" x="-4" y="40.1992" width="128" height="51.6816" filterUnits="userSpaceOnUse" color-interpolation-filters="sRGB">
<feFlood flood-opacity="0" result="BackgroundImageFix"/>
<feColorMatrix in="SourceAlpha" type="matrix" values="0 0 0 0 0 0 0 0 0 0 0 0 0 0 0 0 0 0 127 0" result="hardAlpha"/>
<feOffset/>
<feGaussianBlur stdDeviation="2"/>
<feComposite in2="hardAlpha" operator="out"/>
<feColorMatrix type="matrix" values="0 0 0 0 0 0 0 0 0 0 0 0 0 0 0 0 0 0 0.25 0"/>
<feBlend mode="normal" in2="BackgroundImageFix" result="effect1_dropShadow_6524_31643"/>
<feBlend mode="normal" in="SourceGraphic" in2="effect1_dropShadow_6524_31643" result="shape"/>
</filter>
<filter id="filter3_d_6524_31643" x="-1.2207" y="90.1084" width="34.4438" height="19.5811" filterUnits="userSpaceOnUse" color-interpolation-filters="sRGB">
<feFlood flood-opacity="0" result="BackgroundImageFix"/>
<feColorMatrix in="SourceAlpha" type="matrix" values="0 0 0 0 0 0 0 0 0 0 0 0 0 0 0 0 0 0 127 0" result="hardAlpha"/>
<feOffset/>
<feGaussianBlur stdDeviation="2"/>
<feComposite in2="hardAlpha" operator="out"/>
<feColorMatrix type="matrix" values="0 0 0 0 0 0 0 0 0 0 0 0 0 0 0 0 0 0 0.25 0"/>
<feBlend mode="normal" in2="BackgroundImageFix" result="effect1_dropShadow_6524_31643"/>
<feBlend mode="normal" in="SourceGraphic" in2="effect1_dropShadow_6524_31643" result="shape"/>
</filter>
<filter id="filter4_d_6524_31643" x="76" y="0" width="48" height="48" filterUnits="userSpaceOnUse" color-interpolation-filters="sRGB">
<feFlood flood-opacity="0" result="BackgroundImageFix"/>
<feColorMatrix in="SourceAlpha" type="matrix" values="0 0 0 0 0 0 0 0 0 0 0 0 0 0 0 0 0 0 127 0" result="hardAlpha"/>
<feOffset/>
<feGaussianBlur stdDeviation="2"/>
<feComposite in2="hardAlpha" operator="out"/>
<feColorMatrix type="matrix" values="0 0 0 0 0 0 0 0 0 0 0 0 0 0 0 0 0 0 0.25 0"/>
<feBlend mode="normal" in2="BackgroundImageFix" result="effect1_dropShadow_6524_31643"/>
<feBlend mode="normal" in="SourceGraphic" in2="effect1_dropShadow_6524_31643" result="shape"/>
</filter>
<clipPath id="clip0_6524_31643">
<rect width="120" height="120" fill="white" transform="translate(0 4)"/>
</clipPath>
</defs>
</svg>
