<svg width="22" height="22" viewBox="0 0 22 22" fill="none" xmlns="http://www.w3.org/2000/svg">
<path d="M16 0.999995H18.67C19.236 0.989986 19.7859 1.18813 20.2154 1.55681C20.645 1.9255 20.9242 2.43905 21 3V10C20.9242 10.5609 20.645 11.0745 20.2154 11.4432C19.7859 11.8119 19.236 12.01 18.67 12H16M9.00003 14V18C9.00003 18.7956 9.3161 19.5587 9.87871 20.1213C10.4413 20.6839 11.2044 21 12 21L16 12V0.999995H4.72003C4.2377 0.994543 3.76965 1.16359 3.40212 1.47599C3.0346 1.78839 2.79235 2.22309 2.72003 2.7L1.34003 11.7C1.29652 11.9866 1.31586 12.2793 1.39669 12.5577C1.47753 12.8362 1.61793 13.0937 1.80817 13.3125C1.99842 13.5313 2.23395 13.7061 2.49846 13.8248C2.76297 13.9435 3.05012 14.0033 3.34003 14H9.00003Z" stroke="currentColor" stroke-width="1.68" stroke-linecap="round" stroke-linejoin="round"/>
</svg>
