<svg width="16" height="16" viewBox="0 0 16 16" fill="none" xmlns="http://www.w3.org/2000/svg">
<g clip-path="url(#clip0_1661_780)">
<path d="M10.6665 14V12.6667C10.6665 11.9594 10.3856 11.2811 9.88546 10.781C9.38536 10.281 8.70708 10 7.99984 10H3.33317C2.62593 10 1.94765 10.281 1.44755 10.781C0.947456 11.2811 0.666504 11.9594 0.666504 12.6667V14" stroke="currentColor" fill="transparent" stroke-width="1.68" stroke-linecap="round" stroke-linejoin="round"/>
<path d="M5.66667 7.33333C7.13943 7.33333 8.33333 6.13943 8.33333 4.66667C8.33333 3.19391 7.13943 2 5.66667 2C4.19391 2 3 3.19391 3 4.66667C3 6.13943 4.19391 7.33333 5.66667 7.33333Z" stroke="currentColor" stroke-width="1.68" stroke-linecap="round" stroke-linejoin="round"/>
<path d="M13.3335 5.33333V9.33333" stroke="currentColor" stroke-width="1.68" stroke-linecap="round" stroke-linejoin="round"/>
<path d="M15.3335 7.33333H11.3335" stroke="currentColor" stroke-width="1.68" stroke-linecap="round" stroke-linejoin="round"/>
</g>
<defs>
<clipPath id="clip0_1661_780">
<rect width="16" height="16" fill="currentColor"/>
</clipPath>
</defs>
</svg>
