<svg width="14" height="11" viewBox="0 0 14 11" fill="none" xmlns="http://www.w3.org/2000/svg">
<path d="M11.9179 5.74713L10.7009 8.17747L13.464 8.75138L11.9179 5.74713Z" fill="#8E7EBF"/>
<path d="M2.05439 7.31383L3.40595 9.672L0.679481 10.4002L2.05439 7.31383Z" fill="#352466"/>
<path fill-rule="evenodd" clip-rule="evenodd" d="M3.8219 1.39197C4.0792 1.26665 4.35107 1.16217 4.63599 1.08123C7.24598 0.339757 9.96288 1.8545 10.7044 4.46449C11.215 6.26212 10.6554 8.11046 9.40488 9.32916C11.5046 8.30653 12.6346 5.89661 11.9741 3.57153C11.2326 0.961531 8.51568 -0.553209 5.90569 0.188264C5.09331 0.419051 4.38705 0.841216 3.8219 1.39197Z" fill="#8E7EBF"/>
<path d="M10.7375 5.42237C10.7375 8.13564 8.53796 10.3352 5.82468 10.3352C3.11141 10.3352 0.911865 8.13564 0.911865 5.42237C0.911865 2.7091 3.11141 0.509553 5.82468 0.509553C8.53796 0.509553 10.7375 2.7091 10.7375 5.42237Z" fill="#352466"/>
<path d="M4.01473 5.42238C4.01473 5.85079 3.66744 6.19808 3.23903 6.19808C2.81061 6.19808 2.46332 5.85079 2.46332 5.42238C2.46332 4.99396 2.81061 4.64667 3.23903 4.64667C3.66744 4.64667 4.01473 4.99396 4.01473 5.42238Z" fill="white"/>
<path d="M6.34182 5.42241C6.34182 5.85082 5.99452 6.19811 5.56611 6.19811C5.1377 6.19811 4.79041 5.85082 4.79041 5.42241C4.79041 4.99399 5.1377 4.6467 5.56611 4.6467C5.99452 4.6467 6.34182 4.99399 6.34182 5.42241Z" fill="white"/>
<path d="M8.66897 5.42241C8.66897 5.85082 8.32167 6.19811 7.89326 6.19811C7.46485 6.19811 7.11755 5.85082 7.11755 5.42241C7.11755 4.99399 7.46485 4.6467 7.89326 4.6467C8.32167 4.6467 8.66897 4.99399 8.66897 5.42241Z" fill="white"/>
</svg>
