<svg width="20" height="20" viewBox="0 0 20 20" fill="none" xmlns="http://www.w3.org/2000/svg">
<g clip-path="url(#clip0_47_1342)">
<path d="M11.4417 17.5C11.2952 17.7526 11.0849 17.9622 10.8319 18.1079C10.5788 18.2537 10.292 18.3304 10 18.3304C9.70802 18.3304 9.42116 18.2537 9.16815 18.1079C8.91513 17.9622 8.70484 17.7526 8.55833 17.5" stroke="black" stroke-width="1.68" stroke-linecap="round" stroke-linejoin="round"/>
<path d="M15.525 10.8333C15.1543 9.47618 14.9775 8.07338 15 6.66667" stroke="black" stroke-width="1.68" stroke-linecap="round" stroke-linejoin="round"/>
<path d="M5.21667 5.21666C5.07189 5.68634 4.99884 6.17518 5 6.66666C5 12.5 2.5 14.1667 2.5 14.1667H14.1667" stroke="black" stroke-width="1.68" stroke-linecap="round" stroke-linejoin="round"/>
<path d="M15 6.66666C15.0013 5.76088 14.7566 4.87175 14.2919 4.09424C13.8273 3.31672 13.1601 2.68004 12.3618 2.25219C11.5634 1.82435 10.6638 1.6214 9.75907 1.66505C8.85434 1.70869 7.97846 1.99728 7.22499 2.49999" stroke="black" stroke-width="1.68" stroke-linecap="round" stroke-linejoin="round"/>
<path d="M0.833328 0.833328L19.1667 19.1667" stroke="black" stroke-width="1.68" stroke-linecap="round" stroke-linejoin="round"/>
</g>
<defs>
<clipPath id="clip0_47_1342">
<rect width="20" height="20" fill="white"/>
</clipPath>
</defs>
</svg>
