<svg width="20" height="20" viewBox="0 0 20 20" fill="none" xmlns="http://www.w3.org/2000/svg">
<path d="M5 3.33333H11.6667C12.5507 3.33333 13.3986 3.68452 14.0237 4.30964C14.6488 4.93476 15 5.78261 15 6.66667C15 7.55072 14.6488 8.39857 14.0237 9.02369C13.3986 9.64881 12.5507 10 11.6667 10H5V3.33333Z" stroke="black" stroke-width="1.68" stroke-linecap="round" stroke-linejoin="round"/>
<path d="M5 10H12.5C13.3841 10 14.2319 10.3512 14.857 10.9763C15.4821 11.6014 15.8333 12.4493 15.8333 13.3333C15.8333 14.2174 15.4821 15.0652 14.857 15.6904C14.2319 16.3155 13.3841 16.6667 12.5 16.6667H5V10Z" stroke="black" stroke-width="1.68" stroke-linecap="round" stroke-linejoin="round"/>
</svg>
