<svg width="20" height="20" viewBox="0 0 20 20" fill="none" xmlns="http://www.w3.org/2000/svg">
<path d="M17.5 13.3333V6.66667C17.4997 6.3744 17.4225 6.08734 17.2763 5.8343C17.13 5.58126 16.9198 5.37114 16.6667 5.225L10.8333 1.89167C10.58 1.74539 10.2926 1.66838 10 1.66838C9.70744 1.66838 9.42003 1.74539 9.16667 1.89167L3.33333 5.225C3.08022 5.37114 2.86998 5.58126 2.72372 5.8343C2.57745 6.08734 2.5003 6.3744 2.5 6.66667V13.3333C2.5003 13.6256 2.57745 13.9127 2.72372 14.1657C2.86998 14.4187 3.08022 14.6289 3.33333 14.775L9.16667 18.1083C9.42003 18.2546 9.70744 18.3316 10 18.3316C10.2926 18.3316 10.58 18.2546 10.8333 18.1083L16.6667 14.775C16.9198 14.6289 17.13 14.4187 17.2763 14.1657C17.4225 13.9127 17.4997 13.6256 17.5 13.3333Z" stroke="black" stroke-width="1.68" stroke-linecap="round" stroke-linejoin="round"/>
<path d="M2.72501 5.8L10 10.0083L17.275 5.8" stroke="black" stroke-width="1.68" stroke-linecap="round" stroke-linejoin="round"/>
<path d="M10 18.4V10" stroke="black" stroke-width="1.68" stroke-linecap="round" stroke-linejoin="round"/>
</svg>
