<svg width="20" height="20" viewBox="0 0 20 20" fill="none" xmlns="http://www.w3.org/2000/svg">
<g clip-path="url(#clip0_47_670)">
<path d="M0.833344 0.833328L19.1667 19.1667" stroke="black" stroke-width="1.68" stroke-linecap="round" stroke-linejoin="round"/>
<path d="M7.50001 2.5H12.5L14.1667 5H17.5C17.942 5 18.366 5.17559 18.6785 5.48816C18.9911 5.80072 19.1667 6.22464 19.1667 6.66667V14.45M12.7333 12.7333C12.4568 13.1375 12.0945 13.4758 11.6723 13.7241C11.2502 13.9725 10.7785 14.1247 10.2908 14.17C9.80312 14.2153 9.31145 14.1526 8.85076 13.9863C8.39007 13.8201 7.97168 13.5543 7.62536 13.208C7.27904 12.8617 7.01328 12.4433 6.84701 11.9826C6.68074 11.5219 6.61803 11.0302 6.66335 10.5425C6.70866 10.0549 6.86089 9.58317 7.1092 9.16101C7.35751 8.73884 7.6958 8.37658 8.10001 8.1M17.5 17.5H2.50001C2.05798 17.5 1.63406 17.3244 1.3215 17.0118C1.00894 16.6993 0.833344 16.2754 0.833344 15.8333V6.66667C0.833344 6.22464 1.00894 5.80072 1.3215 5.48816C1.63406 5.17559 2.05798 5 2.50001 5H5.00001L17.5 17.5Z" stroke="black" stroke-width="1.68" stroke-linecap="round" stroke-linejoin="round"/>
</g>
<defs>
<clipPath id="clip0_47_670">
<rect width="20" height="20" fill="white"/>
</clipPath>
</defs>
</svg>
