<svg width="20" height="20" viewBox="0 0 20 20" fill="none" xmlns="http://www.w3.org/2000/svg">
<g clip-path="url(#clip0_47_1151)">
<path d="M19.1667 15.8333C19.1667 16.2754 18.9911 16.6993 18.6785 17.0118C18.3659 17.3244 17.942 17.5 17.5 17.5H2.49999C2.05797 17.5 1.63404 17.3244 1.32148 17.0118C1.00892 16.6993 0.833328 16.2754 0.833328 15.8333V6.66667C0.833328 6.22464 1.00892 5.80072 1.32148 5.48816C1.63404 5.17559 2.05797 5 2.49999 5H5.83333L7.49999 2.5H12.5L14.1667 5H17.5C17.942 5 18.3659 5.17559 18.6785 5.48816C18.9911 5.80072 19.1667 6.22464 19.1667 6.66667V15.8333Z" stroke="black" stroke-width="1.68" stroke-linecap="round" stroke-linejoin="round"/>
<path d="M10 14.1667C11.841 14.1667 13.3333 12.6743 13.3333 10.8333C13.3333 8.99238 11.841 7.5 10 7.5C8.15906 7.5 6.66667 8.99238 6.66667 10.8333C6.66667 12.6743 8.15906 14.1667 10 14.1667Z" stroke="black" stroke-width="1.68" stroke-linecap="round" stroke-linejoin="round"/>
</g>
<defs>
<clipPath id="clip0_47_1151">
<rect width="20" height="20" fill="white"/>
</clipPath>
</defs>
</svg>
