<svg width="20" height="20" viewBox="0 0 20 20" fill="none" xmlns="http://www.w3.org/2000/svg">
<path d="M1.66666 13.4167C2.46741 13.58 3.20245 13.9751 3.78032 14.553C4.35818 15.1309 4.75336 15.8659 4.91666 16.6667M1.66666 10.0417C3.35899 10.2299 4.93689 10.9884 6.14093 12.1924C7.34496 13.3964 8.10344 14.9743 8.29166 16.6667M1.66666 6.66667V5C1.66666 4.55797 1.84226 4.13405 2.15482 3.82149C2.46738 3.50893 2.8913 3.33333 3.33333 3.33333H16.6667C17.1087 3.33333 17.5326 3.50893 17.8452 3.82149C18.1577 4.13405 18.3333 4.55797 18.3333 5V15C18.3333 15.442 18.1577 15.8659 17.8452 16.1785C17.5326 16.4911 17.1087 16.6667 16.6667 16.6667H11.6667" stroke="black" stroke-width="1.68" stroke-linecap="round" stroke-linejoin="round"/>
<path d="M1.66666 16.6667H1.675" stroke="black" stroke-width="1.68" stroke-linecap="round" stroke-linejoin="round"/>
</svg>
