<svg width="25" height="24" viewBox="0 0 25 24" fill="none" xmlns="http://www.w3.org/2000/svg">
<path d="M8.025 10.925C8.30833 10.925 8.54583 10.8292 8.7375 10.6375C8.92917 10.4458 9.025 10.2083 9.025 9.925C9.025 9.64167 8.92917 9.40417 8.7375 9.2125C8.54583 9.02083 8.30833 8.925 8.025 8.925C7.74167 8.925 7.50417 9.02083 7.3125 9.2125C7.12083 9.40417 7.025 9.64167 7.025 9.925C7.025 10.2083 7.12083 10.4458 7.3125 10.6375C7.50417 10.8292 7.74167 10.925 8.025 10.925ZM12.45 10.925C12.7333 10.925 12.9708 10.8292 13.1625 10.6375C13.3542 10.4458 13.45 10.2083 13.45 9.925C13.45 9.64167 13.3542 9.40417 13.1625 9.2125C12.9708 9.02083 12.7333 8.925 12.45 8.925C12.1667 8.925 11.9292 9.02083 11.7375 9.2125C11.5458 9.40417 11.45 9.64167 11.45 9.925C11.45 10.2083 11.5458 10.4458 11.7375 10.6375C11.9292 10.8292 12.1667 10.925 12.45 10.925ZM16.7 10.925C16.9833 10.925 17.2208 10.8292 17.4125 10.6375C17.6042 10.4458 17.7 10.2083 17.7 9.925C17.7 9.64167 17.6042 9.40417 17.4125 9.2125C17.2208 9.02083 16.9833 8.925 16.7 8.925C16.4167 8.925 16.1792 9.02083 15.9875 9.2125C15.7958 9.40417 15.7 9.64167 15.7 9.925C15.7 10.2083 15.7958 10.4458 15.9875 10.6375C16.1792 10.8292 16.4167 10.925 16.7 10.925ZM2.375 22V3.5C2.375 3.1 2.525 2.75 2.825 2.45C3.125 2.15 3.475 2 3.875 2H20.875C21.275 2 21.625 2.15 21.925 2.45C22.225 2.75 22.375 3.1 22.375 3.5V16.5C22.375 16.9 22.225 17.25 21.925 17.55C21.625 17.85 21.275 18 20.875 18H6.375L2.375 22ZM5.725 16.5H20.875V3.5H3.875V18.5L5.725 16.5Z" fill="#62528F"/>
<path d="M3.875 3.5H20.875V16.5H5.725L3.875 18.5V3.5ZM3.875 3.5V16.5M8.025 10.925C8.30833 10.925 8.54583 10.8292 8.7375 10.6375C8.92917 10.4458 9.025 10.2083 9.025 9.925C9.025 9.64167 8.92917 9.40417 8.7375 9.2125C8.54583 9.02083 8.30833 8.925 8.025 8.925C7.74167 8.925 7.50417 9.02083 7.3125 9.2125C7.12083 9.40417 7.025 9.64167 7.025 9.925C7.025 10.2083 7.12083 10.4458 7.3125 10.6375C7.50417 10.8292 7.74167 10.925 8.025 10.925ZM12.45 10.925C12.7333 10.925 12.9708 10.8292 13.1625 10.6375C13.3542 10.4458 13.45 10.2083 13.45 9.925C13.45 9.64167 13.3542 9.40417 13.1625 9.2125C12.9708 9.02083 12.7333 8.925 12.45 8.925C12.1667 8.925 11.9292 9.02083 11.7375 9.2125C11.5458 9.40417 11.45 9.64167 11.45 9.925C11.45 10.2083 11.5458 10.4458 11.7375 10.6375C11.9292 10.8292 12.1667 10.925 12.45 10.925ZM16.7 10.925C16.9833 10.925 17.2208 10.8292 17.4125 10.6375C17.6042 10.4458 17.7 10.2083 17.7 9.925C17.7 9.64167 17.6042 9.40417 17.4125 9.2125C17.2208 9.02083 16.9833 8.925 16.7 8.925C16.4167 8.925 16.1792 9.02083 15.9875 9.2125C15.7958 9.40417 15.7 9.64167 15.7 9.925C15.7 10.2083 15.7958 10.4458 15.9875 10.6375C16.1792 10.8292 16.4167 10.925 16.7 10.925ZM2.375 22V3.5C2.375 3.1 2.525 2.75 2.825 2.45C3.125 2.15 3.475 2 3.875 2H20.875C21.275 2 21.625 2.15 21.925 2.45C22.225 2.75 22.375 3.1 22.375 3.5V16.5C22.375 16.9 22.225 17.25 21.925 17.55C21.625 17.85 21.275 18 20.875 18H6.375L2.375 22Z" stroke="#62528F"/>
</svg>
