<svg width="20" height="20" viewBox="0 0 20 20" fill="none" xmlns="http://www.w3.org/2000/svg">
<path d="M13.3333 3.33334H15C15.442 3.33334 15.866 3.50893 16.1785 3.82149C16.4911 4.13405 16.6667 4.55798 16.6667 5V16.6667C16.6667 17.1087 16.4911 17.5326 16.1785 17.8452C15.866 18.1577 15.442 18.3333 15 18.3333H5.00001C4.55798 18.3333 4.13406 18.1577 3.8215 17.8452C3.50894 17.5326 3.33334 17.1087 3.33334 16.6667V5C3.33334 4.55798 3.50894 4.13405 3.8215 3.82149C4.13406 3.50893 4.55798 3.33334 5.00001 3.33334H6.66668" stroke="black" stroke-width="1.68" stroke-linecap="round" stroke-linejoin="round"/>
<path d="M12.5 1.66667H7.49999C7.03975 1.66667 6.66666 2.03977 6.66666 2.50001V4.16667C6.66666 4.62691 7.03975 5.00001 7.49999 5.00001H12.5C12.9602 5.00001 13.3333 4.62691 13.3333 4.16667V2.50001C13.3333 2.03977 12.9602 1.66667 12.5 1.66667Z" stroke="black" stroke-width="1.68" stroke-linecap="round" stroke-linejoin="round"/>
</svg>
