<svg width="20" height="20" viewBox="0 0 20 20" fill="none" xmlns="http://www.w3.org/2000/svg">
<g clip-path="url(#clip0_47_1418)">
<path d="M15 8.33333H13.95C13.6382 7.12583 12.994 6.02998 12.0905 5.17032C11.1871 4.31066 10.0606 3.72165 8.8391 3.47023C7.6176 3.2188 6.35007 3.31503 5.18054 3.74799C4.01101 4.18095 2.98636 4.93327 2.22304 5.91948C1.45972 6.90569 0.98832 8.08623 0.862418 9.32696C0.736516 10.5677 0.961154 11.8189 1.51081 12.9383C2.06046 14.0577 2.91309 15.0006 3.97181 15.6596C5.03053 16.3187 6.25289 16.6676 7.5 16.6667H15C16.1051 16.6667 17.1649 16.2277 17.9463 15.4463C18.7277 14.6649 19.1667 13.6051 19.1667 12.5C19.1667 11.3949 18.7277 10.3351 17.9463 9.55372C17.1649 8.77231 16.1051 8.33333 15 8.33333Z" stroke="black" stroke-width="1.68" stroke-linecap="round" stroke-linejoin="round"/>
</g>
<defs>
<clipPath id="clip0_47_1418">
<rect width="20" height="20" fill="white"/>
</clipPath>
</defs>
</svg>
