<svg width="20" height="20" viewBox="0 0 20 20" fill="none" xmlns="http://www.w3.org/2000/svg">
<g clip-path="url(#clip0_47_1211)">
<path d="M18.8417 14.125C19.1102 13.4911 19.2174 12.8005 19.1538 12.115C19.0902 11.4296 18.8577 10.7705 18.4772 10.1968C18.0967 9.62313 17.5799 9.15267 16.9731 8.82748C16.3663 8.50229 15.6884 8.33252 15 8.33334H13.95C13.6098 6.99374 12.8617 5.79299 11.8092 4.89722C10.7567 4.00145 9.45175 3.45495 8.075 3.33334M4.16667 4.16667C2.86507 4.88637 1.84151 6.02066 1.25883 7.38909C0.676142 8.75753 0.567797 10.2815 0.951025 11.7186C1.33425 13.1557 2.18704 14.4234 3.37374 15.32C4.56043 16.2166 6.01287 16.6906 7.5 16.6667H15C15.4831 16.6661 15.9625 16.5815 16.4167 16.4167" stroke="black" stroke-width="1.68" stroke-linecap="round" stroke-linejoin="round"/>
<path d="M0.833344 0.833336L19.1667 19.1667" stroke="black" stroke-width="1.68" stroke-linecap="round" stroke-linejoin="round"/>
</g>
<defs>
<clipPath id="clip0_47_1211">
<rect width="20" height="20" fill="white"/>
</clipPath>
</defs>
</svg>
