<svg width="20" height="20" viewBox="0 0 20 20" fill="none" xmlns="http://www.w3.org/2000/svg">
<g clip-path="url(#clip0_47_1263)">
<path d="M13.3333 10.8333V17.5" stroke="black" stroke-width="1.68" stroke-linecap="round" stroke-linejoin="round"/>
<path d="M6.66667 10.8333V17.5" stroke="black" stroke-width="1.68" stroke-linecap="round" stroke-linejoin="round"/>
<path d="M10 12.5V19.1667" stroke="black" stroke-width="1.68" stroke-linecap="round" stroke-linejoin="round"/>
<path d="M16.6667 13.8167C17.5427 13.433 18.2601 12.7596 18.6984 11.9096C19.1367 11.0596 19.2693 10.0847 19.0738 9.14849C18.8784 8.2123 18.3668 7.37184 17.625 6.7682C16.8832 6.16455 15.9564 5.83446 15 5.83333H13.95C13.6858 4.81043 13.1824 3.86496 12.4811 3.07483C11.7798 2.28471 10.9008 1.67256 9.91646 1.28885C8.93216 0.905139 7.87075 0.760847 6.81973 0.86787C5.76871 0.974892 4.75817 1.33016 3.8714 1.9044C2.98464 2.47864 2.24704 3.2554 1.71941 4.17066C1.19178 5.08593 0.889219 6.11348 0.836668 7.16863C0.784118 8.22377 0.983082 9.2763 1.41716 10.2395C1.85124 11.2026 2.50801 12.0488 3.33333 12.7083" stroke="black" stroke-width="1.68" stroke-linecap="round" stroke-linejoin="round"/>
</g>
<defs>
<clipPath id="clip0_47_1263">
<rect width="20" height="20" fill="white"/>
</clipPath>
</defs>
</svg>
