<svg width="20" height="20" viewBox="0 0 20 20" fill="none" xmlns="http://www.w3.org/2000/svg">
<g clip-path="url(#clip0_47_1093)">
<path d="M15.8333 14.0833C16.846 13.8777 17.7461 13.3032 18.3589 12.4712C18.9717 11.6393 19.2536 10.6093 19.1498 9.58125C19.0459 8.55319 18.5638 7.60039 17.7969 6.90781C17.0301 6.21524 16.0333 5.8323 15 5.83333H13.95C13.6739 4.76443 13.1367 3.78083 12.3866 2.97082C11.6365 2.16082 10.6969 1.54978 9.65235 1.19255C8.60776 0.835331 7.49081 0.743111 6.40178 0.924174C5.31275 1.10524 4.28573 1.55392 3.41292 2.22992C2.54012 2.90593 1.84886 3.78811 1.4012 4.79726C0.953536 5.80641 0.763492 6.91093 0.848128 8.01166C0.932764 9.11239 1.28943 10.1749 1.8861 11.1037C2.48278 12.0326 3.30078 12.7987 4.26667 13.3333" stroke="black" stroke-width="1.68" stroke-linecap="round" stroke-linejoin="round"/>
<path d="M10.8333 9.16667L7.5 14.1667H12.5L9.16667 19.1667" stroke="black" stroke-width="1.68" stroke-linecap="round" stroke-linejoin="round"/>
</g>
<defs>
<clipPath id="clip0_47_1093">
<rect width="20" height="20" fill="white"/>
</clipPath>
</defs>
</svg>
