<svg width="20" height="20" viewBox="0 0 20 20" fill="none" xmlns="http://www.w3.org/2000/svg">
<g clip-path="url(#clip0_47_737)">
<path d="M6.66666 15.8333V17.5" stroke="black" stroke-width="1.68" stroke-linecap="round" stroke-linejoin="round"/>
<path d="M6.66666 10.8333V12.5" stroke="black" stroke-width="1.68" stroke-linecap="round" stroke-linejoin="round"/>
<path d="M13.3333 15.8333V17.5" stroke="black" stroke-width="1.68" stroke-linecap="round" stroke-linejoin="round"/>
<path d="M13.3333 10.8333V12.5" stroke="black" stroke-width="1.68" stroke-linecap="round" stroke-linejoin="round"/>
<path d="M10 17.5V19.1667" stroke="black" stroke-width="1.68" stroke-linecap="round" stroke-linejoin="round"/>
<path d="M10 12.5V14.1667" stroke="black" stroke-width="1.68" stroke-linecap="round" stroke-linejoin="round"/>
<path d="M16.6667 13.8167C17.5427 13.433 18.2601 12.7596 18.6984 11.9096C19.1367 11.0596 19.2693 10.0847 19.0738 9.14849C18.8784 8.2123 18.3668 7.37184 17.625 6.7682C16.8833 6.16455 15.9564 5.83446 15 5.83333H13.95C13.6859 4.81043 13.1824 3.86496 12.4811 3.07483C11.7798 2.28471 10.9008 1.67256 9.91648 1.28885C8.93217 0.905139 7.87076 0.760847 6.81974 0.86787C5.76872 0.974892 4.75818 1.33016 3.87142 1.9044C2.98466 2.47864 2.24706 3.2554 1.71943 4.17066C1.1918 5.08593 0.889234 6.11348 0.836684 7.16863C0.784133 8.22377 0.983098 9.2763 1.41718 10.2395C1.85126 11.2026 2.50802 12.0488 3.33334 12.7083" stroke="black" stroke-width="1.68" stroke-linecap="round" stroke-linejoin="round"/>
</g>
<defs>
<clipPath id="clip0_47_737">
<rect width="20" height="20" fill="white"/>
</clipPath>
</defs>
</svg>
