<svg width="20" height="20" viewBox="0 0 20 20" fill="none" xmlns="http://www.w3.org/2000/svg">
<g clip-path="url(#clip0_47_818)">
<path d="M16.6667 14.65C17.5427 14.2663 18.2601 13.593 18.6984 12.743C19.1367 11.8929 19.2693 10.918 19.0738 9.98183C18.8784 9.04564 18.3668 8.20519 17.625 7.60154C16.8833 6.99789 15.9564 6.6678 15 6.66668H13.95C13.6859 5.64378 13.1824 4.6983 12.4811 3.90818C11.7798 3.11805 10.9008 2.50591 9.91648 2.12219C8.93217 1.73848 7.87076 1.59419 6.81974 1.70121C5.76872 1.80824 4.75818 2.16351 3.87142 2.73775C2.98466 3.31198 2.24706 4.08875 1.71943 5.00401C1.1918 5.91927 0.889234 6.94682 0.836684 8.00197C0.784133 9.05712 0.983098 10.1096 1.41718 11.0728C1.85126 12.036 2.50802 12.8822 3.33334 13.5417" stroke="black" stroke-width="1.68" stroke-linecap="round" stroke-linejoin="round"/>
<path d="M6.66666 13.3333H6.67499" stroke="black" stroke-width="1.68" stroke-linecap="round" stroke-linejoin="round"/>
<path d="M6.66666 16.6667H6.67499" stroke="black" stroke-width="1.68" stroke-linecap="round" stroke-linejoin="round"/>
<path d="M10 15H10.0083" stroke="black" stroke-width="1.68" stroke-linecap="round" stroke-linejoin="round"/>
<path d="M10 18.3333H10.0083" stroke="black" stroke-width="1.68" stroke-linecap="round" stroke-linejoin="round"/>
<path d="M13.3333 13.3333H13.3417" stroke="black" stroke-width="1.68" stroke-linecap="round" stroke-linejoin="round"/>
<path d="M13.3333 16.6667H13.3417" stroke="black" stroke-width="1.68" stroke-linecap="round" stroke-linejoin="round"/>
</g>
<defs>
<clipPath id="clip0_47_818">
<rect width="20" height="20" fill="white"/>
</clipPath>
</defs>
</svg>
