<svg width="20" height="20" viewBox="0 0 20 20" fill="none" xmlns="http://www.w3.org/2000/svg">
<g clip-path="url(#clip0_47_914)">
<path d="M15 6.66667H15.8333C16.7174 6.66667 17.5652 7.01786 18.1904 7.64298C18.8155 8.2681 19.1667 9.11595 19.1667 10C19.1667 10.8841 18.8155 11.7319 18.1904 12.357C17.5652 12.9821 16.7174 13.3333 15.8333 13.3333H15" stroke="black" stroke-width="1.68" stroke-linecap="round" stroke-linejoin="round"/>
<path d="M1.66667 6.66667H15V14.1667C15 15.0507 14.6488 15.8986 14.0237 16.5237C13.3986 17.1488 12.5507 17.5 11.6667 17.5H5.00001C4.11595 17.5 3.2681 17.1488 2.64298 16.5237C2.01786 15.8986 1.66667 15.0507 1.66667 14.1667V6.66667Z" stroke="black" stroke-width="1.68" stroke-linecap="round" stroke-linejoin="round"/>
<path d="M5 0.833332V3.33333" stroke="black" stroke-width="1.68" stroke-linecap="round" stroke-linejoin="round"/>
<path d="M8.33333 0.833332V3.33333" stroke="black" stroke-width="1.68" stroke-linecap="round" stroke-linejoin="round"/>
<path d="M11.6667 0.833332V3.33333" stroke="black" stroke-width="1.68" stroke-linecap="round" stroke-linejoin="round"/>
</g>
<defs>
<clipPath id="clip0_47_914">
<rect width="20" height="20" fill="white"/>
</clipPath>
</defs>
</svg>
