<svg width="20" height="20" viewBox="0 0 20 20" fill="none" xmlns="http://www.w3.org/2000/svg">
<path d="M15 2.5C14.337 2.5 13.7011 2.76339 13.2322 3.23223C12.7634 3.70107 12.5 4.33696 12.5 5V15C12.5 15.663 12.7634 16.2989 13.2322 16.7678C13.7011 17.2366 14.337 17.5 15 17.5C15.663 17.5 16.2989 17.2366 16.7678 16.7678C17.2366 16.2989 17.5 15.663 17.5 15C17.5 14.337 17.2366 13.7011 16.7678 13.2322C16.2989 12.7634 15.663 12.5 15 12.5H5C4.33696 12.5 3.70107 12.7634 3.23223 13.2322C2.76339 13.7011 2.5 14.337 2.5 15C2.5 15.663 2.76339 16.2989 3.23223 16.7678C3.70107 17.2366 4.33696 17.5 5 17.5C5.66304 17.5 6.29893 17.2366 6.76777 16.7678C7.23661 16.2989 7.5 15.663 7.5 15V5C7.5 4.33696 7.23661 3.70107 6.76777 3.23223C6.29893 2.76339 5.66304 2.5 5 2.5C4.33696 2.5 3.70107 2.76339 3.23223 3.23223C2.76339 3.70107 2.5 4.33696 2.5 5C2.5 5.66304 2.76339 6.29893 3.23223 6.76777C3.70107 7.23661 4.33696 7.5 5 7.5H15C15.663 7.5 16.2989 7.23661 16.7678 6.76777C17.2366 6.29893 17.5 5.66304 17.5 5C17.5 4.33696 17.2366 3.70107 16.7678 3.23223C16.2989 2.76339 15.663 2.5 15 2.5Z" stroke="black" stroke-width="1.68" stroke-linecap="round" stroke-linejoin="round"/>
</svg>
