<svg width="24" height="24" viewBox="0 0 24 24" fill="none" xmlns="http://www.w3.org/2000/svg">
<g clip-path="url(#clip0_11810_100135)">
<path d="M3.49844 18.0001C3.1151 18.0001 2.76927 17.8459 2.46094 17.5376C2.1526 17.2293 1.99844 16.8834 1.99844 16.5001V4.1501L0.648438 2.8001L1.72344 1.7251L21.8984 21.9001L20.8234 22.9751L15.8484 18.0001H3.49844ZM21.9984 19.8501L18.6484 16.5001H20.4984V3.5001H5.64844L4.14844 2.0001H20.4984C20.8984 2.0001 21.2484 2.15426 21.5484 2.4626C21.8484 2.77093 21.9984 3.11676 21.9984 3.5001V19.8501ZM3.49844 16.5001H14.3484L11.8484 14.0001H5.99844V12.5001H10.3484L8.59844 10.7501H5.99844V9.2501H7.09844L3.49844 5.6501V16.5001ZM16.1484 14.0001L14.6484 12.5001H17.9984V14.0001H16.1484ZM12.8984 10.7501L11.3984 9.2501H17.9984V10.7501H12.8984ZM9.64844 7.5001L8.14844 6.0001H17.9984V7.5001H9.64844Z" fill="#62528F" stroke="#62528F"/>
</g>
<defs>
<clipPath id="clip0_11810_100135">
<rect width="24" height="24" fill="white"/>
</clipPath>
</defs>
</svg>
