<svg width="20" height="20" viewBox="0 0 20 20" fill="none" xmlns="http://www.w3.org/2000/svg">
<path d="M16.6667 7.5H9.16667C8.24619 7.5 7.5 8.24619 7.5 9.16667V16.6667C7.5 17.5871 8.24619 18.3333 9.16667 18.3333H16.6667C17.5871 18.3333 18.3333 17.5871 18.3333 16.6667V9.16667C18.3333 8.24619 17.5871 7.5 16.6667 7.5Z" stroke="black" stroke-width="1.68" stroke-linecap="round" stroke-linejoin="round"/>
<path d="M4.16667 12.5H3.33334C2.89131 12.5 2.46739 12.3244 2.15483 12.0118C1.84227 11.6993 1.66667 11.2754 1.66667 10.8333V3.33333C1.66667 2.89131 1.84227 2.46738 2.15483 2.15482C2.46739 1.84226 2.89131 1.66667 3.33334 1.66667H10.8333C11.2754 1.66667 11.6993 1.84226 12.0118 2.15482C12.3244 2.46738 12.5 2.89131 12.5 3.33333V4.16667" stroke="black" stroke-width="1.68" stroke-linecap="round" stroke-linejoin="round"/>
</svg>
