<svg width="20" height="20" viewBox="0 0 20 20" fill="none" xmlns="http://www.w3.org/2000/svg">
<g clip-path="url(#clip0_47_947)">
<path d="M15 3.33333H4.99999C4.07952 3.33333 3.33333 4.07952 3.33333 5V15C3.33333 15.9205 4.07952 16.6667 4.99999 16.6667H15C15.9205 16.6667 16.6667 15.9205 16.6667 15V5C16.6667 4.07952 15.9205 3.33333 15 3.33333Z" stroke="black" stroke-width="1.68" stroke-linecap="round" stroke-linejoin="round"/>
<path d="M12.5 7.5H7.5V12.5H12.5V7.5Z" stroke="black" stroke-width="1.68" stroke-linecap="round" stroke-linejoin="round"/>
<path d="M7.5 0.833332V3.33333" stroke="black" stroke-width="1.68" stroke-linecap="round" stroke-linejoin="round"/>
<path d="M12.5 0.833332V3.33333" stroke="black" stroke-width="1.68" stroke-linecap="round" stroke-linejoin="round"/>
<path d="M7.5 16.6667V19.1667" stroke="black" stroke-width="1.68" stroke-linecap="round" stroke-linejoin="round"/>
<path d="M12.5 16.6667V19.1667" stroke="black" stroke-width="1.68" stroke-linecap="round" stroke-linejoin="round"/>
<path d="M16.6667 7.5H19.1667" stroke="black" stroke-width="1.68" stroke-linecap="round" stroke-linejoin="round"/>
<path d="M16.6667 11.6667H19.1667" stroke="black" stroke-width="1.68" stroke-linecap="round" stroke-linejoin="round"/>
<path d="M0.833328 7.5H3.33333" stroke="black" stroke-width="1.68" stroke-linecap="round" stroke-linejoin="round"/>
<path d="M0.833328 11.6667H3.33333" stroke="black" stroke-width="1.68" stroke-linecap="round" stroke-linejoin="round"/>
</g>
<defs>
<clipPath id="clip0_47_947">
<rect width="20" height="20" fill="white"/>
</clipPath>
</defs>
</svg>
