<svg width="24" height="21" viewBox="0 0 24 21" fill="none" xmlns="http://www.w3.org/2000/svg">
<path d="M0 4.23732C0.0137604 4.21591 0.0350263 4.19592 0.0394046 4.17237C0.170754 3.38156 1.03328 2.92478 1.7557 3.60139C3.65589 5.3857 5.58109 7.13718 7.49629 8.90151C7.56822 8.96788 7.6414 9.03069 7.73021 9.10992C7.77525 9.01142 7.81278 8.93505 7.84593 8.85654C8.92424 6.30569 10.0026 3.75484 11.0809 1.20399C11.3311 0.608026 11.8377 0.364644 12.365 0.573766C12.6677 0.692958 12.8428 0.95204 12.976 1.26965C13.8851 3.42938 14.7958 5.58792 15.7081 7.74527C15.8958 8.19278 16.0878 8.64029 16.2892 9.11491L17.769 7.75455C19.2764 6.36517 20.7842 4.97578 22.2925 3.5864C22.704 3.20741 23.1243 3.14746 23.504 3.40583C23.8837 3.66419 24.0494 4.15238 23.9869 4.72765C23.8317 6.13297 23.6891 7.53972 23.5403 8.94576C23.376 10.5026 23.2111 12.059 23.0455 13.6149C22.8971 15.0124 22.7497 16.4099 22.6033 17.8074C22.5452 18.3555 22.4939 18.9044 22.4238 19.4489C22.3375 20.1227 21.9459 20.4988 21.3449 20.4988C18.5465 20.4988 15.7484 20.4988 12.9504 20.4988H2.77272C2.03529 20.4988 1.66813 20.1548 1.57431 19.3233C1.41732 17.9366 1.28097 16.5462 1.13648 15.1573C0.969691 13.5838 0.802898 12.0095 0.636105 10.4346C0.472857 8.87796 0.312111 7.32061 0.145735 5.76469C0.10633 5.39569 0.0494123 5.02955 0 4.6627V4.23732ZM21.7039 7.16002C21.5788 7.26922 21.5162 7.32489 21.4499 7.38413C19.8683 8.84013 18.2869 10.2966 16.7057 11.7536C16.0033 12.4009 15.3616 12.236 14.9657 11.3011C14.0287 9.08612 13.092 6.87096 12.1554 4.65556C12.1167 4.5642 12.0722 4.47713 12.0078 4.34009C11.9453 4.48641 11.9009 4.57919 11.8615 4.67269C10.9258 6.88904 9.99004 9.10492 9.05434 11.3203C8.66717 12.236 8.01605 12.4009 7.32553 11.7643L2.61823 7.42124C2.53754 7.34987 2.45498 7.2785 2.3155 7.15145C2.70642 10.8557 3.08796 14.4707 3.47012 18.0964H20.5468C20.9308 14.4693 21.3117 10.855 21.7014 7.16002H21.7039Z" fill="#62528F"/>
</svg>
