<svg width="21" height="25" viewBox="0 0 21 25" fill="none" xmlns="http://www.w3.org/2000/svg">
<g clip-path="url(#clip0_10680_3330)">
<path d="M2.25 1.62402C2.25 1.00059 1.74844 0.499023 1.125 0.499023C0.501562 0.499023 0 1.00059 0 1.62402V3.49902V16.9287V19.249V23.374C0 23.9975 0.501562 24.499 1.125 24.499C1.74844 24.499 2.25 23.9975 2.25 23.374V18.6865L6.01406 17.7443C7.94063 17.2615 9.97969 17.4865 11.7563 18.3725C13.8281 19.4084 16.2328 19.535 18.3984 18.7193L20.025 18.11C20.6109 17.8896 21 17.3318 21 16.7037V3.59746C21 2.51934 19.8656 1.81621 18.9 2.29902L18.45 2.52402C16.2797 3.61152 13.725 3.61152 11.5547 2.52402C9.90938 1.69902 8.02031 1.49277 6.23438 1.93809L2.25 2.93652V1.62402ZM2.25 5.25684L6.77813 4.12246C8.04375 3.8084 9.37969 3.95371 10.5469 4.53496C13.1203 5.81934 16.1109 5.92715 18.75 4.85371V16.1881L17.6063 16.6146C16.0266 17.2053 14.2688 17.1162 12.7594 16.3615C10.5 15.2318 7.91719 14.9506 5.46562 15.56L2.25 16.3662V5.25684Z" fill="#62528F"/>
</g>
<defs>
<clipPath id="clip0_10680_3330">
<rect width="21" height="24" fill="white" transform="translate(0 0.499023)"/>
</clipPath>
</defs>
</svg>
