<svg width="21" height="21" viewBox="0 0 21 21" fill="none" xmlns="http://www.w3.org/2000/svg">
<path d="M17.0122 1.83594H3.98783C1.78894 1.83594 0 3.62492 0 5.82385V15.1761C0 17.375 1.78894 19.164 3.98783 19.164H17.0121C19.2111 19.164 21 17.375 21 15.1761V5.82385C21 3.62492 19.2111 1.83594 17.0122 1.83594ZM19.7195 15.1761C19.7195 16.6689 18.505 17.8835 17.0121 17.8835H3.98783C2.49498 17.8835 1.28043 16.6689 1.28043 15.1761V5.82385C1.28043 4.33096 2.49498 3.1164 3.98783 3.1164H17.0121C18.505 3.1164 19.7195 4.33096 19.7195 5.82385V15.1761Z" fill="#757575"/>
<path d="M9.14241 9.85984H7.56799C7.21439 9.85984 6.92777 10.1465 6.92777 10.5C6.92777 10.8536 7.21443 11.1403 7.56799 11.1403H8.44523C8.21907 12.389 7.34621 13.3222 6.30708 13.3222C5.09671 13.3222 4.11197 12.0562 4.11197 10.5C4.11197 8.94392 5.09667 7.67789 6.30708 7.67789C6.90747 7.67789 7.46971 7.98809 7.89012 8.55136C8.1016 8.83473 8.50277 8.89297 8.78615 8.6815C9.06953 8.47006 9.12777 8.06885 8.91629 7.78551C8.25791 6.90335 7.30688 6.39746 6.30712 6.39746C5.35425 6.39746 4.46634 6.84092 3.80689 7.64618C3.17792 8.4142 2.83154 9.42778 2.83154 10.5C2.83154 11.5724 3.17796 12.5859 3.80689 13.3539C4.46634 14.1592 5.35425 14.6026 6.30712 14.6026C7.26 14.6026 8.14791 14.1592 8.80736 13.3539C9.43633 12.5859 9.78271 11.5723 9.78271 10.5C9.78267 10.1465 9.49601 9.85984 9.14241 9.85984Z" fill="#757575"/>
<path d="M11.7506 6.39746C11.397 6.39746 11.1104 6.68412 11.1104 7.03767V13.9625C11.1104 14.316 11.397 14.6027 11.7506 14.6027C12.1041 14.6027 12.3908 14.316 12.3908 13.9625V7.03767C12.3908 6.68412 12.1041 6.39746 11.7506 6.39746Z" fill="#757575"/>
<path d="M17.5282 9.04194H14.9992V7.67789H17.5282C17.8818 7.67789 18.1685 7.39123 18.1685 7.03767C18.1685 6.68408 17.8818 6.39746 17.5282 6.39746H14.359C14.0054 6.39746 13.7188 6.68412 13.7188 7.03767V13.9625C13.7188 14.316 14.0054 14.6027 14.359 14.6027C14.7126 14.6027 14.9992 14.316 14.9992 13.9625V10.3225H17.5282C17.8818 10.3225 18.1685 10.0358 18.1685 9.68224C18.1685 9.3286 17.8818 9.04194 17.5282 9.04194Z" fill="#757575"/>
</svg>
