<svg width="20" height="20" viewBox="0 0 20 20" fill="none" xmlns="http://www.w3.org/2000/svg">
<g clip-path="url(#clip0_47_604)">
<path d="M18.875 11.9917L10 18.4417L1.125 11.9917C1.00602 11.9042 0.917764 11.7813 0.87286 11.6406C0.827956 11.4999 0.828705 11.3486 0.874998 11.2083L1.89166 8.05833L3.925 1.8C3.94472 1.749 3.97611 1.70334 4.01666 1.66666C4.0827 1.60635 4.1689 1.57291 4.25833 1.57291C4.34776 1.57291 4.43397 1.60635 4.5 1.66666C4.54282 1.70805 4.57437 1.75968 4.59167 1.81666L6.625 8.05833H13.375L15.4083 1.8C15.4281 1.749 15.4594 1.70334 15.5 1.66666C15.566 1.60635 15.6522 1.57291 15.7417 1.57291C15.8311 1.57291 15.9173 1.60635 15.9833 1.66666C16.0262 1.70805 16.0577 1.75968 16.075 1.81666L18.1083 8.075L19.1667 11.2083C19.2088 11.3529 19.2031 11.5072 19.1506 11.6483C19.098 11.7894 19.0014 11.9098 18.875 11.9917V11.9917Z" stroke="black" stroke-width="1.68" stroke-linecap="round" stroke-linejoin="round"/>
</g>
<defs>
<clipPath id="clip0_47_604">
<rect width="20" height="20" fill="white"/>
</clipPath>
</defs>
</svg>
