<svg width="17" height="16" viewBox="0 0 17 16" fill="none" xmlns="http://www.w3.org/2000/svg">
<path d="M8.55924 14.6667C7.63702 14.6667 6.77036 14.4917 5.95924 14.1417C5.14813 13.7917 4.44258 13.3167 3.84258 12.7167C3.24258 12.1167 2.76758 11.4112 2.41758 10.6C2.06758 9.78893 1.89258 8.92226 1.89258 8.00004C1.89258 7.07782 2.06758 6.21115 2.41758 5.40004C2.76758 4.58893 3.24258 3.88337 3.84258 3.28337C4.44258 2.68337 5.14813 2.20837 5.95924 1.85837C6.77036 1.50837 7.63702 1.33337 8.55924 1.33337C9.48147 1.33337 10.3481 1.50837 11.1592 1.85837C11.9704 2.20837 12.6759 2.68337 13.2759 3.28337C13.8759 3.88337 14.3509 4.58893 14.7009 5.40004C15.0509 6.21115 15.2259 7.07782 15.2259 8.00004C15.2259 8.92226 15.0509 9.78893 14.7009 10.6C14.3509 11.4112 13.8759 12.1167 13.2759 12.7167C12.6759 13.3167 11.9704 13.7917 11.1592 14.1417C10.3481 14.4917 9.48147 14.6667 8.55924 14.6667ZM7.84258 13.65V12.2834C7.45369 12.2834 7.12591 12.1389 6.85924 11.85C6.59258 11.5612 6.45924 11.2223 6.45924 10.8334V10.1L3.04258 6.68337C2.98702 6.9056 2.94813 7.12504 2.92591 7.34171C2.90369 7.55837 2.89258 7.77782 2.89258 8.00004C2.89258 9.44448 3.36202 10.7056 4.30091 11.7834C5.2398 12.8612 6.42036 13.4834 7.84258 13.65ZM12.7426 11.85C12.987 11.5834 13.2009 11.3 13.3842 11C13.5676 10.7 13.7231 10.3862 13.8509 10.0584C13.9787 9.7306 14.0731 9.39448 14.1342 9.05004C14.1954 8.7056 14.2259 8.3556 14.2259 8.00004C14.2259 6.82226 13.9037 5.75282 13.2592 4.79171C12.6148 3.8306 11.7537 3.12782 10.6759 2.68337V2.98337C10.6759 3.37226 10.5426 3.71115 10.2759 4.00004C10.0092 4.28893 9.68147 4.43337 9.29258 4.43337H7.84258V5.88337C7.84258 6.07226 7.76758 6.22782 7.61758 6.35004C7.46758 6.47226 7.29813 6.53337 7.10924 6.53337H5.72591V8.00004H10.0259C10.2148 8.00004 10.3704 8.07226 10.4926 8.21671C10.6148 8.36115 10.6759 8.52782 10.6759 8.71671V10.8334H11.3926C11.7148 10.8334 11.9981 10.9278 12.2426 11.1167C12.487 11.3056 12.6537 11.55 12.7426 11.85Z" fill="#62528F"/>
</svg>
