<svg width="20" height="20" viewBox="0 0 20 20" fill="none" xmlns="http://www.w3.org/2000/svg">
<path d="M18.565 9.37932L17.8152 9.39823V9.39823L18.565 9.37932ZM15.061 2.95527L14.5541 3.50803L15.061 2.95527ZM15.0134 4.00875L14.4714 3.49033L14.4714 3.49033L15.0134 4.00875ZM14.0068 5.06112L14.5487 5.57954L14.0068 5.06112ZM12.5127 5.15063L12.9206 4.52128L12.5127 5.15063ZM14.8638 11.8927L14.159 11.6364L14.8638 11.8927ZM3.23057 5.24723C2.89142 5.00944 2.42371 5.0916 2.18591 5.43075C1.94811 5.76991 2.03028 6.23762 2.36943 6.47542L3.23057 5.24723ZM4.43075 7.92072C4.76991 8.15851 5.23762 8.07635 5.47542 7.7372C5.71321 7.39804 5.63105 6.93033 5.2919 6.69253L4.43075 7.92072ZM13.4634 14.3859C13.1242 14.1481 12.6565 14.2303 12.4187 14.5694C12.1809 14.9086 12.2631 15.3763 12.6022 15.6141L13.4634 14.3859ZM14.6636 17.0594C15.0027 17.2972 15.4704 17.215 15.7082 16.8759C15.946 16.5367 15.8639 16.069 15.5247 15.8312L14.6636 17.0594ZM2.73262 13.4848L2.17798 13.9897L3.1877 15.0989L3.74233 14.5941L2.73262 13.4848ZM5.36926 13.1132L5.9239 12.6083L4.91418 11.4991L4.35955 12.0039L5.36926 13.1132ZM10.75 11.3V8.7H9.25V11.3H10.75ZM10.2 9.25H17.6172V7.75H10.2V9.25ZM17.8152 9.39823C17.8614 11.2297 17.3355 13.3344 16.0925 14.9631C14.8707 16.5641 12.9252 17.75 10 17.75V19.25C13.392 19.25 15.7788 17.8467 17.285 15.8731C18.7701 13.927 19.368 11.4713 19.3147 9.3604L17.8152 9.39823ZM10 17.75C5.44277 17.75 2.25 14.1149 2.25 10H0.75C0.75 14.8851 4.55723 19.25 10 19.25V17.75ZM2.25 10C2.25 5.91421 5.91421 2.25 10 2.25V0.75C5.08579 0.75 0.75 5.08579 0.75 10H2.25ZM10 2.25C12.6305 2.25 13.9981 2.99812 14.5541 3.50803L15.5679 2.40252C14.6686 1.57781 12.9045 0.75 10 0.75V2.25ZM14.4714 3.49033L13.4648 4.54271L14.5487 5.57954L15.5554 4.52717L14.4714 3.49033ZM12.9206 4.52128C12.1445 4.01824 11.2258 3.75 10 3.75V5.25C10.9862 5.25 11.6104 5.45955 12.1047 5.77999L12.9206 4.52128ZM10 3.75C8.82704 3.75 7.28833 4.22224 6.03345 5.21927C4.7534 6.23629 3.75 7.81757 3.75 10H5.25C5.25 8.33307 5.9966 7.16435 6.96655 6.39371C7.96167 5.60307 9.17296 5.25 10 5.25V3.75ZM3.75 10C3.75 13.9997 7.17676 16.25 10 16.25V14.75C7.82324 14.75 5.25 13.0003 5.25 10H3.75ZM10 16.25C11.7884 16.25 13.0559 15.6563 13.9484 14.803C14.8191 13.9705 15.2812 12.9399 15.5687 12.1489L14.159 11.6364C13.8992 12.3511 13.5339 13.1241 12.9118 13.7188C12.3115 14.2928 11.4207 14.75 10 14.75V16.25ZM14.5838 10.75H10.2V12.25H14.5838V10.75ZM13.4648 4.54271C13.4225 4.58688 13.3601 4.61925 13.2631 4.62284C13.1599 4.62665 13.0343 4.59495 12.9206 4.52128L12.1047 5.77999C12.7873 6.2224 13.8444 6.31592 14.5487 5.57954L13.4648 4.54271ZM17.6172 9.25C17.6834 9.25 17.737 9.27466 17.7707 9.30529C17.8015 9.33333 17.8144 9.36358 17.8152 9.39823L19.3147 9.36041C19.2906 8.40227 18.4794 7.75 17.6172 7.75V9.25ZM14.5541 3.50803C14.5453 3.49998 14.532 3.48306 14.5232 3.45942C14.5149 3.4374 14.5152 3.42193 14.5155 3.41811C14.5157 3.4151 14.5156 3.42236 14.5084 3.43777C14.5013 3.45296 14.4892 3.47166 14.4714 3.49033L15.5554 4.52717C16.0255 4.03561 16.2966 3.07079 15.5679 2.40252L14.5541 3.50803ZM10.75 8.7C10.75 9.00376 10.5038 9.25 10.2 9.25V7.75C9.67533 7.75 9.25 8.17533 9.25 8.7H10.75ZM15.5687 12.1489C15.8231 11.4491 15.2894 10.75 14.5838 10.75V12.25C14.2877 12.25 14.0445 11.9514 14.159 11.6364L15.5687 12.1489ZM9.25 11.3C9.25 11.8247 9.67533 12.25 10.2 12.25V10.75C10.5038 10.75 10.75 10.9962 10.75 11.3H9.25ZM2.36943 6.47542L4.43075 7.92072L5.2919 6.69253L3.23057 5.24723L2.36943 6.47542ZM12.6022 15.6141L14.6636 17.0594L15.5247 15.8312L13.4634 14.3859L12.6022 15.6141ZM3.74233 14.5941L5.36926 13.1132L4.35955 12.0039L2.73262 13.4848L3.74233 14.5941Z" fill="black"/>
</svg>
