<svg width="20" height="20" viewBox="0 0 20 20" fill="none" xmlns="http://www.w3.org/2000/svg">
<path d="M18.3333 10H1.66666" stroke="black" stroke-width="1.68" stroke-linecap="round" stroke-linejoin="round"/>
<path d="M4.54166 4.25833L1.66666 10V15C1.66666 15.442 1.84225 15.8659 2.15481 16.1785C2.46737 16.4911 2.8913 16.6667 3.33332 16.6667H16.6667C17.1087 16.6667 17.5326 16.4911 17.8452 16.1785C18.1577 15.8659 18.3333 15.442 18.3333 15V10L15.4583 4.25833C15.3203 3.98066 15.1076 3.74698 14.8441 3.58357C14.5806 3.42016 14.2767 3.3335 13.9667 3.33333H6.03332C5.72325 3.3335 5.41938 3.42016 5.15586 3.58357C4.89234 3.74698 4.67964 3.98066 4.54166 4.25833V4.25833Z" stroke="black" stroke-width="1.68" stroke-linecap="round" stroke-linejoin="round"/>
<path d="M5 13.3333H5.00833" stroke="black" stroke-width="1.68" stroke-linecap="round" stroke-linejoin="round"/>
<path d="M8.33334 13.3333H8.34168" stroke="black" stroke-width="1.68" stroke-linecap="round" stroke-linejoin="round"/>
</svg>
