<svg width="20" height="20" viewBox="0 0 20 20" fill="none" xmlns="http://www.w3.org/2000/svg">
<path d="M18.3333 10H13.3333L11.6667 12.5H8.33334L6.66667 10H1.66667" stroke="black" stroke-width="1.68" stroke-linecap="round" stroke-linejoin="round"/>
<path d="M4.54167 4.25833L1.66667 9.99999V15C1.66667 15.442 1.84227 15.8659 2.15483 16.1785C2.46739 16.4911 2.89131 16.6667 3.33334 16.6667H16.6667C17.1087 16.6667 17.5326 16.4911 17.8452 16.1785C18.1577 15.8659 18.3333 15.442 18.3333 15V9.99999L15.4583 4.25833C15.3204 3.98065 15.1077 3.74697 14.8441 3.58356C14.5806 3.42015 14.2767 3.33349 13.9667 3.33333H6.03334C5.72327 3.33349 5.41939 3.42015 5.15588 3.58356C4.89236 3.74697 4.67965 3.98065 4.54167 4.25833V4.25833Z" stroke="black" stroke-width="1.68" stroke-linecap="round" stroke-linejoin="round"/>
</svg>
