<svg width="24" height="24" viewBox="0 0 24 24" fill="none" xmlns="http://www.w3.org/2000/svg">
<path d="M2 11L7 2L12 11H2ZM7.025 21C5.925 21 4.98333 20.6083 4.2 19.825C3.41667 19.0417 3.025 18.1 3.025 17C3.025 15.8833 3.41667 14.9375 4.2 14.1625C4.98333 13.3875 5.925 13 7.025 13C8.125 13 9.06667 13.3917 9.85 14.175C10.6333 14.9583 11.025 15.9 11.025 17C11.025 18.1 10.6333 19.0417 9.85 19.825C9.06667 20.6083 8.125 21 7.025 21ZM7.025 19.5C7.725 19.5 8.31667 19.2583 8.8 18.775C9.28333 18.2917 9.525 17.7 9.525 17C9.525 16.3 9.28333 15.7083 8.8 15.225C8.31667 14.7417 7.725 14.5 7.025 14.5C6.325 14.5 5.73333 14.7417 5.25 15.225C4.76667 15.7083 4.525 16.3 4.525 17C4.525 17.7 4.76667 18.2917 5.25 18.775C5.73333 19.2583 6.325 19.5 7.025 19.5ZM4.55 9.5H9.45L7 5.1L4.55 9.5ZM13 21V13H21V21H13ZM14.5 19.5H19.5V14.5H14.5V19.5ZM17 11C16.05 10.2 15.2542 9.525 14.6125 8.975C13.9708 8.425 13.4583 7.94167 13.075 7.525C12.6917 7.10833 12.4167 6.71667 12.25 6.35C12.0833 5.98333 12 5.59167 12 5.175C12 4.425 12.2625 3.79167 12.7875 3.275C13.3125 2.75833 13.9667 2.5 14.75 2.5C15.1833 2.5 15.6 2.6 16 2.8C16.4 3 16.7333 3.29167 17 3.675C17.2667 3.29167 17.6 3 18 2.8C18.4 2.6 18.8167 2.5 19.25 2.5C20.0333 2.5 20.6875 2.75833 21.2125 3.275C21.7375 3.79167 22 4.425 22 5.175C22 5.59167 21.9167 5.98333 21.75 6.35C21.5833 6.71667 21.3083 7.10833 20.925 7.525C20.5417 7.94167 20.0292 8.425 19.3875 8.975C18.7458 9.525 17.95 10.2 17 11ZM17 9.025C18.4167 7.85833 19.3542 7.025 19.8125 6.525C20.2708 6.025 20.5 5.59167 20.5 5.225C20.5 4.8589 20.3929 4.56321 20.1786 4.33793C19.9643 4.11264 19.6714 4 19.3 4C19.0816 4 18.8687 4.05833 18.6612 4.175C18.4537 4.29167 18.1917 4.49167 17.875 4.775L17 5.6L16.125 4.775C15.8139 4.48567 15.5528 4.28417 15.3417 4.1705C15.1306 4.05683 14.9167 4 14.7 4C14.3286 4 14.0357 4.11264 13.8214 4.33793C13.6071 4.56321 13.5 4.8589 13.5 5.225C13.5 5.59167 13.7292 6.025 14.1875 6.525C14.6458 7.025 15.5833 7.85833 17 9.025Z" fill="#62528F"/>
</svg>
