<svg width="20" height="20" viewBox="0 0 20 20" fill="none" xmlns="http://www.w3.org/2000/svg">
<path d="M12.9167 6.25001L15.8333 3.33334M17.5 1.66667L15.8333 3.33334L17.5 1.66667ZM9.49167 9.67501C9.92195 10.0996 10.264 10.605 10.4981 11.1623C10.7323 11.7196 10.8538 12.3177 10.8559 12.9222C10.8579 13.5267 10.7403 14.1256 10.5099 14.6844C10.2795 15.2433 9.94088 15.751 9.51345 16.1785C9.08603 16.6059 8.57827 16.9445 8.01942 17.1749C7.46057 17.4053 6.86167 17.5229 6.25719 17.5209C5.65272 17.5188 5.05462 17.3973 4.49733 17.1631C3.94003 16.929 3.43456 16.587 3.01 16.1567C2.17511 15.2922 1.71313 14.1345 1.72358 12.9328C1.73402 11.731 2.21604 10.5815 3.06583 9.73167C3.91562 8.88188 5.06518 8.39986 6.26691 8.38942C7.46865 8.37897 8.62641 8.84095 9.49083 9.67584L9.49167 9.67501ZM9.49167 9.67501L12.9167 6.25001L9.49167 9.67501ZM12.9167 6.25001L15.4167 8.75001L18.3333 5.83334L15.8333 3.33334L12.9167 6.25001Z" stroke="black" stroke-width="1.68" stroke-linecap="round" stroke-linejoin="round"/>
</svg>
