<svg width="20" height="20" viewBox="0 0 20 20" fill="none" xmlns="http://www.w3.org/2000/svg">
<path d="M10 18.3333C14.6024 18.3333 18.3333 14.6024 18.3333 10C18.3333 5.39762 14.6024 1.66666 10 1.66666C5.39763 1.66666 1.66667 5.39762 1.66667 10C1.66667 14.6024 5.39763 18.3333 10 18.3333Z" stroke="black" stroke-width="1.68" stroke-linecap="round" stroke-linejoin="round"/>
<path d="M10 13.3333C11.841 13.3333 13.3333 11.8409 13.3333 10C13.3333 8.15905 11.841 6.66666 10 6.66666C8.15905 6.66666 6.66667 8.15905 6.66667 10C6.66667 11.8409 8.15905 13.3333 10 13.3333Z" stroke="black" stroke-width="1.68" stroke-linecap="round" stroke-linejoin="round"/>
<path d="M4.10833 4.10834L7.64167 7.64167" stroke="black" stroke-width="1.68" stroke-linecap="round" stroke-linejoin="round"/>
<path d="M12.3583 12.3583L15.8917 15.8917" stroke="black" stroke-width="1.68" stroke-linecap="round" stroke-linejoin="round"/>
<path d="M12.3583 7.64167L15.8917 4.10834" stroke="black" stroke-width="1.68" stroke-linecap="round" stroke-linejoin="round"/>
<path d="M12.3583 7.64166L15.3 4.7" stroke="black" stroke-width="1.68" stroke-linecap="round" stroke-linejoin="round"/>
<path d="M4.10833 15.8917L7.64167 12.3583" stroke="black" stroke-width="1.68" stroke-linecap="round" stroke-linejoin="round"/>
</svg>
