<svg width="20" height="20" viewBox="0 0 20 20" fill="none" xmlns="http://www.w3.org/2000/svg">
<path d="M8.33334 10.8333C8.69122 11.3118 9.14781 11.7076 9.67214 11.9941C10.1965 12.2806 10.7763 12.4509 11.3722 12.4936C11.9682 12.5363 12.5663 12.4503 13.1261 12.2415C13.6859 12.0327 14.1943 11.7059 14.6167 11.2833L17.1167 8.78333C17.8757 7.99749 18.2956 6.94498 18.2862 5.85249C18.2767 4.76001 17.8385 3.71495 17.0659 2.94242C16.2934 2.16989 15.2483 1.73168 14.1558 1.72219C13.0634 1.71269 12.0109 2.13267 11.225 2.89166L9.79168 4.31666" stroke="black" stroke-width="1.68" stroke-linecap="round" stroke-linejoin="round"/>
<path d="M11.6667 9.16667C11.3088 8.68823 10.8522 8.29235 10.3279 8.00588C9.80356 7.71942 9.22376 7.54907 8.62781 7.50639C8.03185 7.46371 7.43369 7.54969 6.87389 7.75851C6.31409 7.96734 5.80575 8.29411 5.38335 8.71667L2.88335 11.2167C2.12436 12.0025 1.70438 13.055 1.71387 14.1475C1.72337 15.24 2.16157 16.285 2.9341 17.0576C3.70664 17.8301 4.75169 18.2683 5.84418 18.2778C6.93666 18.2873 7.98917 17.8673 8.77501 17.1083L10.2 15.6833" stroke="black" stroke-width="1.68" stroke-linecap="round" stroke-linejoin="round"/>
</svg>
