<svg width="20" height="20" viewBox="0 0 20 20" fill="none" xmlns="http://www.w3.org/2000/svg">
<g clip-path="url(#clip0_47_1154)">
<path d="M12.5 5.83334H15C15.5472 5.83334 16.089 5.94111 16.5945 6.1505C17.1 6.3599 17.5594 6.66681 17.9463 7.05372C18.3332 7.44064 18.6401 7.89997 18.8495 8.40549C19.0589 8.91101 19.1667 9.45283 19.1667 10C19.1667 10.5472 19.0589 11.089 18.8495 11.5945C18.6401 12.1 18.3332 12.5594 17.9463 12.9463C17.5594 13.3332 17.1 13.6401 16.5945 13.8495C16.089 14.0589 15.5472 14.1667 15 14.1667H12.5M7.49999 14.1667H4.99999C4.45282 14.1667 3.911 14.0589 3.40548 13.8495C2.89996 13.6401 2.44063 13.3332 2.05372 12.9463C1.27232 12.1649 0.833328 11.1051 0.833328 10C0.833328 8.89493 1.27232 7.83513 2.05372 7.05372C2.83512 6.27232 3.89493 5.83334 4.99999 5.83334H7.49999" stroke="black" stroke-width="1.68" stroke-linecap="round" stroke-linejoin="round"/>
<path d="M6.66667 10H13.3333" stroke="black" stroke-width="1.68" stroke-linecap="round" stroke-linejoin="round"/>
</g>
<defs>
<clipPath id="clip0_47_1154">
<rect width="20" height="20" fill="white"/>
</clipPath>
</defs>
</svg>
