<svg width="20" height="20" viewBox="0 0 20 20" fill="none" xmlns="http://www.w3.org/2000/svg">
<path d="M6.66667 2.5V5C6.66667 5.44203 6.49107 5.86595 6.17851 6.17851C5.86595 6.49107 5.44203 6.66667 5 6.66667H2.5M17.5 6.66667H15C14.558 6.66667 14.134 6.49107 13.8215 6.17851C13.5089 5.86595 13.3333 5.44203 13.3333 5V2.5M13.3333 17.5V15C13.3333 14.558 13.5089 14.134 13.8215 13.8215C14.134 13.5089 14.558 13.3333 15 13.3333H17.5M2.5 13.3333H5C5.44203 13.3333 5.86595 13.5089 6.17851 13.8215C6.49107 14.134 6.66667 14.558 6.66667 15V17.5" stroke="black" stroke-width="1.68" stroke-linecap="round" stroke-linejoin="round"/>
</svg>
