<svg width="104" height="108" viewBox="0 0 104 108" fill="none" xmlns="http://www.w3.org/2000/svg">
<path d="M11.0937 40.4517L41.1742 67.3216C41.2076 67.3523 41.2718 67.3866 41.3043 67.4499L51.4486 76.5264L92.4197 40.7435V30.1983L68.0441 4.79707H11.0937V40.4517ZM54.77 50.2673H49.1793V39.8733H38.7309V34.1754H49.1793V23.727H54.77V34.1754H65.2694V39.8733H54.77V50.2673ZM97.2493 36.5291C97.8979 35.9771 98.6424 35.7188 99.3886 35.7188C100.037 35.7188 100.62 35.913 101.204 36.2373C101.625 36.4957 101.982 36.82 102.307 37.1777C103.149 38.1489 103.797 39.6721 103.797 40.9377V103.041C103.797 104.404 103.245 105.635 102.338 106.543C101.43 107.449 100.198 108 98.8393 108H5.16191C3.80225 108 2.57002 107.449 1.66299 106.543C0.755078 105.635 0.203125 104.404 0.203125 103.041V40.9377C0.203125 39.6729 0.851758 38.1164 1.72627 37.1452C2.05059 36.7875 2.40566 36.4658 2.82754 36.2382C3.37861 35.9139 3.96221 35.7196 4.61084 35.7196C5.19355 35.7196 5.77627 35.8813 6.32822 36.2057V2.39766C6.3291 1.06875 7.39961 0 8.72852 0H69.5682C70.3152 0 70.9946 0.322559 71.4165 0.874512L96.6007 26.9016C97.0551 27.3568 97.2827 27.9729 97.2827 28.5882V29.2676C97.2827 29.3651 97.3135 29.4618 97.3135 29.5594C97.3135 29.6569 97.3135 29.7536 97.2827 29.8512V36.5625L97.2493 36.5291ZM49.8279 81.5203L39.6177 72.3779L4.9668 102.749V103.009C4.9668 103.041 4.9668 103.104 5.0002 103.104C5.03359 103.139 5.06436 103.139 5.09775 103.139H98.7725C98.805 103.139 98.8691 103.139 98.8691 103.104C98.9017 103.074 98.9017 103.041 98.9017 103.009V102.847L63.7665 72.0527L52.941 81.486C52.0331 82.2639 50.6708 82.2964 49.7638 81.4535L49.8279 81.5203ZM35.9887 69.1708L4.93604 41.4229V96.3633L35.9887 69.1708ZM98.9359 96.4942V41.4229L67.4614 68.9098L98.9359 96.4942Z" fill="#D7C9FF"/>
</svg>
