<svg width="112" height="108" viewBox="0 0 112 108" fill="none" xmlns="http://www.w3.org/2000/svg">
<g clip-path="url(#clip0_11621_106136)">
<path fill-rule="evenodd" clip-rule="evenodd" d="M91.4764 67.5736C95.4738 67.5754 99.3809 68.7624 102.704 70.9845C106.027 73.2066 108.616 76.3641 110.144 80.0578C111.673 83.7514 112.072 87.8153 111.291 91.7357C110.51 95.6561 108.584 99.2569 105.757 102.083C102.93 104.909 99.3281 106.833 95.4074 107.612C91.4866 108.391 87.4229 107.991 83.73 106.46C80.037 104.93 76.8807 102.339 74.66 99.0156C72.4394 95.6918 71.2541 91.7841 71.2541 87.7867C71.2529 85.1312 71.7752 82.5015 72.7912 80.048C73.8072 77.5945 75.2968 75.3653 77.175 73.488C79.0531 71.6107 81.283 70.122 83.7369 69.1072C86.1909 68.0923 88.8208 67.5712 91.4764 67.5736ZM32.9397 51.5571C31.0453 48.5387 27.5012 44.4417 27.5012 40.9067C27.5441 39.758 27.9332 38.6491 28.6174 37.7255C29.3016 36.8019 30.249 36.1067 31.3354 35.731C31.1541 32.7398 31.0362 29.7033 31.0362 26.6668C31.0362 24.854 31.0362 23.0955 31.136 21.337C31.2323 20.411 31.4329 19.4988 31.7342 18.6178C33.1357 14.1306 36.1481 10.3207 40.1911 7.92203C41.6457 7.03072 43.1889 6.29258 44.7957 5.71943C47.6963 4.65891 46.2822 0.0633627 49.4819 -8.67443e-05C56.9417 -0.190435 69.2056 6.34486 73.9553 11.5115C76.9834 14.6461 78.7266 18.802 78.8409 23.159L78.5689 36.2567C79.2792 36.4074 79.9395 36.7359 80.4881 37.2115C81.0366 37.6871 81.4554 38.2943 81.7051 38.976C82.7294 43.1002 78.4511 48.2305 76.457 51.5118C74.6441 54.5392 67.6103 62.7967 67.6103 62.8692C67.3837 65.6429 69.1965 67.5282 72.2149 69.0691C68.3616 73.0413 65.8293 78.1068 64.9645 83.5729C64.0998 89.039 64.9447 94.6388 67.3837 99.6065H0.308594C0.308594 69.0782 41.9042 76.0395 41.7048 62.7695C41.7048 62.5792 33.6467 52.7083 32.9216 51.5571H32.9397ZM87.8144 78.2059C87.8144 77.1272 87.7147 76.393 89.0562 76.393L93.407 76.4474C94.812 76.4474 95.2199 76.8825 95.1655 78.1968V84.1339H101.066C102.145 84.1339 102.879 84.0342 102.879 85.3757L102.825 89.7265C102.825 91.1314 102.39 91.5393 101.075 91.4849H95.1383V97.4129C95.1383 98.7363 94.7848 99.2258 93.3798 99.1714L89.029 99.2258C87.6875 99.2258 87.7872 98.4644 87.7872 97.4129V91.4577H81.8864C80.5631 91.4577 80.0736 91.1042 80.128 89.6993L80.0736 85.3485C80.0736 84.007 80.8259 84.1067 81.8864 84.1067H87.7872V78.2059H87.8144Z" fill="#D7C9FF"/>
</g>
<defs>
<clipPath id="clip0_11621_106136">
<rect width="111.381" height="108" fill="white" transform="translate(0.308594)"/>
</clipPath>
</defs>
</svg>
