<svg width="162" height="108" viewBox="0 0 162 108" fill="none" xmlns="http://www.w3.org/2000/svg">
<g clip-path="url(#clip0_11621_106151)">
<path fill-rule="evenodd" clip-rule="evenodd" d="M1.4498 94.7221C1.30095 94.7221 1.15357 94.6928 1.01609 94.6357C0.87861 94.5787 0.753742 94.495 0.648637 94.3896C0.543532 94.2842 0.460257 94.1591 0.403583 94.0215C0.346909 93.8839 0.317949 93.7364 0.318364 93.5876C0.318364 93.2661 0.362487 92.9478 0.441277 92.6326C2.25662 78.2454 13.5205 74.4036 21.5131 72.3298C25.5125 71.2929 35.4622 67.3439 31.5006 61.9168C29.2755 58.8692 27.2616 56.7261 25.2477 53.5083C23.7948 51.362 23.029 49.449 23.029 47.9142C23.029 46.2785 23.8957 44.3623 25.6322 43.9305C25.4022 40.637 25.3265 36.3036 25.481 32.7769C26.0325 26.7258 30.3723 22.2662 35.979 20.2901C38.2009 19.4455 37.1262 16.0733 39.5782 15.9976C45.3268 15.8432 54.7533 20.7471 58.4312 24.7308C60.5775 27.0315 61.9548 30.0948 62.1848 34.1573L61.9548 44.3118C63.0263 44.6207 63.7165 45.3078 64.0254 46.3793C64.3311 47.6053 64.0254 49.2946 62.9507 51.6709C62.9507 51.7465 62.875 51.7465 62.875 51.8222C60.5113 55.7207 58.0436 58.3019 55.3363 61.9168C54.1261 63.5273 54.3625 65.0716 55.3679 66.4583C53.9559 67.2841 52.5787 68.2295 51.255 69.3452C45.9981 73.7575 41.9419 80.3381 40.5174 90.8141L40.3377 91.8825C40.2621 92.4813 40.218 92.9793 40.218 93.3512C40.218 93.8176 40.2589 94.2746 40.3346 94.7221H1.4498ZM135.208 55.0526C149.835 55.0526 161.682 66.909 161.682 81.5263C161.682 96.1498 149.825 108 135.208 108C120.584 108 108.734 96.1435 108.734 81.5263C108.734 66.8996 120.591 55.0526 135.208 55.0526ZM124.836 76.8461C124.004 76.0267 123.314 75.494 124.429 74.4918L127.855 71.0629C128.958 69.9503 129.604 70.0071 130.629 71.0566L135.303 75.7336L139.951 71.0849C140.799 70.2277 141.332 69.5375 142.372 70.6122L145.763 74.079C146.875 75.1789 146.816 75.8281 145.769 76.8493L141.095 81.5231L145.769 86.2001C146.819 87.2213 146.875 87.8674 145.76 88.9673L142.372 92.4341C141.332 93.5119 140.799 92.8217 139.951 91.9613L135.306 87.3158L130.629 91.9897C129.604 93.0392 128.958 93.0991 127.862 91.9834L124.389 88.5954C123.314 87.5522 124.004 87.0227 124.861 86.1749L129.513 81.5231L124.836 76.8461ZM48.4658 94.7347C47.6999 94.7347 47.0822 94.117 47.0822 93.3512C47.0822 92.9572 47.1358 92.5696 47.2335 92.1851C49.4459 74.6274 59.9692 70.8076 69.7109 68.302C74.3879 67.0981 83.7168 62.4053 82.5853 56.3542C80.2247 54.167 77.8862 51.1446 77.4765 46.6377L77.1929 46.644C76.5405 46.6346 75.907 46.4865 75.3177 46.1524C74.016 45.4118 73.3006 43.9935 72.9603 42.3736C72.2354 37.435 72.0557 34.9137 74.6873 33.8106L74.7094 33.8043C74.3816 27.7091 75.4122 18.7427 69.1531 16.8486C81.5106 1.58207 95.756 -6.72563 106.449 6.85789C118.366 7.48191 123.679 24.362 116.283 33.8106H115.967C118.602 34.9137 118.205 37.747 117.698 42.3736C117.354 43.9935 116.639 45.4118 115.337 46.1524C114.748 46.4865 114.117 46.6346 113.462 46.644L113.178 46.6377C112.772 51.1446 110.424 54.167 108.063 56.3542C107.745 58.0655 108.262 59.6697 109.273 61.1163C104.845 66.7294 102.201 73.8205 102.201 81.5263C102.201 86.219 103.181 90.6881 104.952 94.7347H48.4658Z" fill="#D7C9FF"/>
</g>
<defs>
<clipPath id="clip0_11621_106151">
<rect width="161.363" height="108" fill="white" transform="translate(0.318359)"/>
</clipPath>
</defs>
</svg>
