<svg width="150" height="96" viewBox="0 0 150 96" fill="none" xmlns="http://www.w3.org/2000/svg">
<g clip-path="url(#clip0_11621_106126)">
<path fill-rule="evenodd" clip-rule="evenodd" d="M95.136 71.1616C96.6019 70.752 97.9946 70.316 99.2586 69.8244V63.4371C93.4389 63.1592 86.1943 62.7057 82.1507 57.8896C86.5835 56.2188 88.6287 50.9756 88.9096 43.137C89.1202 37.3114 87.9177 35.4857 89.9015 29.7333C93.8368 18.3455 108.39 14.454 116.495 21.1164C122.85 20.4405 129.258 23.7175 130.639 33.5194C131.669 40.8372 129.486 45.4309 131.792 52.1693C132.781 55.069 134.507 57.2897 137.208 58.5889C133.074 62.5447 124.389 63.0509 118.971 63.3377V69.8244C128.805 73.3151 143.072 72.7855 146.831 81.3029C147.926 83.7812 148.786 87.5703 149.421 91.4091C149.52 92.0323 149.904 94.0278 149.904 94.7944C149.904 95.4615 149.365 95.9999 148.698 95.9999H105.037C105.125 95.5288 105.172 95.0402 105.172 94.5428C105.172 94.0658 105.137 93.6006 105.081 93.1412H105.061L104.879 92.0645C103.337 80.3754 99.876 74.5294 95.136 71.1616ZM1.54989 95.9969C0.745261 95.9969 0.0957031 95.3474 0.0957031 94.5428C0.0957031 94.1302 0.151296 93.7206 0.253704 93.3168C2.58275 74.8571 10.7607 74.465 21.0074 71.8229C25.9346 70.5501 37.1732 65.6228 35.9823 59.2589C33.504 56.9591 31.0404 53.7845 30.6103 49.0444L30.3118 49.0474C29.6272 49.0386 28.9601 48.8835 28.3398 48.5324C26.9734 47.7541 26.2214 46.2619 25.8615 44.559C25.4021 42.4055 25.5543 39.8512 25.7766 38.239L25.8615 37.923C26.3384 36.5917 26.9265 35.869 27.6785 35.5559L27.7019 35.5471C27.3596 29.1393 28.4422 19.7061 21.8617 17.7164C34.8529 1.66183 49.8308 -7.07209 61.0751 7.21233C73.6069 7.86774 79.1955 25.6194 71.4154 35.5559H71.0848C71.8338 35.869 72.4249 36.5917 72.9047 37.923L72.9866 38.239C73.209 39.8512 73.3611 42.4055 72.9047 44.559C72.5419 46.2619 71.7928 47.7541 70.4235 48.5324C69.8061 48.8835 69.139 49.0386 68.4514 49.0474L68.153 49.0444C67.7229 53.7845 65.2563 56.9591 62.7751 59.2589C61.5843 65.6257 72.8345 70.553 77.7647 71.8229C88.0084 74.4621 96.1922 74.8571 98.5213 93.3168C98.6208 93.7206 98.6793 94.1302 98.6793 94.5428C98.6793 94.9284 98.5261 95.2983 98.2534 95.571C97.9806 95.8437 97.6108 95.9969 97.2251 95.9969H1.54989Z" fill="#D7C9FF"/>
</g>
<defs>
<clipPath id="clip0_11621_106126">
<rect width="149.808" height="96" fill="white" transform="translate(0.0957031)"/>
</clipPath>
</defs>
</svg>
