<svg width="124" height="108" viewBox="0 0 124 108" fill="none" xmlns="http://www.w3.org/2000/svg">
<path d="M28.887 55.8002C28.887 55.9101 28.887 56.0199 28.887 56.1198L33.3217 51.6651C33.9395 51.0433 34.6737 50.5494 35.4824 50.2114C36.2911 49.8734 37.1585 49.698 38.035 49.6952C38.9115 49.6924 39.7799 49.8623 40.5907 50.1952C41.4016 50.528 42.1389 51.0173 42.7606 51.6351C43.3824 52.2529 43.8763 52.9871 44.2143 53.7958C44.5523 54.6045 44.7277 55.4718 44.7305 56.3483C44.7332 57.2248 44.5634 58.0933 44.2305 58.9041C43.8977 59.7149 43.4084 60.4522 42.7906 61.074L27.5785 76.4059C26.3511 77.6368 24.6924 78.3409 22.9544 78.3689C21.2163 78.3969 19.5358 77.7465 18.2694 76.5558L2.74771 62.9118C1.57464 61.7078 0.899272 60.1054 0.85664 58.4249C0.814009 56.7445 1.40726 55.1098 2.51777 53.8479C3.62828 52.5859 5.17421 51.7897 6.84645 51.6183C8.51868 51.4469 10.194 51.9131 11.5374 52.9236L15.5327 56.4594C15.0257 45.5699 17.8101 34.7801 23.5233 25.4958C29.1914 16.2904 37.5632 9.05931 47.4951 4.79021C51.0366 3.27208 54.7159 2.09805 58.4821 1.28434C70.5426 -1.43293 83.1751 0.191579 94.1557 5.87188C105.136 11.5522 113.761 20.9241 118.511 32.3378C120.029 35.8761 121.19 39.5566 121.977 43.3249C123.895 52.2583 123.444 61.5379 120.669 70.2432C117.85 78.9088 112.849 86.7033 106.146 92.8765C99.745 98.9182 92.0326 103.397 83.6125 105.961C76.8469 107.988 69.7199 108.512 62.7305 107.496C55.7412 106.479 49.0585 103.948 43.1502 100.078C41.6654 99.1151 40.6239 97.6018 40.2549 95.871C39.8859 94.1402 40.2196 92.3337 41.1825 90.8489C42.1454 89.3641 43.6587 88.3227 45.3895 87.9537C47.1203 87.5847 48.9268 87.9183 50.4116 88.8812C52.1594 90.0433 54.008 91.0462 55.9351 91.8777C57.7749 92.6624 59.6799 93.2841 61.6284 93.7355C67.641 95.1478 73.9185 94.9618 79.837 93.1962C86.295 91.2029 92.2029 87.7396 97.0967 83.0781C102.148 78.4379 105.91 72.5667 108.014 66.0381C110.094 59.5548 110.438 52.6396 109.013 45.9817C108.395 43.0724 107.499 40.2292 106.336 37.4917C102.798 28.934 96.3404 21.9076 88.111 17.6613C79.8817 13.415 70.4134 12.2236 61.3887 14.299C58.4689 14.9198 55.6181 15.8299 52.8787 17.0158C45.4413 20.1708 39.1688 25.5602 34.9298 32.4377C30.6113 39.44 28.5053 47.5821 28.887 55.8002ZM61.2289 33.9459C61.2289 32.3273 61.8719 30.7751 63.0164 29.6306C64.1609 28.4861 65.7131 27.8431 67.3317 27.8431C68.9503 27.8431 70.5026 28.4861 71.6471 29.6306C72.7916 30.7751 73.4345 32.3273 73.4345 33.9459V52.9236L88.307 61.1838C89.719 61.9706 90.7605 63.286 91.2026 64.8408C91.6447 66.3955 91.451 68.0621 90.6643 69.4741C89.8775 70.886 88.562 71.9276 87.0073 72.3697C85.4526 72.8117 83.7859 72.6181 82.374 71.8313L64.8247 62.0728C63.7533 61.5901 62.8441 60.8083 62.2062 59.8214C61.5684 58.8345 61.229 57.6844 61.2289 56.5093V33.9459Z" fill="#D7C9FF"/>
</svg>
