<svg width="98" height="108" viewBox="0 0 98 108" fill="none" xmlns="http://www.w3.org/2000/svg">
<g clip-path="url(#clip0_11621_106141)">
<path d="M42.9355 102.261C44.5176 102.261 45.8096 103.544 45.8096 105.126C45.8096 106.708 44.5264 107.991 42.9355 107.991H7.01465C5.17773 107.991 3.50781 107.244 2.29492 106.031C1.08203 104.827 0.334961 103.166 0.334961 101.32V6.67969C0.334961 4.83398 1.08203 3.17285 2.29492 1.95996C3.50781 0.74707 5.16895 0 7.01465 0H89.0166C90.8535 0 92.5234 0.755859 93.7363 1.95996C94.9492 3.17285 95.6963 4.83398 95.6963 6.67969V54.0967C95.6963 55.6787 94.4131 56.9619 92.8311 56.9619C91.249 56.9619 89.9658 55.6787 89.9658 54.0967V6.67969C89.9658 6.42481 89.8604 6.1875 89.6846 6.02051C89.5088 5.84473 89.2715 5.73926 89.0254 5.73926H7.01465C6.75977 5.73926 6.52246 5.84473 6.34668 6.01172C6.17969 6.19629 6.07422 6.42481 6.07422 6.67969V101.32C6.07422 101.575 6.17969 101.813 6.35547 101.979C6.53125 102.155 6.76855 102.261 7.02344 102.261H42.9355ZM30.165 50.9063C29.6201 49.9658 30.0156 47.2764 31.1846 46.3272C34.5244 44.376 39.1299 44.9824 42.3467 42.7324C42.5312 42.4512 42.7334 42.0469 42.9355 41.5986C43.2256 40.9307 43.498 40.2012 43.665 39.7002C42.9531 38.8564 42.3379 37.9072 41.7578 36.9756L39.8242 33.8994C39.1211 32.8447 38.752 31.8779 38.7256 31.0869C38.7168 30.7178 38.7783 30.375 38.9189 30.0762C39.0596 29.7598 39.2793 29.5049 39.5869 29.3027C39.7275 29.2061 39.8857 29.127 40.0527 29.0654C39.9209 27.3955 39.877 25.2949 39.9648 23.5283C40.0088 23.1152 40.0879 22.6934 40.2021 22.2715C40.6943 20.5049 41.9336 19.0811 43.4717 18.1055C44.3154 17.5693 45.2471 17.1563 46.2139 16.8838C46.8291 16.708 45.6865 14.748 46.3281 14.6777C49.4043 14.3613 54.3701 17.165 56.5146 19.4854C57.5869 20.6455 58.2637 22.1924 58.4131 24.2314L58.29 29.25C58.8262 29.417 59.1689 29.751 59.3096 30.3047C59.4678 30.9199 59.3008 31.7725 58.7734 32.9502C58.7646 32.9678 58.7559 32.9941 58.7383 33.0117L56.5322 36.6416C55.7236 37.9775 54.8975 39.3135 53.8252 40.3682C53.9219 40.5088 54.0273 40.6494 54.124 40.79C54.5635 41.4316 55.0029 42.0732 55.5654 42.6445C55.583 42.6621 55.6006 42.6885 55.6094 42.7061C58.1494 44.499 64.3281 44.9385 66.7012 46.2568L66.7979 46.3096C68.0195 47.25 68.3975 49.9395 67.835 50.8799H30.165V50.9063ZM90.2383 69.4688C89.7725 69.0205 89.2363 68.8096 88.6211 68.8184C87.9971 68.8272 87.4697 69.0732 87.0391 69.5303L83.4795 73.2393L93.4727 82.8897L97.0674 79.1455C97.498 78.7061 97.6738 78.1436 97.665 77.5283C97.6562 76.9219 97.4365 76.3594 96.9971 75.9463L90.2383 69.4688ZM74.6377 102.103C73.3193 102.524 72.001 102.955 70.6914 103.386C69.373 103.825 68.0547 104.265 66.7451 104.704C63.6426 105.724 61.9023 106.286 61.5332 106.392C61.1816 106.497 61.3838 105.047 62.1748 102.006L64.6445 92.4873L80.3066 76.5088L90.291 86.1152L74.6377 102.103ZM28.2314 83.8125C26.6494 83.8125 25.3574 82.5117 25.3574 80.9033C25.3574 79.2949 26.6406 77.9941 28.2314 77.9941H47.752C49.334 77.9941 50.626 79.2949 50.626 80.9033C50.626 82.5117 49.3428 83.8125 47.752 83.8125H28.2314ZM28.2314 65.6279C26.6494 65.6279 25.3662 64.3447 25.3662 62.7539C25.3662 61.1719 26.6494 59.8887 28.2314 59.8887H66.9473C68.5293 59.8887 69.8125 61.1719 69.8125 62.7539C69.8125 64.3359 68.5293 65.6279 66.9473 65.6279H28.2314Z" fill="#D7C9FF"/>
</g>
<defs>
<clipPath id="clip0_11621_106141">
<rect width="97.3301" height="108" fill="white" transform="translate(0.334961)"/>
</clipPath>
</defs>
</svg>
