<svg width="98" height="108" viewBox="0 0 98 108" fill="none" xmlns="http://www.w3.org/2000/svg">
<g clip-path="url(#clip0_11620_106108)">
<path d="M72.2757 62.2429C77.7847 62.2429 82.7778 64.4832 86.3963 68.0859C90.013 71.7044 92.2393 76.6843 92.2393 82.2065C92.2393 86.2337 91.0396 89.9981 88.9882 93.1332L97.6297 102.551L91.6698 107.999L83.3342 98.8303C80.1701 100.94 76.3626 102.169 72.2757 102.169C66.7684 102.169 61.7735 99.9289 58.1568 96.3263C54.5383 92.7078 52.312 87.7279 52.312 82.2074C52.312 76.6984 54.5542 71.7053 58.1568 68.0868C61.7727 64.4683 66.7543 62.2429 72.2757 62.2429ZM17.7576 50.1684C16.4875 50.1684 15.4293 49.0188 15.4293 47.6283C15.4293 46.2071 16.4568 45.0883 17.7576 45.0883H37.6553C38.9253 45.0883 39.9835 46.2379 39.9835 47.6283C39.9835 49.0495 38.9552 50.1684 37.6553 50.1684H17.7576ZM74.9704 15.4531H83.3166C84.9505 15.4531 86.4631 16.1184 87.5204 17.2065C88.6085 18.2955 89.2747 19.7773 89.2747 21.4103V53.9574C89.0963 55.8215 84.5198 55.8453 84.1331 53.9574V21.4095C84.1331 21.1677 84.0417 20.9559 83.8914 20.8048C83.7402 20.6536 83.5293 20.5631 83.2867 20.5631H74.9406V53.9574C74.4958 55.6484 70.6884 55.9024 69.8305 53.9574V5.95727C69.8305 5.71557 69.7391 5.50376 69.5888 5.35258C69.4377 5.20141 69.225 5.11088 68.9833 5.11088H6.29653C6.05483 5.11088 5.84213 5.20141 5.69184 5.35258C5.53979 5.50376 5.44926 5.71469 5.44926 5.95727V76.7801C5.44926 77.0218 5.53979 77.2336 5.69096 77.3848C5.84213 77.536 6.05395 77.6265 6.29565 77.6265H43.6758C46.2502 77.8911 46.3275 82.3419 43.6758 82.7365H19.7527V92.2314C19.7527 92.4731 19.8441 92.6867 19.9944 92.837C20.1447 92.9873 20.3574 93.0787 20.5991 93.0787H43.6758C45.5409 93.2879 46.1412 97.5286 43.6758 98.1887H20.6299C18.9968 98.1887 17.4851 97.5225 16.4269 96.4344C15.3379 95.3463 14.6726 93.8644 14.6726 92.2305V82.7365H6.32642C4.69339 82.7365 3.18166 82.0703 2.12345 80.9822C1.03448 79.8932 0.369141 78.4123 0.369141 76.7792V5.95727C0.369141 4.32425 1.03448 2.81252 2.12345 1.75343C3.21155 0.665337 4.69339 0 6.32642 0H69.014C70.6462 0 72.1588 0.665337 73.2179 1.75343C74.306 2.84241 74.9704 4.32425 74.9704 5.95727V15.4531ZM17.7268 22.8913C16.4568 22.8913 15.3986 21.7417 15.3986 20.3504C15.3986 18.9292 16.4269 17.8103 17.7268 17.8103H57.5222C58.7923 17.8103 59.8496 18.9599 59.8496 20.3504C59.8496 21.7716 58.823 22.8913 57.5222 22.8913H17.7268ZM17.7268 36.5303C16.4568 36.5303 15.3986 35.3807 15.3986 33.9902C15.3986 32.569 16.4269 31.4502 17.7268 31.4502H57.5222C58.7923 31.4502 59.8496 32.5989 59.8496 33.9902C59.8496 35.4114 58.823 36.5303 57.5222 36.5303H17.7268ZM82.8912 71.5919C80.1754 68.8761 76.418 67.1903 72.2757 67.1903C68.1351 67.1903 64.3778 68.8761 61.6619 71.5919C58.9461 74.3077 57.2586 78.0651 57.2586 82.2074C57.2586 86.348 58.9461 90.1053 61.6619 92.8212C64.3778 95.537 68.1351 97.2245 72.2757 97.2245C76.418 97.2245 80.1754 95.537 82.8912 92.8212C85.607 90.1053 87.2928 86.348 87.2928 82.2074C87.2919 78.0651 85.6062 74.3077 82.8912 71.5919Z" fill="#D7C9FF"/>
</g>
<defs>
<clipPath id="clip0_11620_106108">
<rect width="97.2606" height="108" fill="white" transform="translate(0.369141)"/>
</clipPath>
</defs>
</svg>
