<svg width="108" height="108" viewBox="0 0 108 108" fill="none" xmlns="http://www.w3.org/2000/svg">
<path d="M54.0004 0C68.9068 0 82.4139 6.04868 92.1919 15.8081C101.951 25.586 108 39.0941 108 53.9996C108 68.9068 101.95 82.4131 92.1919 92.191C82.4148 101.952 68.9068 108 54.0004 108C39.0941 108 25.586 101.952 15.8081 92.1919C6.04868 82.4139 0 68.9068 0 53.9996C0 39.0941 6.04868 25.586 15.8081 15.8081C25.5869 6.04868 39.0941 0 54.0004 0ZM64.558 34.4112C66.975 31.9573 70.9046 31.9459 73.3348 34.3884C75.7641 36.8282 75.7738 40.7974 73.3585 43.2505L62.7544 54.0048L73.369 64.7715C75.7667 67.2061 75.7325 71.1489 73.2979 73.5791C70.8615 76.0102 66.9442 76.0032 64.5492 73.5686L54.0048 62.8783L43.4429 73.5905C41.0259 76.0453 37.0972 76.0559 34.667 73.6125C32.2385 71.1735 32.2271 67.2044 34.6441 64.7513L45.2465 53.996L34.6309 43.2294C32.235 40.7956 32.2675 36.852 34.703 34.4209C37.1394 31.9907 41.0567 31.9968 43.4517 34.4323L53.996 45.1234L64.558 34.4112ZM85.1658 22.8342C77.1915 14.8598 66.1734 9.92821 54.0004 9.92821C41.8266 9.92821 30.8086 14.8598 22.8342 22.8351C14.8598 30.8094 9.92821 41.8275 9.92821 54.0004C9.92821 66.1734 14.8598 77.1923 22.8342 85.1658C30.8086 93.1411 41.8266 98.0736 54.0004 98.0736C66.1734 98.0736 77.1915 93.142 85.1658 85.1658C93.1402 77.1923 98.0718 66.1734 98.0718 54.0004C98.0718 41.8275 93.1411 30.8094 85.1658 22.8342Z" fill="#D7C9FF"/>
<path d="M54.0004 0C68.9068 0 82.4139 6.04868 92.1919 15.8081C101.951 25.586 108 39.0941 108 53.9996C108 68.9068 101.95 82.4131 92.1919 92.191C82.4148 101.952 68.9068 108 54.0004 108C39.0941 108 25.586 101.952 15.8081 92.1919C6.04868 82.4139 0 68.9068 0 53.9996C0 39.0941 6.04868 25.586 15.8081 15.8081C25.5869 6.04868 39.0941 0 54.0004 0ZM64.558 34.4112C66.975 31.9573 70.9046 31.9459 73.3348 34.3884C75.7641 36.8282 75.7738 40.7974 73.3585 43.2505L62.7544 54.0048L73.369 64.7715C75.7667 67.2061 75.7325 71.1489 73.2979 73.5791C70.8615 76.0102 66.9442 76.0032 64.5492 73.5686L54.0048 62.8783L43.4429 73.5905C41.0259 76.0453 37.0972 76.0559 34.667 73.6125C32.2385 71.1735 32.2271 67.2044 34.6441 64.7513L45.2465 53.996L34.6309 43.2294C32.235 40.7956 32.2675 36.852 34.703 34.4209C37.1394 31.9907 41.0567 31.9968 43.4517 34.4323L53.996 45.1234L64.558 34.4112ZM85.1658 22.8342C77.1915 14.8598 66.1734 9.92821 54.0004 9.92821C41.8266 9.92821 30.8086 14.8598 22.8342 22.8351C14.8598 30.8094 9.92821 41.8275 9.92821 54.0004C9.92821 66.1734 14.8598 77.1923 22.8342 85.1658C30.8086 93.1411 41.8266 98.0736 54.0004 98.0736C66.1734 98.0736 77.1915 93.142 85.1658 85.1658C93.1402 77.1923 98.0718 66.1734 98.0718 54.0004C98.0718 41.8275 93.1411 30.8094 85.1658 22.8342Z" stroke="#D7C9FF"/>
</svg>
