<svg width="118" height="108" viewBox="0 0 118 108" fill="none" xmlns="http://www.w3.org/2000/svg">
<g clip-path="url(#clip0_11620_106116)">
<path fill-rule="evenodd" clip-rule="evenodd" d="M26.2108 49.6086C26.4879 51.0517 27.2429 51.9787 28.2655 52.447C29.0969 52.8292 30.0526 52.8675 31.056 52.6094C31.9257 52.3801 32.8431 51.9118 33.7223 51.2428C36.102 49.4366 38.3287 46.0249 38.6058 41.7626C38.6918 40.4533 38.6631 39.0485 38.5485 37.5672C38.472 36.5829 38.3382 35.5508 38.1662 34.4804H48.2581L48.3058 34.4709C49.9496 34.4135 51.536 34.0026 52.8835 33.3049C54.0494 32.6933 55.0242 31.8714 55.7027 30.8298C56.4003 29.769 56.7826 28.4979 56.7253 27.0549C56.6775 25.9845 56.4003 24.8186 55.8078 23.5667C56.1423 22.1714 56.3048 20.671 56.085 19.3522C55.9034 18.2341 55.4733 17.2402 54.6897 16.5043C54.7375 14.6599 54.489 13.1117 53.9825 11.7642C53.476 10.3785 52.7019 9.24123 51.7176 8.22823C51.6316 7.33945 51.4882 6.49847 51.2684 5.70526C50.9913 4.71137 50.5803 3.79393 50.0069 2.99117C48.2867 0.563771 46.9106 0.611555 44.7316 0.707121C44.4354 0.716678 44.1009 0.735791 43.5944 0.735791H23.8216C22.0441 0.735791 20.6488 0.993822 19.3682 1.63412C18.0972 2.26486 17.0268 3.23964 15.8705 4.6827L15.5742 5.50457V28.5744L16.5777 28.8515C19.1293 29.5396 21.1362 31.7185 22.6939 34.3275C24.2995 37.0129 25.4176 40.1571 26.1917 42.6896V49.3602L26.2108 49.6086Z" fill="#D7C9FF"/>
<path d="M66.2811 12.2229C76.545 12.2229 85.5092 12.3089 95.773 12.3089C96.9485 12.3089 98.0666 12.414 99.1561 12.6147C100.236 12.825 101.278 13.1212 102.243 13.5322C103.218 13.9431 104.164 14.4592 105.072 15.0708C105.97 15.6824 106.821 16.3896 107.633 17.1924C108.436 17.9951 109.152 18.8648 109.754 19.7536C110.376 20.6614 110.892 21.6076 111.293 22.5823C111.694 23.5571 112.01 24.5892 112.211 25.6691C112.421 26.7586 112.516 27.8767 112.516 29.0522V63.0262C112.516 64.2017 112.411 65.3198 112.211 66.4092C112 67.4987 111.694 68.5308 111.293 69.4961C110.882 70.4804 110.366 71.4265 109.754 72.3248C109.143 73.2232 108.436 74.0737 107.633 74.886L107.623 74.8956C106.792 75.7079 105.913 76.4247 105.014 77.0267C104.116 77.6383 103.17 78.1449 102.195 78.5558C101.22 78.9572 100.198 79.2725 99.1179 79.4732C98.0475 79.6835 96.9198 79.779 95.7635 79.779H82.9384C82.537 79.779 82.1452 79.8746 81.7725 80.0466C81.438 80.2187 81.1227 80.4576 80.8933 80.7729L80.8742 80.7921C79.8612 82.13 78.8004 83.4393 77.6822 84.6912C76.5641 85.9335 75.4078 87.1472 74.1558 88.294C72.9421 89.4217 71.6711 90.4921 70.3523 91.5338C69.0335 92.5754 67.6573 93.5502 66.262 94.4677C64.9241 95.3469 63.5097 96.1974 62.038 96.9906C60.5854 97.7743 59.0945 98.5101 57.575 99.1887C57.403 99.2651 57.2214 99.2556 57.0494 99.16C56.7722 98.9975 56.6671 98.6344 56.82 98.3572C57.0876 97.8794 57.3552 97.4016 57.6132 96.8951C57.8617 96.4268 58.0911 95.9489 58.3204 95.4424C58.7505 94.4772 59.1614 93.4929 59.5532 92.4799C59.9546 91.4573 60.3273 90.4347 60.7 89.3739C61.0441 88.3896 61.369 87.367 61.6748 86.3349C61.9806 85.3028 62.2769 84.2611 62.554 83.2195C62.6305 82.9136 62.7069 82.5983 62.7069 82.2829C62.7069 81.5853 62.4298 80.945 61.9711 80.4862L61.9424 80.4576C61.4741 79.9893 60.8147 79.693 60.1171 79.693H45.2087C44.0332 79.693 42.9246 79.5879 41.8543 79.3872C40.7935 79.177 39.7805 78.8807 38.8152 78.4793L38.7961 78.4698C37.8405 78.0971 36.9135 77.5906 36.0247 76.9885C35.1073 76.3673 34.2185 75.6314 33.3584 74.8L33.3488 74.7905C32.5461 73.9877 31.8293 73.1276 31.2177 72.2293C30.5965 71.3214 30.09 70.3848 29.6791 69.4005C29.2777 68.4257 28.9623 67.3936 28.7616 66.3137C28.5514 65.2242 28.4558 64.0965 28.4558 62.9306V61.8125C28.4558 58.3434 23.9642 58.3147 23.2188 60.7899V62.8828C23.2188 64.3641 23.3621 65.8072 23.6201 67.1929C23.8877 68.6073 24.2987 69.9739 24.8338 71.3118C25.3594 72.5924 26.0284 73.8348 26.8312 75.0198C27.6339 76.2048 28.5705 77.3325 29.6408 78.4029C30.7016 79.4732 31.8389 80.4098 33.0239 81.2125C34.1994 82.0058 35.4322 82.6747 36.7128 83.2003L36.7319 83.2099C38.0507 83.7451 39.4269 84.1464 40.8413 84.4236C42.227 84.6816 43.67 84.825 45.1513 84.825H55.8644C55.9313 84.825 56.0077 84.8345 56.0746 84.8536C56.3804 84.9588 56.5524 85.2837 56.4569 85.5895L56.4473 85.6086C56.2371 86.268 56.0364 86.9179 55.7975 87.6251L55.7879 87.6633C55.463 88.6094 55.0903 89.5746 54.708 90.5399C54.3448 91.4477 53.9626 92.3461 53.5708 93.2157C53.5612 93.2635 53.5516 93.3017 53.5325 93.3495C53.1503 94.2192 52.7107 95.0793 52.1946 95.9394C51.6881 96.7899 51.1147 97.6309 50.4935 98.4528C49.8532 99.2747 49.146 100.116 48.3528 100.957L48.3241 100.995C47.5309 101.836 46.6613 102.677 45.7343 103.48C45.1991 103.957 44.9124 104.617 44.8742 105.267C44.836 105.926 45.0558 106.595 45.5336 107.13C45.8681 107.503 46.279 107.761 46.7377 107.885C47.1869 108.019 47.6743 108.038 48.133 107.904C50.0826 107.379 51.9939 106.805 53.8479 106.175C55.7019 105.534 57.5081 104.846 59.2283 104.091C60.9676 103.346 62.6783 102.514 64.3316 101.626C65.9753 100.746 67.5617 99.7907 69.1004 98.7777C70.6294 97.7838 72.1107 96.723 73.5442 95.5953C74.9777 94.4677 76.3539 93.2922 77.6822 92.0594L77.7109 92.0307C78.829 90.9795 79.909 89.8709 80.9506 88.7337C82.0114 87.5677 83.034 86.3731 83.9897 85.1499C84.0948 84.9874 84.2764 84.8823 84.4866 84.8823H95.7539C97.2639 84.8823 98.7069 84.739 100.102 84.4809C101.507 84.2133 102.855 83.8024 104.154 83.2768L104.173 83.2672C105.473 82.7129 106.715 82.044 107.9 81.2412C109.085 80.448 110.204 79.5306 111.274 78.4602C112.344 77.3899 113.281 76.2526 114.084 75.0772C114.877 73.8921 115.555 72.6498 116.081 71.3692C116.616 70.0695 117.018 68.7029 117.295 67.2885C117.553 65.9028 117.696 64.4501 117.696 62.9402V28.9662C117.696 27.4562 117.553 26.0036 117.295 24.6179C117.027 23.2035 116.616 21.8465 116.081 20.5468C115.555 19.2662 114.877 18.0142 114.084 16.8388C113.281 15.6442 112.344 14.5165 111.284 13.4557C110.213 12.3854 109.085 11.4488 107.9 10.646C106.725 9.85284 105.492 9.18388 104.212 8.65826L104.192 8.6487C102.864 8.11353 101.488 7.71215 100.074 7.435C98.6878 7.17697 97.2448 7.03362 95.7635 7.03362C85.0982 7.03362 75.7327 6.98584 65.0674 6.98584C62.5445 7.73126 62.3724 12.2229 66.2811 12.2229ZM51.086 64.5744C49.729 64.5935 48.6204 63.504 48.6013 62.147C48.5822 60.7899 49.6716 59.6814 51.0287 59.6622L77.0706 59.2704L82.0592 58.955C83.4163 58.869 84.5822 59.9011 84.6682 61.2486C84.7542 62.6057 83.7221 63.7716 82.3746 63.8576L77.386 64.173C77.3764 64.1634 53.2841 64.5361 51.086 64.5744ZM58.8843 49.1403C57.5272 49.1403 56.4186 48.0318 56.4186 46.6747C56.4186 45.3177 57.5272 44.2091 58.8843 44.2091H94.0528C95.4099 44.2091 96.5185 45.3177 96.5185 46.6747C96.5185 48.0318 95.4099 49.1403 94.0528 49.1403H58.8843ZM69.8362 34.4231C68.4792 34.4231 67.3706 33.3145 67.3706 31.9574C67.3706 30.6004 68.4792 29.4918 69.8362 29.4918H94.0624C95.4194 29.4918 96.528 30.6004 96.528 31.9574C96.528 33.3145 95.4194 34.4231 94.0624 34.4231H69.8362Z" fill="#D7C9FF"/>
<path fill-rule="evenodd" clip-rule="evenodd" d="M2.30922 30.9827H11.2447C12.3628 30.9827 13.2707 30.0653 13.2707 28.9567V2.02602C13.2707 0.907884 12.3533 0 11.2447 0H2.30922C1.19109 0 0.283203 0.917441 0.283203 2.02602V28.9567C0.283203 30.0749 1.19109 30.9827 2.30922 30.9827Z" fill="#D7C9FF"/>
</g>
<defs>
<clipPath id="clip0_11620_106116">
<rect width="117.432" height="108" fill="white" transform="translate(0.283203)"/>
</clipPath>
</defs>
</svg>
