<svg width="20" height="20" viewBox="0 0 20 20" fill="none" xmlns="http://www.w3.org/2000/svg">
<path d="M17.8667 9.20833L10.2083 16.8667C9.27013 17.8049 7.99765 18.3319 6.67083 18.3319C5.34401 18.3319 4.07154 17.8049 3.13333 16.8667C2.19513 15.9285 1.66805 14.656 1.66805 13.3292C1.66805 12.0023 2.19513 10.7299 3.13333 9.79167L10.7917 2.13333C11.4171 1.50787 12.2655 1.15648 13.15 1.15648C14.0345 1.15648 14.8829 1.50787 15.5083 2.13333C16.1338 2.7588 16.4852 3.60712 16.4852 4.49167C16.4852 5.37621 16.1338 6.22453 15.5083 6.85L7.84167 14.5083C7.52893 14.8211 7.10477 14.9968 6.6625 14.9968C6.22023 14.9968 5.79607 14.8211 5.48333 14.5083C5.1706 14.1956 4.99491 13.7714 4.99491 13.3292C4.99491 12.8869 5.1706 12.4627 5.48333 12.15L12.5583 5.08333" stroke="black" stroke-width="1.68" stroke-linecap="round" stroke-linejoin="round"/>
</svg>
