<svg width="20" height="20" viewBox="0 0 20 20" fill="none" xmlns="http://www.w3.org/2000/svg">
<g clip-path="url(#clip0_47_1136)">
<path d="M12.5417 4.16667C13.3556 4.32547 14.1037 4.72355 14.6901 5.30995C15.2765 5.89635 15.6745 6.64439 15.8333 7.45834M12.5417 0.833336C14.2327 1.0212 15.8097 1.77848 17.0135 2.98084C18.2174 4.1832 18.9767 5.75918 19.1667 7.45M18.3333 14.1V16.6C18.3343 16.8321 18.2868 17.0618 18.1938 17.2745C18.1008 17.4871 17.9644 17.678 17.7934 17.8349C17.6224 17.9918 17.4205 18.1112 17.2006 18.1856C16.9808 18.2599 16.7478 18.2876 16.5167 18.2667C13.9524 17.988 11.4892 17.1118 9.32502 15.7083C7.31154 14.4289 5.60446 12.7218 4.32502 10.7083C2.91666 8.53434 2.04022 6.05916 1.76668 3.48334C1.74586 3.25289 1.77324 3.02064 1.8471 2.80136C1.92095 2.58208 2.03966 2.38058 2.19565 2.20969C2.35165 2.0388 2.54152 1.90226 2.75317 1.80877C2.96483 1.71528 3.19363 1.66689 3.42502 1.66667H5.92502C6.32944 1.66269 6.72151 1.8059 7.02815 2.06961C7.33479 2.33332 7.53508 2.69954 7.59168 3.1C7.6972 3.90006 7.89289 4.68561 8.17502 5.44167C8.28714 5.73994 8.3114 6.0641 8.24494 6.37574C8.17847 6.68737 8.02407 6.97343 7.80002 7.2L6.74168 8.25834C7.92798 10.3446 9.65539 12.072 11.7417 13.2583L12.8 12.2C13.0266 11.9759 13.3126 11.8215 13.6243 11.7551C13.9359 11.6886 14.2601 11.7129 14.5583 11.825C15.3144 12.1071 16.1 12.3028 16.9 12.4083C17.3048 12.4654 17.6745 12.6693 17.9388 12.9812C18.2031 13.2932 18.3435 13.6913 18.3333 14.1Z" stroke="black" stroke-width="1.68" stroke-linecap="round" stroke-linejoin="round"/>
</g>
<defs>
<clipPath id="clip0_47_1136">
<rect width="20" height="20" fill="white"/>
</clipPath>
</defs>
</svg>
