<svg width="20" height="20" viewBox="0 0 20 20" fill="none" xmlns="http://www.w3.org/2000/svg">
<g clip-path="url(#clip0_47_1297)">
<path d="M4.325 10.675C2.92155 8.51083 2.0453 6.04763 1.76667 3.48333C1.74584 3.25288 1.77323 3.02063 1.84708 2.80135C1.92094 2.58207 2.03964 2.38057 2.19564 2.20968C2.35163 2.03879 2.5415 1.90225 2.75316 1.80876C2.96481 1.71527 3.19362 1.66688 3.425 1.66666H5.925C6.32942 1.66268 6.72149 1.80589 7.02814 2.0696C7.33478 2.33332 7.53506 2.69953 7.59167 3.09999C7.69719 3.90005 7.89288 4.6856 8.175 5.44166C8.28712 5.73993 8.31139 6.06409 8.24492 6.37573C8.17846 6.68737 8.02405 6.97342 7.8 7.19999L6.74167 8.25833M8.9 11.0917C9.74571 11.9381 10.7015 12.6669 11.7417 13.2583L12.8 12.2C13.0266 11.9759 13.3126 11.8215 13.6243 11.7551C13.9359 11.6886 14.2601 11.7129 14.5583 11.825C15.3144 12.1071 16.0999 12.3028 16.9 12.4083C17.3005 12.4649 17.6667 12.6652 17.9304 12.9719C18.1941 13.2785 18.3373 13.6706 18.3333 14.075V16.575C18.3343 16.8071 18.2867 17.0368 18.1938 17.2494C18.1008 17.4621 17.9644 17.653 17.7934 17.8099C17.6224 17.9668 17.4205 18.0862 17.2006 18.1606C16.9808 18.2349 16.7478 18.2626 16.5167 18.2417C13.9524 17.963 11.4892 17.0868 9.325 15.6833C8.32106 15.0459 7.39044 14.2997 6.55 13.4583L8.9 11.0917Z" stroke="black" stroke-width="1.68" stroke-linecap="round" stroke-linejoin="round"/>
<path d="M19.1667 0.833328L0.833328 19.1667" stroke="black" stroke-width="1.68" stroke-linecap="round" stroke-linejoin="round"/>
</g>
<defs>
<clipPath id="clip0_47_1297">
<rect width="20" height="20" fill="white"/>
</clipPath>
</defs>
</svg>
