<svg width="20" height="20" viewBox="0 0 20 20" fill="none" xmlns="http://www.w3.org/2000/svg">
<path d="M5 7.5V1.66666H15V7.5" stroke="black" stroke-width="1.68" stroke-linecap="round" stroke-linejoin="round"/>
<path d="M5 15H3.33333C2.8913 15 2.46738 14.8244 2.15482 14.5118C1.84226 14.1993 1.66666 13.7754 1.66666 13.3333V9.16667C1.66666 8.72464 1.84226 8.30072 2.15482 7.98816C2.46738 7.6756 2.8913 7.5 3.33333 7.5H16.6667C17.1087 7.5 17.5326 7.6756 17.8452 7.98816C18.1577 8.30072 18.3333 8.72464 18.3333 9.16667V13.3333C18.3333 13.7754 18.1577 14.1993 17.8452 14.5118C17.5326 14.8244 17.1087 15 16.6667 15H15" stroke="black" stroke-width="1.68" stroke-linecap="round" stroke-linejoin="round"/>
<path d="M15 11.6667H5V18.3333H15V11.6667Z" stroke="black" stroke-width="1.68" stroke-linecap="round" stroke-linejoin="round"/>
</svg>
