<svg width="20" height="20" viewBox="0 0 20 20" fill="none" xmlns="http://www.w3.org/2000/svg">
<g clip-path="url(#clip0_47_1027)">
<path d="M0.833336 3.33333V8.33333H5.83334" stroke="black" stroke-width="1.68" stroke-linecap="round" stroke-linejoin="round"/>
<path d="M19.1667 16.6667V11.6667H14.1667" stroke="black" stroke-width="1.68" stroke-linecap="round" stroke-linejoin="round"/>
<path d="M17.075 7.5C16.6524 6.30565 15.9341 5.23784 14.9871 4.39618C14.0402 3.55453 12.8954 2.96647 11.6598 2.68688C10.4241 2.40729 9.13771 2.44528 7.92068 2.79731C6.70365 3.14934 5.59562 3.80393 4.7 4.7L0.833336 8.33333M19.1667 11.6667L15.3 15.3C14.4044 16.1961 13.2964 16.8507 12.0793 17.2027C10.8623 17.5547 9.57592 17.5927 8.34024 17.3131C7.10456 17.0335 5.95984 16.4455 5.01289 15.6038C4.06595 14.7622 3.34764 13.6943 2.925 12.5" stroke="black" stroke-width="1.68" stroke-linecap="round" stroke-linejoin="round"/>
</g>
<defs>
<clipPath id="clip0_47_1027">
<rect width="20" height="20" fill="white"/>
</clipPath>
</defs>
</svg>
