<svg width="20" height="20" viewBox="0 0 20 20" fill="none" xmlns="http://www.w3.org/2000/svg">
<g clip-path="url(#clip0_47_645)">
<path d="M19.1667 3.33333V8.33333H14.1667" stroke="black" stroke-width="1.68" stroke-linecap="round" stroke-linejoin="round"/>
<path d="M17.075 12.5C16.5333 14.0333 15.508 15.3489 14.1535 16.2488C12.799 17.1486 11.1887 17.5838 9.56535 17.4888C7.94198 17.3939 6.39346 16.7738 5.15313 15.7222C3.91279 14.6706 3.04785 13.2444 2.68864 11.6584C2.32942 10.0724 2.4954 8.41266 3.16155 6.92923C3.8277 5.44579 4.95795 4.21905 6.38196 3.43387C7.80597 2.64868 9.44661 2.34759 11.0566 2.57595C12.6667 2.80432 14.1588 3.54978 15.3083 4.7L19.1667 8.33334" stroke="black" stroke-width="1.68" stroke-linecap="round" stroke-linejoin="round"/>
</g>
<defs>
<clipPath id="clip0_47_645">
<rect width="20" height="20" fill="white"/>
</clipPath>
</defs>
</svg>
