<svg width="20" height="20" viewBox="0 0 20 20" fill="none" xmlns="http://www.w3.org/2000/svg">
<g clip-path="url(#clip0_47_977)">
<path d="M0.833344 3.33333V8.33333H5.83334" stroke="black" stroke-width="1.68" stroke-linecap="round" stroke-linejoin="round"/>
<path d="M2.92501 12.5C3.46534 14.0336 4.48946 15.3502 5.84306 16.2511C7.19666 17.1521 8.80641 17.5888 10.4298 17.4954C12.0531 17.402 13.6022 16.7835 14.8434 15.7331C16.0847 14.6828 16.9511 13.2575 17.3119 11.672C17.6727 10.0865 17.5084 8.42663 16.8439 6.94258C16.1793 5.45853 15.0504 4.23066 13.6274 3.44397C12.2043 2.65728 10.5641 2.35438 8.95391 2.58093C7.34372 2.80747 5.85077 3.55118 4.70001 4.7L0.833344 8.33333" stroke="black" stroke-width="1.68" stroke-linecap="round" stroke-linejoin="round"/>
</g>
<defs>
<clipPath id="clip0_47_977">
<rect width="20" height="20" fill="white"/>
</clipPath>
</defs>
</svg>
