<svg width="20" height="20" viewBox="0 0 20 20" fill="none" xmlns="http://www.w3.org/2000/svg">
<path d="M16.6667 1.66666H3.33333C2.41286 1.66666 1.66667 2.41286 1.66667 3.33333V6.66666C1.66667 7.58714 2.41286 8.33333 3.33333 8.33333H16.6667C17.5871 8.33333 18.3333 7.58714 18.3333 6.66666V3.33333C18.3333 2.41286 17.5871 1.66666 16.6667 1.66666Z" stroke="black" stroke-width="1.68" stroke-linecap="round" stroke-linejoin="round"/>
<path d="M16.6667 11.6667H3.33333C2.41286 11.6667 1.66667 12.4129 1.66667 13.3333V16.6667C1.66667 17.5871 2.41286 18.3333 3.33333 18.3333H16.6667C17.5871 18.3333 18.3333 17.5871 18.3333 16.6667V13.3333C18.3333 12.4129 17.5871 11.6667 16.6667 11.6667Z" stroke="black" stroke-width="1.68" stroke-linecap="round" stroke-linejoin="round"/>
<path d="M5 5H5.00833" stroke="black" stroke-width="1.68" stroke-linecap="round" stroke-linejoin="round"/>
<path d="M5 15H5.00833" stroke="black" stroke-width="1.68" stroke-linecap="round" stroke-linejoin="round"/>
</svg>
