<svg width="20" height="20" viewBox="0 0 20 20" fill="none" xmlns="http://www.w3.org/2000/svg">
<g clip-path="url(#clip0_47_815)">
<path d="M10 12.5C11.3807 12.5 12.5 11.3807 12.5 10C12.5 8.61929 11.3807 7.5 10 7.5C8.61929 7.5 7.5 8.61929 7.5 10C7.5 11.3807 8.61929 12.5 10 12.5Z" stroke="black" stroke-width="1.68" stroke-linecap="round" stroke-linejoin="round"/>
<path d="M16.1667 12.5C16.0557 12.7513 16.0227 13.0302 16.0717 13.3005C16.1207 13.5708 16.2496 13.8203 16.4417 14.0167L16.4917 14.0667C16.6466 14.2214 16.7696 14.4053 16.8534 14.6076C16.9373 14.8099 16.9805 15.0268 16.9805 15.2458C16.9805 15.4649 16.9373 15.6817 16.8534 15.8841C16.7696 16.0864 16.6466 16.2702 16.4917 16.425C16.3369 16.58 16.1531 16.7029 15.9507 16.7868C15.7484 16.8706 15.5315 16.9138 15.3125 16.9138C15.0935 16.9138 14.8766 16.8706 14.6743 16.7868C14.4719 16.7029 14.2881 16.58 14.1333 16.425L14.0833 16.375C13.8869 16.1829 13.6375 16.054 13.3672 16.005C13.0968 15.956 12.818 15.9891 12.5667 16.1C12.3202 16.2056 12.11 16.381 11.9619 16.6046C11.8139 16.8282 11.7344 17.0902 11.7333 17.3583V17.5C11.7333 17.942 11.5577 18.3659 11.2452 18.6785C10.9326 18.9911 10.5087 19.1667 10.0667 19.1667C9.62465 19.1667 9.20073 18.9911 8.88817 18.6785C8.5756 18.3659 8.40001 17.942 8.40001 17.5V17.425C8.39356 17.1492 8.30427 16.8817 8.14377 16.6572C7.98326 16.4328 7.75896 16.2619 7.50001 16.1667C7.24866 16.0557 6.96985 16.0226 6.69952 16.0717C6.42919 16.1207 6.17974 16.2495 5.98334 16.4417L5.93334 16.4917C5.77855 16.6466 5.59474 16.7696 5.39241 16.8534C5.19008 16.9373 4.9732 16.9805 4.75418 16.9805C4.53515 16.9805 4.31827 16.9373 4.11594 16.8534C3.91361 16.7696 3.7298 16.6466 3.57501 16.4917C3.42005 16.3369 3.29712 16.1531 3.21324 15.9507C3.12937 15.7484 3.0862 15.5315 3.0862 15.3125C3.0862 15.0935 3.12937 14.8766 3.21324 14.6743C3.29712 14.4719 3.42005 14.2881 3.57501 14.1333L3.62501 14.0833C3.81712 13.8869 3.946 13.6375 3.99501 13.3672C4.04403 13.0968 4.01094 12.818 3.90001 12.5667C3.79437 12.3202 3.61897 12.11 3.3954 11.9619C3.17182 11.8139 2.90983 11.7344 2.64168 11.7333H2.50001C2.05798 11.7333 1.63406 11.5577 1.3215 11.2452C1.00894 10.9326 0.833344 10.5087 0.833344 10.0667C0.833344 9.62463 1.00894 9.20071 1.3215 8.88815C1.63406 8.57559 2.05798 8.39999 2.50001 8.39999H2.57501C2.85084 8.39354 3.11835 8.30426 3.34276 8.14375C3.56717 7.98325 3.73811 7.75894 3.83334 7.49999C3.94427 7.24865 3.97736 6.96983 3.92835 6.6995C3.87933 6.42917 3.75046 6.17973 3.55834 5.98333L3.50834 5.93333C3.35338 5.77854 3.23045 5.59473 3.14658 5.39239C3.0627 5.19006 3.01953 4.97319 3.01953 4.75416C3.01953 4.53514 3.0627 4.31826 3.14658 4.11593C3.23045 3.9136 3.35338 3.72978 3.50834 3.57499C3.66313 3.42003 3.84695 3.2971 4.04928 3.21323C4.25161 3.12935 4.46848 3.08618 4.68751 3.08618C4.90654 3.08618 5.12341 3.12935 5.32574 3.21323C5.52807 3.2971 5.71189 3.42003 5.86668 3.57499L5.91668 3.62499C6.11308 3.81711 6.36252 3.94598 6.63285 3.995C6.90318 4.04401 7.182 4.01092 7.43334 3.89999H7.50001C7.74648 3.79436 7.95669 3.61896 8.10475 3.39538C8.25282 3.17181 8.33227 2.90982 8.33334 2.64166V2.49999C8.33334 2.05797 8.50894 1.63404 8.8215 1.32148C9.13406 1.00892 9.55798 0.833328 10 0.833328C10.442 0.833328 10.866 1.00892 11.1785 1.32148C11.4911 1.63404 11.6667 2.05797 11.6667 2.49999V2.57499C11.6677 2.84315 11.7472 3.10514 11.8953 3.32872C12.0433 3.55229 12.2535 3.72769 12.5 3.83333C12.7514 3.94426 13.0302 3.97735 13.3005 3.92833C13.5708 3.87932 13.8203 3.75044 14.0167 3.55833L14.0667 3.50833C14.2215 3.35337 14.4053 3.23044 14.6076 3.14656C14.8099 3.06269 15.0268 3.01952 15.2458 3.01952C15.4649 3.01952 15.6817 3.06269 15.8841 3.14656C16.0864 3.23044 16.2702 3.35337 16.425 3.50833C16.58 3.66312 16.7029 3.84693 16.7868 4.04926C16.8706 4.25159 16.9138 4.46847 16.9138 4.68749C16.9138 4.90652 16.8706 5.1234 16.7868 5.32573C16.7029 5.52806 16.58 5.71187 16.425 5.86666L16.375 5.91666C16.1829 6.11306 16.054 6.36251 16.005 6.63284C15.956 6.90317 15.9891 7.18198 16.1 7.43333V7.49999C16.2056 7.74647 16.381 7.95668 16.6046 8.10474C16.8282 8.2528 17.0902 8.33226 17.3583 8.33333H17.5C17.942 8.33333 18.366 8.50892 18.6785 8.82148C18.9911 9.13404 19.1667 9.55797 19.1667 9.99999C19.1667 10.442 18.9911 10.8659 18.6785 11.1785C18.366 11.4911 17.942 11.6667 17.5 11.6667H17.425C17.1569 11.6677 16.8949 11.7472 16.6713 11.8952C16.4477 12.0433 16.2723 12.2535 16.1667 12.5V12.5Z" stroke="black" stroke-width="1.68" stroke-linecap="round" stroke-linejoin="round"/>
</g>
<defs>
<clipPath id="clip0_47_815">
<rect width="20" height="20" fill="white"/>
</clipPath>
</defs>
</svg>
