<svg width="20" height="20" viewBox="0 0 20 20" fill="none" xmlns="http://www.w3.org/2000/svg">
<path d="M12.0833 8.33334C11.3917 8.33334 10.8333 7.775 10.8333 7.08334V2.91667C10.8333 2.22501 11.3917 1.66667 12.0833 1.66667C12.775 1.66667 13.3333 2.22501 13.3333 2.91667V7.08334C13.3333 7.775 12.775 8.33334 12.0833 8.33334Z" stroke="black" stroke-width="1.68" stroke-linecap="round" stroke-linejoin="round"/>
<path d="M17.0833 8.33333H15.8333V7.08333C15.8333 6.39166 16.3917 5.83333 17.0833 5.83333C17.775 5.83333 18.3333 6.39166 18.3333 7.08333C18.3333 7.77499 17.775 8.33333 17.0833 8.33333Z" stroke="black" stroke-width="1.68" stroke-linecap="round" stroke-linejoin="round"/>
<path d="M7.91667 11.6667C8.60834 11.6667 9.16667 12.225 9.16667 12.9167V17.0833C9.16667 17.775 8.60834 18.3333 7.91667 18.3333C7.22501 18.3333 6.66667 17.775 6.66667 17.0833V12.9167C6.66667 12.225 7.22501 11.6667 7.91667 11.6667Z" stroke="black" stroke-width="1.68" stroke-linecap="round" stroke-linejoin="round"/>
<path d="M2.91667 11.6667H4.16667V12.9167C4.16667 13.6083 3.60834 14.1667 2.91667 14.1667C2.22501 14.1667 1.66667 13.6083 1.66667 12.9167C1.66667 12.225 2.22501 11.6667 2.91667 11.6667Z" stroke="black" stroke-width="1.68" stroke-linecap="round" stroke-linejoin="round"/>
<path d="M11.6667 12.0833C11.6667 11.3917 12.225 10.8333 12.9167 10.8333H17.0833C17.775 10.8333 18.3333 11.3917 18.3333 12.0833C18.3333 12.775 17.775 13.3333 17.0833 13.3333H12.9167C12.225 13.3333 11.6667 12.775 11.6667 12.0833Z" stroke="black" stroke-width="1.68" stroke-linecap="round" stroke-linejoin="round"/>
<path d="M12.9167 15.8333H11.6667V17.0833C11.6667 17.775 12.225 18.3333 12.9167 18.3333C13.6083 18.3333 14.1667 17.775 14.1667 17.0833C14.1667 16.3917 13.6083 15.8333 12.9167 15.8333Z" stroke="black" stroke-width="1.68" stroke-linecap="round" stroke-linejoin="round"/>
<path d="M8.33334 7.91667C8.33334 7.22501 7.775 6.66667 7.08334 6.66667H2.91667C2.22501 6.66667 1.66667 7.22501 1.66667 7.91667C1.66667 8.60834 2.22501 9.16667 2.91667 9.16667H7.08334C7.775 9.16667 8.33334 8.60834 8.33334 7.91667Z" stroke="black" stroke-width="1.68" stroke-linecap="round" stroke-linejoin="round"/>
<path d="M7.08333 4.16667H8.33333V2.91667C8.33333 2.22501 7.77499 1.66667 7.08333 1.66667C6.39166 1.66667 5.83333 2.22501 5.83333 2.91667C5.83333 3.60834 6.39166 4.16667 7.08333 4.16667Z" stroke="black" stroke-width="1.68" stroke-linecap="round" stroke-linejoin="round"/>
</svg>
