<svg width="32" height="33" viewBox="0 0 32 33" fill="none" xmlns="http://www.w3.org/2000/svg">
<g clip-path="url(#clip0_8435_56109)">
<path d="M23.3327 -0.21875C22.8288 -0.722656 22.1592 -1 21.4473 -1H10.5514C9.83919 -1 9.16992 -0.722656 8.66602 -0.21875L0.781901 7.66537C0.277344 8.16862 0 8.83789 0 9.55208C0.00325521 11.5534 0.0139974 18.4453 0.00520833 20.4466C0.00260417 21.1615 0.279948 21.8333 0.786784 22.3392L8.66602 30.2188C9.16992 30.7227 9.83919 31 10.5514 31H21.4473C22.1592 31 22.8288 30.7227 23.3327 30.2188L31.2181 22.3333C31.722 21.8301 31.9994 21.1602 31.9994 20.4473V9.55273C31.9994 8.84082 31.722 8.17057 31.2181 7.66667L23.3327 -0.21875ZM29.3327 20.4479L21.4473 28.3333H10.5514L2.67188 20.4541C2.68066 18.4473 2.66992 11.5514 2.66667 9.55143L10.5514 1.66667H21.4473L29.3327 9.55273V20.4479Z" fill="#E10505"/>
<path d="M15.9992 4.33333C15.2792 4.33333 14.5939 4.64257 14.117 5.18261C13.6405 5.722 13.4191 6.4414 13.5057 7.13476L14.674 17.8118C14.7479 18.488 15.3185 19 15.9992 19C16.6799 19 17.2505 18.488 17.3244 17.8112L18.4898 7.15527C18.5793 6.4414 18.3579 5.722 17.881 5.18261C17.4045 4.64257 16.7193 4.33333 15.9992 4.33333Z" fill="#E10505"/>
<path d="M15.9995 21.6667C14.897 21.6667 13.9995 22.5641 13.9995 23.6667C13.9995 24.7692 14.897 25.6667 15.9995 25.6667C17.1021 25.6667 17.9995 24.7692 17.9995 23.6667C17.9995 22.5641 17.1021 21.6667 15.9995 21.6667Z" fill="#E10505"/>
</g>
<defs>
<clipPath id="clip0_8435_56109">
<rect width="32" height="32" fill="white" transform="translate(0 0.258789)"/>
</clipPath>
</defs>
</svg>
