<svg width="20" height="20" viewBox="0 0 20 20" fill="none" xmlns="http://www.w3.org/2000/svg">
<path d="M15 1.66666H5.00001C4.07954 1.66666 3.33334 2.41286 3.33334 3.33333V16.6667C3.33334 17.5871 4.07954 18.3333 5.00001 18.3333H15C15.9205 18.3333 16.6667 17.5871 16.6667 16.6667V3.33333C16.6667 2.41286 15.9205 1.66666 15 1.66666Z" stroke="black" stroke-width="1.68" stroke-linecap="round" stroke-linejoin="round"/>
<path d="M9.99999 15C11.8409 15 13.3333 13.5076 13.3333 11.6667C13.3333 9.82572 11.8409 8.33334 9.99999 8.33334C8.15904 8.33334 6.66666 9.82572 6.66666 11.6667C6.66666 13.5076 8.15904 15 9.99999 15Z" stroke="black" stroke-width="1.68" stroke-linecap="round" stroke-linejoin="round"/>
<path d="M10 5H10.0083" stroke="black" stroke-width="1.68" stroke-linecap="round" stroke-linejoin="round"/>
</svg>
