<svg width="20" height="20" viewBox="0 0 20 20" fill="none" xmlns="http://www.w3.org/2000/svg">
<path d="M10.3186 0H10C4.48602 0 0 4.48602 0 10C0 15.514 4.48602 20 10 20C15.514 20 20 15.514 20 10V9.68137L10.3186 0ZM17.4208 9.27785C15.2212 9.20902 13.559 8.62504 12.467 7.53305C11.375 6.44105 10.7911 4.77875 10.7222 2.57934L17.4208 9.27785ZM10 18.4615C5.3343 18.4615 1.53848 14.6657 1.53848 10C1.53848 5.60887 4.90094 1.98887 9.18613 1.57797C9.08742 4.69785 9.82312 7.06484 11.3791 8.6209C12.8432 10.085 15.0242 10.8234 17.8759 10.8233C18.055 10.8233 18.2376 10.8196 18.4221 10.8137C18.0112 15.099 14.3912 18.4615 10 18.4615Z" fill="#757575"/>
</svg>
