<svg width="20" height="20" viewBox="0 0 20 20" fill="none" xmlns="http://www.w3.org/2000/svg">
<g clip-path="url(#clip0_47_923)">
<path d="M11.6667 12.3V2.91667C11.6667 2.36413 11.4472 1.83423 11.0565 1.44353C10.6658 1.05283 10.1359 0.833332 9.58333 0.833332C9.03079 0.833332 8.50089 1.05283 8.11019 1.44353C7.71949 1.83423 7.5 2.36413 7.5 2.91667V12.3C6.83106 12.747 6.3236 13.3972 6.05256 14.1547C5.78151 14.9121 5.76126 15.7367 5.99479 16.5066C6.22832 17.2765 6.70325 17.9508 7.34944 18.4301C7.99563 18.9093 8.77882 19.168 9.58333 19.168C10.3878 19.168 11.171 18.9093 11.8172 18.4301C12.4634 17.9508 12.9383 17.2765 13.1719 16.5066C13.4054 15.7367 13.3851 14.9121 13.1141 14.1547C12.8431 13.3972 12.3356 12.747 11.6667 12.3Z" stroke="black" stroke-width="1.68" stroke-linecap="round" stroke-linejoin="round"/>
</g>
<defs>
<clipPath id="clip0_47_923">
<rect width="20" height="20" fill="white"/>
</clipPath>
</defs>
</svg>
