<svg width="18" height="24" viewBox="0 0 18 24" fill="none" xmlns="http://www.w3.org/2000/svg">
<g clip-path="url(#clip0_10292_69582)">
<path d="M13.3289 1.75H11.9791L12.0826 3.09584L12.6168 10.0427L12.6689 10.7212L13.2671 11.0456C14.7166 11.8319 15.8587 13.1456 16.4021 14.7802L16.4024 14.7811L16.4492 14.9217L16.4504 14.9253C16.4747 14.9975 16.4634 15.0785 16.4158 15.1444L17.201 15.7119L16.4158 15.1444C16.3682 15.2102 16.2896 15.25 16.2107 15.25H1.2162C1.13631 15.25 1.06157 15.214 1.00947 15.1422C0.961422 15.0761 0.95163 14.9982 0.975163 14.929L0.975185 14.929L0.977623 14.9217L1.02448 14.7811L1.02477 14.7802C1.56812 13.1456 2.71025 11.8319 4.15977 11.0456L4.75792 10.7212L4.81009 10.0427L5.34427 3.09584L5.44775 1.75H4.09795H2.71564C2.57705 1.75 2.4662 1.63977 2.4662 1.5C2.4662 1.36023 2.57705 1.25 2.71564 1.25H14.7112C14.8498 1.25 14.9607 1.36023 14.9607 1.5C14.9607 1.63977 14.8498 1.75 14.7112 1.75H13.3289ZM8.46398 19.25H8.96287V22.5C8.96287 22.6398 8.85202 22.75 8.71343 22.75C8.57484 22.75 8.46398 22.6398 8.46398 22.5V19.25Z" stroke="#62528F" stroke-width="2.5"/>
</g>
<defs>
<clipPath id="clip0_10292_69582">
<rect width="18" height="24" fill="white"/>
</clipPath>
</defs>
</svg>
