<svg width="20" height="20" viewBox="0 0 20 20" fill="none" xmlns="http://www.w3.org/2000/svg">
<path d="M5.83334 18.3333H3.33334C2.89131 18.3333 2.46739 18.1577 2.15483 17.8452C1.84227 17.5326 1.66667 17.1087 1.66667 16.6667V10.8333C1.66667 10.3913 1.84227 9.96738 2.15483 9.65482C2.46739 9.34226 2.89131 9.16667 3.33334 9.16667H5.83334M11.6667 7.5V4.16667C11.6667 3.50362 11.4033 2.86774 10.9344 2.3989C10.4656 1.93006 9.82971 1.66667 9.16667 1.66667L5.83334 9.16667V18.3333H15.2333C15.6353 18.3379 16.0253 18.197 16.3316 17.9367C16.6379 17.6763 16.8397 17.3141 16.9 16.9167L18.05 9.41667C18.0863 9.1778 18.0702 8.9339 18.0028 8.70188C17.9354 8.46985 17.8184 8.25524 17.6599 8.07293C17.5014 7.89061 17.3051 7.74494 17.0846 7.64601C16.8642 7.54709 16.6249 7.49726 16.3833 7.5H11.6667Z" stroke="black" stroke-width="1.68" stroke-linecap="round" stroke-linejoin="round"/>
</svg>
