<svg width="20" height="20" viewBox="0 0 20 20" fill="none" xmlns="http://www.w3.org/2000/svg">
<path d="M12.25 5.25C12.0973 5.40577 12.0118 5.61521 12.0118 5.83333C12.0118 6.05146 12.0973 6.26089 12.25 6.41667L13.5833 7.75C13.7391 7.90269 13.9485 7.98822 14.1667 7.98822C14.3848 7.98822 14.5942 7.90269 14.75 7.75L17.8917 4.60833C18.3107 5.53432 18.4376 6.56603 18.2554 7.56596C18.0732 8.56588 17.5906 9.48654 16.8719 10.2052C16.1532 10.9239 15.2325 11.4065 14.2326 11.5887C13.2327 11.7709 12.201 11.644 11.275 11.225L5.51667 16.9833C5.18515 17.3149 4.73551 17.5011 4.26667 17.5011C3.79783 17.5011 3.34819 17.3149 3.01667 16.9833C2.68515 16.6518 2.4989 16.2022 2.4989 15.7333C2.4989 15.2645 2.68515 14.8149 3.01667 14.4833L8.775 8.725C8.35597 7.79901 8.2291 6.76731 8.41129 5.76738C8.59348 4.76745 9.07607 3.8468 9.79477 3.1281C10.5135 2.40941 11.4341 1.92681 12.434 1.74462C13.434 1.56243 14.4657 1.6893 15.3917 2.10833L12.2583 5.24167L12.25 5.25Z" stroke="black" stroke-width="1.68" stroke-linecap="round" stroke-linejoin="round"/>
</svg>
