<svg width="20" height="20" viewBox="0 0 20 20" fill="none" xmlns="http://www.w3.org/2000/svg">
<path d="M2.5 5H4.16667H17.5" stroke="black" stroke-width="1.68" stroke-linecap="round" stroke-linejoin="round"/>
<path d="M6.66667 5V3.33333C6.66667 2.8913 6.84227 2.46738 7.15483 2.15482C7.46739 1.84226 7.89131 1.66666 8.33334 1.66666H11.6667C12.1087 1.66666 12.5326 1.84226 12.8452 2.15482C13.1577 2.46738 13.3333 2.8913 13.3333 3.33333V5M15.8333 5V16.6667C15.8333 17.1087 15.6577 17.5326 15.3452 17.8452C15.0326 18.1577 14.6087 18.3333 14.1667 18.3333H5.83334C5.39131 18.3333 4.96739 18.1577 4.65483 17.8452C4.34227 17.5326 4.16667 17.1087 4.16667 16.6667V5H15.8333Z" stroke="black" stroke-width="1.68" stroke-linecap="round" stroke-linejoin="round"/>
<path d="M8.33333 9.16666V14.1667" stroke="black" stroke-width="1.68" stroke-linecap="round" stroke-linejoin="round"/>
<path d="M11.6667 9.16666V14.1667" stroke="black" stroke-width="1.68" stroke-linecap="round" stroke-linejoin="round"/>
</svg>
