<svg width="20" height="20" viewBox="0 0 20 20" fill="none" xmlns="http://www.w3.org/2000/svg">
<g clip-path="url(#clip0_47_1167)">
<path d="M13.3333 2.5H0.833333V13.3333H13.3333V2.5Z" stroke="black" stroke-width="1.68" stroke-linecap="round" stroke-linejoin="round"/>
<path d="M13.3333 6.66666H16.6667L19.1667 9.16666V13.3333H13.3333V6.66666Z" stroke="black" stroke-width="1.68" stroke-linecap="round" stroke-linejoin="round"/>
<path d="M4.58333 17.5C5.73393 17.5 6.66667 16.5673 6.66667 15.4167C6.66667 14.2661 5.73393 13.3333 4.58333 13.3333C3.43274 13.3333 2.5 14.2661 2.5 15.4167C2.5 16.5673 3.43274 17.5 4.58333 17.5Z" stroke="black" stroke-width="1.68" stroke-linecap="round" stroke-linejoin="round"/>
<path d="M15.4167 17.5C16.5673 17.5 17.5 16.5673 17.5 15.4167C17.5 14.2661 16.5673 13.3333 15.4167 13.3333C14.2661 13.3333 13.3333 14.2661 13.3333 15.4167C13.3333 16.5673 14.2661 17.5 15.4167 17.5Z" stroke="black" stroke-width="1.68" stroke-linecap="round" stroke-linejoin="round"/>
</g>
<defs>
<clipPath id="clip0_47_1167">
<rect width="20" height="20" fill="white"/>
</clipPath>
</defs>
</svg>
