<svg width="20" height="20" viewBox="0 0 20 20" fill="none" xmlns="http://www.w3.org/2000/svg">
<g clip-path="url(#clip0_47_1362)">
<path d="M19.1667 2.5C18.3687 3.0629 17.4851 3.49343 16.55 3.775C16.0481 3.19793 15.3811 2.78891 14.6392 2.60327C13.8973 2.41764 13.1163 2.46433 12.4017 2.73705C11.6872 3.00976 11.0737 3.49534 10.6442 4.1281C10.2146 4.76086 9.98976 5.51028 10 6.275V7.10834C8.53554 7.14631 7.0844 6.82151 5.77585 6.16287C4.4673 5.50424 3.34194 4.5322 2.50001 3.33334C2.50001 3.33334 -0.833323 10.8333 6.66668 14.1667C4.95045 15.3316 2.90597 15.9158 0.833344 15.8333C8.33334 20 17.5 15.8333 17.5 6.25C17.4992 6.01788 17.4769 5.78633 17.4333 5.55834C18.2838 4.71958 18.884 3.6606 19.1667 2.5V2.5Z" stroke="black" stroke-width="1.68" stroke-linecap="round" stroke-linejoin="round"/>
</g>
<defs>
<clipPath id="clip0_47_1362">
<rect width="20" height="20" fill="white"/>
</clipPath>
</defs>
</svg>
