<svg width="24" height="24" viewBox="0 0 24 24" fill="none" xmlns="http://www.w3.org/2000/svg">
<g clip-path="url(#clip0_11810_100151)">
<path d="M20.8234 22.9751L17.9484 20.1001C17.1151 20.7001 16.1984 21.1668 15.1984 21.5001C14.1984 21.8334 13.1318 22.0001 11.9984 22.0001C10.5818 22.0001 9.2651 21.7459 8.04844 21.2376C6.83177 20.7293 5.77344 20.0251 4.87344 19.1251C3.97344 18.2251 3.26927 17.1668 2.76094 15.9501C2.2526 14.7334 1.99844 13.4168 1.99844 12.0001C1.99844 10.8668 2.1651 9.8001 2.49844 8.8001C2.83177 7.8001 3.29844 6.88343 3.89844 6.0501L0.648438 2.8001L1.72344 1.7251L21.8984 21.9001L20.8234 22.9751ZM11.9984 20.5001C12.9151 20.5001 13.7818 20.3709 14.5984 20.1126C15.4151 19.8543 16.1734 19.4918 16.8734 19.0251L12.4484 14.6001L10.5234 16.5501L6.39844 12.4001L7.52344 11.2751L10.5234 14.2751L11.3234 13.4751L4.97344 7.1251C4.50677 7.8251 4.14427 8.58343 3.88594 9.4001C3.6276 10.2168 3.49844 11.0834 3.49844 12.0001C3.49844 14.4168 4.31094 16.4376 5.93594 18.0626C7.56094 19.6876 9.58177 20.5001 11.9984 20.5001ZM20.0984 17.9501L19.0234 16.8751C19.4901 16.1751 19.8526 15.4168 20.1109 14.6001C20.3693 13.7834 20.4984 12.9168 20.4984 12.0001C20.4984 9.58343 19.6859 7.5626 18.0609 5.9376C16.4359 4.3126 14.4151 3.5001 11.9984 3.5001C11.0818 3.5001 10.2151 3.62926 9.39844 3.8876C8.58177 4.14593 7.82344 4.50843 7.12344 4.9751L6.04844 3.9001C6.88177 3.3001 7.79844 2.83343 8.79844 2.5001C9.79844 2.16676 10.8651 2.0001 11.9984 2.0001C13.3984 2.0001 14.7068 2.25843 15.9234 2.7751C17.1401 3.29176 18.1984 4.0001 19.0984 4.9001C19.9984 5.8001 20.7068 6.85843 21.2234 8.0751C21.7401 9.29176 21.9984 10.6001 21.9984 12.0001C21.9984 13.1334 21.8318 14.2001 21.4984 15.2001C21.1651 16.2001 20.6984 17.1168 20.0984 17.9501ZM14.6234 12.4501L13.4734 11.3251L16.4484 8.3501L17.5984 9.4751L14.6234 12.4501Z" fill="#62528F" stroke="#62528F"/>
</g>
<defs>
<clipPath id="clip0_11810_100151">
<rect width="24" height="24" fill="white"/>
</clipPath>
</defs>
</svg>
