<svg width="20" height="20" viewBox="0 0 20 20" fill="none" xmlns="http://www.w3.org/2000/svg">
<g clip-path="url(#clip0_47_766)">
<path d="M8.88333 4.16666H11.6667C12.1087 4.16666 12.5326 4.34226 12.8452 4.65482C13.1577 4.96738 13.3333 5.3913 13.3333 5.83333V8.61666L14.1667 9.45L19.1667 5.83333V14.1667M13.3333 13.3333V14.1667C13.3333 14.6087 13.1577 15.0326 12.8452 15.3452C12.5326 15.6577 12.1087 15.8333 11.6667 15.8333H2.49999C2.05797 15.8333 1.63404 15.6577 1.32148 15.3452C1.00892 15.0326 0.833328 14.6087 0.833328 14.1667V5.83333C0.833328 5.3913 1.00892 4.96738 1.32148 4.65482C1.63404 4.34226 2.05797 4.16666 2.49999 4.16666H4.16666L13.3333 13.3333Z" stroke="black" stroke-width="1.68" stroke-linecap="round" stroke-linejoin="round"/>
<path d="M0.833328 0.833328L19.1667 19.1667" stroke="black" stroke-width="1.68" stroke-linecap="round" stroke-linejoin="round"/>
</g>
<defs>
<clipPath id="clip0_47_766">
<rect width="20" height="20" fill="white"/>
</clipPath>
</defs>
</svg>
