<svg width="20" height="20" viewBox="0 0 20 20" fill="none" xmlns="http://www.w3.org/2000/svg">
<g clip-path="url(#clip0_47_1005)">
<path d="M10 15.8333C13.2217 15.8333 15.8333 13.2217 15.8333 10C15.8333 6.77834 13.2217 4.16667 10 4.16667C6.77834 4.16667 4.16666 6.77834 4.16666 10C4.16666 13.2217 6.77834 15.8333 10 15.8333Z" stroke="black" stroke-width="1.68" stroke-linecap="round" stroke-linejoin="round"/>
<path d="M10 7.5V10L11.25 11.25" stroke="black" stroke-width="1.68" stroke-linecap="round" stroke-linejoin="round"/>
<path d="M13.7583 14.4583L13.4667 17.65C13.4291 18.0655 13.2371 18.4519 12.9285 18.7327C12.6199 19.0135 12.2172 19.1684 11.8 19.1667H8.19167C7.77444 19.1684 7.37175 19.0135 7.06317 18.7327C6.75458 18.4519 6.56255 18.0655 6.525 17.65L6.23333 14.4583M6.24167 5.54167L6.53333 2.35C6.57075 1.9359 6.76161 1.55074 7.06843 1.27013C7.37525 0.989519 7.77588 0.833727 8.19167 0.833335H11.8167C12.2339 0.831642 12.6366 0.9865 12.9452 1.26731C13.2537 1.54813 13.4458 1.93447 13.4833 2.35L13.775 5.54167" stroke="black" stroke-width="1.68" stroke-linecap="round" stroke-linejoin="round"/>
</g>
<defs>
<clipPath id="clip0_47_1005">
<rect width="20" height="20" fill="white"/>
</clipPath>
</defs>
</svg>
