<svg width="20" height="20" viewBox="0 0 20 20" fill="none" xmlns="http://www.w3.org/2000/svg">
<g clip-path="url(#clip0_47_1195)">
<path d="M0.833328 0.833336L19.1667 19.1667" stroke="black" stroke-width="1.68" stroke-linecap="round" stroke-linejoin="round"/>
<path d="M13.9333 9.21667C14.6159 9.54979 15.2542 9.96691 15.8333 10.4583" stroke="black" stroke-width="1.68" stroke-linecap="round" stroke-linejoin="round"/>
<path d="M4.16667 10.4583C5.40174 9.42569 6.88823 8.73851 8.47501 8.46667" stroke="black" stroke-width="1.68" stroke-linecap="round" stroke-linejoin="round"/>
<path d="M8.92499 4.20834C10.7103 4.06448 12.5064 4.28181 14.2059 4.84735C15.9054 5.4129 17.4735 6.31507 18.8167 7.5" stroke="black" stroke-width="1.68" stroke-linecap="round" stroke-linejoin="round"/>
<path d="M1.18333 7.5C2.33931 6.47821 3.66475 5.66602 5.1 5.1" stroke="black" stroke-width="1.68" stroke-linecap="round" stroke-linejoin="round"/>
<path d="M7.10834 13.425C7.95434 12.824 8.9664 12.501 10.0042 12.501C11.0419 12.501 12.054 12.824 12.9 13.425" stroke="black" stroke-width="1.68" stroke-linecap="round" stroke-linejoin="round"/>
<path d="M10 16.6667H10.0083" stroke="black" stroke-width="1.68" stroke-linecap="round" stroke-linejoin="round"/>
</g>
<defs>
<clipPath id="clip0_47_1195">
<rect width="20" height="20" fill="white"/>
</clipPath>
</defs>
</svg>
