<svg width="20" height="20" viewBox="0 0 20 20" fill="none" xmlns="http://www.w3.org/2000/svg">
<path d="M7.99167 3.825C8.18526 3.63026 8.42396 3.48637 8.68656 3.40611C8.94917 3.32586 9.22753 3.31173 9.4969 3.36499C9.76628 3.41824 10.0183 3.53723 10.2306 3.71137C10.4429 3.88551 10.6089 4.1094 10.7139 4.36316C10.8188 4.61691 10.8594 4.89266 10.8321 5.16588C10.8047 5.43911 10.7103 5.70135 10.5572 5.9293C10.4041 6.15724 10.1971 6.34383 9.95447 6.47247C9.71188 6.60111 9.44126 6.66781 9.16667 6.66666H1.66667M11.1866 16.5939C11.4492 16.6741 11.7275 16.6883 11.9969 16.635C12.2663 16.5817 12.5183 16.4628 12.7306 16.2886C12.9429 16.1145 13.1089 15.8906 13.2139 15.6368C13.3188 15.3831 13.3594 15.1073 13.3321 14.8341C13.3047 14.5609 13.2103 14.2986 13.0572 14.0707C12.9041 13.8427 12.6971 13.6562 12.4545 13.5275C12.2119 13.3989 11.9413 13.3322 11.6667 13.3333H1.66667M14.775 6.44166C15.0174 6.1999 15.3156 6.02159 15.6433 5.92251C15.971 5.82342 16.318 5.80661 16.6537 5.87357C16.9895 5.94052 17.3035 6.08918 17.5681 6.30639C17.8327 6.52359 18.0397 6.80266 18.1708 7.1189C18.3019 7.43515 18.353 7.77882 18.3197 8.11953C18.2864 8.46024 18.1696 8.78749 17.9797 9.07233C17.7898 9.35716 17.5326 9.59082 17.2309 9.75262C16.9293 9.91442 16.5923 9.99938 16.25 9.99999H1.66667" stroke="black" stroke-width="1.68" stroke-linecap="round" stroke-linejoin="round"/>
</svg>
