<svg width="100" height="40" viewBox="0 0 100 40" fill="none" xmlns="http://www.w3.org/2000/svg">
<circle cx="18" cy="22" r="18" fill="url(#paint0_linear_4078_10624)"/>
<circle cx="18" cy="22" r="18" fill="url(#paint1_linear_4078_10624)"/>
<circle cx="24" cy="18" r="18" fill="url(#paint2_linear_4078_10624)"/>
<path d="M50.9148 30C50.3049 30 50 29.6612 50 28.9837V11.5854C50 10.9079 50.3049 10.5691 50.9148 10.5691H53.0318C53.5545 10.5691 53.8159 10.9079 53.8159 11.5854V26.6396H61.4345C62.0879 26.6396 62.4146 26.9332 62.4146 27.5203V29.1192C62.4146 29.7064 62.0879 30 61.4345 30H50.9148Z" fill="#352466"/>
<path d="M65.6555 30C65.1327 30 64.8714 29.729 64.8714 29.187V16.5854C64.8714 16.0434 65.1327 15.7724 65.6555 15.7724H67.7463C68.2691 15.7724 68.5304 16.0434 68.5304 16.5854V29.187C68.5304 29.729 68.2691 30 67.7463 30H65.6555ZM65.6555 13.6856C65.1327 13.6856 64.8714 13.4146 64.8714 12.8726V11.1382C64.8714 10.5962 65.1327 10.3252 65.6555 10.3252H67.7463C68.2691 10.3252 68.5304 10.5962 68.5304 11.1382V12.8726C68.5304 13.4146 68.2691 13.6856 67.7463 13.6856H65.6555Z" fill="#352466"/>
<path d="M72.869 30C72.3463 30 72.0849 29.729 72.0849 29.187V16.5854C72.0849 16.0434 72.3463 15.7724 72.869 15.7724H74.9337C75.4565 15.7724 75.7178 16.0434 75.7178 16.5854V17.3713H75.7701C76.1708 16.6576 76.6805 16.1698 77.299 15.9079C77.9176 15.6369 78.6625 15.5014 79.5337 15.5014C80.8927 15.5014 82.0166 15.944 82.9052 16.8293C83.7938 17.7145 84.2381 19.3315 84.2381 21.6802V29.187C84.2381 29.729 83.9768 30 83.4541 30H81.3632C80.8405 30 80.5791 29.729 80.5791 29.187V22.6558C80.5791 20.6865 80.4484 19.4444 80.1871 18.9295C79.9257 18.4146 79.3638 18.1572 78.5013 18.1572C77.5865 18.1572 76.8983 18.5276 76.4366 19.2683C75.9748 20 75.7439 21.5266 75.7439 23.8482V29.187C75.7439 29.729 75.4826 30 74.9599 30H72.869Z" fill="#352466"/>
<path d="M88.5506 30C88.0279 30 87.7665 29.729 87.7665 29.187V10.813C87.7665 10.271 88.0279 10 88.5506 10H90.6415C91.1642 10 91.4255 10.271 91.4255 10.813V20.7724C91.4255 21.1337 91.4081 21.495 91.3733 21.8564H91.4255L95.5681 16.3279C95.8469 15.9575 96.1866 15.7724 96.5874 15.7724H98.7306C99.5321 15.7724 99.6671 16.1066 99.1357 16.7751L95.1891 21.7209L99.7629 28.9973C100.181 29.6658 100.046 30 99.3578 30H97.1232C96.6876 30 96.3304 29.7651 96.0516 29.2954L93.0852 24.3496L91.4255 26.4228V29.187C91.4255 29.729 91.1642 30 90.6415 30H88.5506Z" fill="#352466"/>
<defs>
<linearGradient id="paint0_linear_4078_10624" x1="38.9508" y1="1.34426" x2="-14.459" y2="45.6066" gradientUnits="userSpaceOnUse">
<stop stop-color="#9E86E4"/>
<stop offset="1" stop-color="#09080B" stop-opacity="0.43"/>
</linearGradient>
<linearGradient id="paint1_linear_4078_10624" x1="38.9508" y1="1.34426" x2="-14.459" y2="45.6066" gradientUnits="userSpaceOnUse">
<stop stop-color="#9E86E4"/>
<stop offset="1" stop-color="#09080B" stop-opacity="0.43"/>
</linearGradient>
<linearGradient id="paint2_linear_4078_10624" x1="44.9508" y1="-2.65574" x2="-8.45902" y2="41.6066" gradientUnits="userSpaceOnUse">
<stop stop-color="#9E86E4"/>
<stop offset="1" stop-color="#09080B" stop-opacity="0.43"/>
</linearGradient>
</defs>
</svg>
