<svg width="253" height="335" viewBox="0 0 253 335" fill="none" xmlns="http://www.w3.org/2000/svg">
<g clip-path="url(#clip0_389_1065)">
<path fill-rule="evenodd" clip-rule="evenodd" d="M175.239 300.799C175.436 300.799 181.679 301.259 181.619 301.655C181.559 302.052 180.637 302.381 178.991 302.381H173.658L175.238 300.799H175.239ZM137.712 301.59C137.251 301.92 135.078 303.37 135.671 303.7C136.263 304.029 138.567 304.293 138.897 304.293C139.226 304.293 138.934 303.151 138.897 303.172C138.859 303.193 137.712 301.59 137.712 301.59Z" fill="#3B2B20"/>
<path fill-rule="evenodd" clip-rule="evenodd" d="M125.132 225.653C125.132 225.653 123.988 226.507 123.577 226.742C122.955 227.098 121.269 227.62 120.7 227.988C120.003 228.44 120.513 228.703 120.935 228.67C122.219 228.572 122.718 228.31 122.54 228.67C122.132 229.497 120.22 231.881 120.626 232.336C121.109 232.877 122.216 231.381 122.84 230.556C122.868 230.519 122.945 230.548 122.923 230.59C122.487 231.427 121.396 233.453 121.836 233.822C122.599 234.463 123.721 230.778 124.02 230.916C124.31 231.049 123.022 234.026 123.88 234.136C124.606 234.229 125.255 230.879 125.453 231.142C125.65 231.406 124.799 233.23 125.675 233.318C126.174 233.368 128.005 226.165 128.267 226.1C128.531 226.034 128.752 225.653 128.752 225.653H125.132ZM173.866 226.648C173.866 226.648 175.01 227.501 175.421 227.736C176.043 228.092 177.729 228.616 178.298 228.983C178.995 229.435 178.485 229.697 178.063 229.665C176.78 229.566 176.28 229.305 176.458 229.665C176.866 230.491 178.778 232.875 178.372 233.331C177.889 233.871 176.782 232.375 176.158 231.551C176.13 231.513 176.054 231.542 176.075 231.584C176.511 232.421 177.603 234.448 177.161 234.817C176.399 235.457 175.278 231.773 174.978 231.91C174.688 232.044 175.976 235.02 175.117 235.131C174.392 235.224 173.743 231.873 173.545 232.137C173.348 232.4 174.199 234.224 173.323 234.312C172.824 234.362 170.993 227.16 170.731 227.094C170.467 227.028 170.245 226.648 170.245 226.648H173.866Z" fill="#F2BEA2"/>
<path fill-rule="evenodd" clip-rule="evenodd" d="M165.374 149.854C165.374 158.358 167.206 185.248 162.381 194.517C159.264 200.503 150.041 189.989 146.926 193.133C123.896 216.369 124.554 163.851 124.554 149.853C124.554 135.856 133.692 124.509 144.964 124.509C156.236 124.509 165.374 135.856 165.374 149.854Z" fill="#191B46"/>
<path fill-rule="evenodd" clip-rule="evenodd" d="M134.462 175.957L120.786 226.065L128.555 228.137C128.555 228.137 140.751 185.247 140.236 184.457C139.721 183.666 134.462 175.957 134.462 175.957Z" fill="#D8E1F1"/>
<path fill-rule="evenodd" clip-rule="evenodd" d="M164.677 184.383C169.919 201.503 176.917 227.203 176.917 227.203L168.919 229.07L165.249 204.86L170.976 247.182L177.217 301.556C177.217 301.556 152.557 307.852 136.623 302.381C128.848 299.711 126.717 297.431 126.717 297.431L131.318 197.887C131.318 197.887 131.865 180.847 134.462 175.957C138.142 169.024 156.087 156.332 164.677 184.383Z" fill="#D8E1F1"/>
<path fill-rule="evenodd" clip-rule="evenodd" d="M149.184 168.993L146.221 169.193C146.221 169.193 150.943 237.36 151.286 246.443C152.788 286.176 153.858 304.616 153.858 304.616H155.965C155.965 304.616 154.522 259.33 153.497 245.05C152.601 232.59 149.184 168.993 149.184 168.993Z" fill="#A0B4D8"/>
<path fill-rule="evenodd" clip-rule="evenodd" d="M170.245 145.307C170.245 155.992 160.017 164.654 147.4 164.654C134.783 164.654 124.555 155.992 124.555 145.307C124.555 134.621 134.783 125.959 147.4 125.959C160.017 125.959 170.245 134.621 170.245 145.307Z" fill="#F2BEA2"/>
<path fill-rule="evenodd" clip-rule="evenodd" d="M171.772 137.516C169.855 128.527 160.625 116.569 141.663 117.916C128.097 118.881 123.994 131.145 121.967 139.484C117.324 158.584 129.397 194.517 129.397 194.517C129.397 194.517 127.189 164.57 126.717 150.712C126.543 145.594 129.481 134.341 136.87 131.382C139.437 130.353 143.585 132.55 147.993 132.617C156.275 132.743 165.307 131.628 165.307 131.628L171.772 137.516Z" fill="#191B46"/>
<path fill-rule="evenodd" clip-rule="evenodd" d="M133.173 137.79C133.173 137.79 138.287 137.534 140.721 138.097C140.967 138.155 141.19 138.188 141.391 138.207C141.603 138.224 141.815 138.181 142.003 138.081C142.191 137.982 142.347 137.83 142.452 137.645C142.556 137.46 142.606 137.249 142.595 137.037C142.595 137.037 136.399 135.703 133.173 137.79Z" fill="black"/>
<path fill-rule="evenodd" clip-rule="evenodd" d="M131.575 141.318C131.575 141.318 139.321 139.967 140.86 141.532C142.908 143.614 140.596 149.492 137.884 149.692C135.112 149.897 133.173 149.484 131.479 147.646C130.332 146.401 131.575 141.318 131.575 141.318Z" fill="white"/>
<path fill-rule="evenodd" clip-rule="evenodd" d="M133.034 140.574C142.043 138.894 137.912 145.889 136.944 146.505C136.724 146.645 131.398 147.645 131.275 143.614C131.23 142.141 131.317 140.895 133.035 140.574" fill="black"/>
<path fill-rule="evenodd" clip-rule="evenodd" d="M130.704 140.758C133.505 140.098 137.189 139.929 140.371 140.977C141.5 141.347 142.009 143.003 141.815 142.823C139.332 140.522 131.112 142.007 131.112 142.007L130.704 140.757V140.758Z" fill="black"/>
<path fill-rule="evenodd" clip-rule="evenodd" d="M139.05 143.061C138.97 143.255 138.648 143.306 138.331 143.175C138.014 143.044 137.822 142.779 137.903 142.585C137.983 142.391 138.305 142.34 138.622 142.472C138.939 142.603 139.131 142.867 139.051 143.062" fill="white"/>
<path fill-rule="evenodd" clip-rule="evenodd" d="M161.032 143.316C161.032 143.316 156.29 141.381 153.806 141.106C153.581 141.082 153.358 141.043 153.139 140.988C152.933 140.934 152.747 140.823 152.603 140.666C152.458 140.51 152.361 140.316 152.323 140.107C152.286 139.898 152.308 139.682 152.389 139.485C152.389 139.485 158.677 140.278 161.032 143.316Z" fill="black"/>
<path fill-rule="evenodd" clip-rule="evenodd" d="M161.374 147.175C161.374 147.175 154.51 143.335 152.541 144.301C149.921 145.588 150.16 151.901 152.652 152.988C155.202 154.099 157.168 154.352 159.373 153.179C160.868 152.384 161.373 147.175 161.373 147.175" fill="white"/>
<path fill-rule="evenodd" clip-rule="evenodd" d="M157.378 145.694C149.432 141.124 150.688 148.917 151.228 149.93C151.491 150.424 156.586 152.91 158.034 149.145C158.564 147.77 158.893 146.565 157.378 145.694Z" fill="black"/>
<path fill-rule="evenodd" clip-rule="evenodd" d="M162.38 146.935C159.955 145.385 156.534 144.005 153.186 143.939C151.998 143.916 150.97 145.309 151.213 145.204C154.316 143.854 161.583 147.979 161.583 147.979L162.381 146.935H162.38Z" fill="black"/>
<path fill-rule="evenodd" clip-rule="evenodd" d="M157.508 147.744C157.519 147.954 157.807 148.109 158.149 148.09C158.491 148.071 158.76 147.885 158.749 147.675C158.737 147.465 158.449 147.311 158.107 147.33C157.765 147.349 157.497 147.534 157.508 147.744Z" fill="white"/>
<path fill-rule="evenodd" clip-rule="evenodd" d="M144.655 156.937C144.744 156.574 144.457 156.224 144.084 156.216C143.436 156.201 142.477 156.319 142.41 157.135C142.377 157.517 142.401 157.835 142.45 158.091C142.54 158.561 143.757 158.712 144.139 158.425C144.604 158.075 144.493 157.603 144.655 156.937Z" fill="#BC7450"/>
<path fill-rule="evenodd" clip-rule="evenodd" d="M172.602 136.616C171.501 126.507 146.926 128.906 146.926 128.906C146.926 128.906 160.071 131.828 160.316 132.196C160.561 132.563 166.34 142.181 164.395 152.01C161.873 164.756 163.843 180.624 163.843 180.624C163.843 180.624 165.028 187.298 166.263 189.639C166.383 189.867 164.498 181.893 168.04 169.255C168.843 166.391 173.704 146.725 172.602 136.616Z" fill="#1C1E51"/>
<path fill-rule="evenodd" clip-rule="evenodd" d="M141.675 152.077C141.515 152.64 143.127 153.394 143.665 153.364C145.03 153.288 145.72 152.114 145.337 152.201C143.717 152.571 141.675 152.077 141.675 152.077Z" fill="#BC7450"/>
<path fill-rule="evenodd" clip-rule="evenodd" d="M144.687 163.6C144.426 164.914 143.533 167.558 143.533 167.911C143.533 168.88 145.24 169.664 147.345 169.664C149.444 169.664 151.145 168.884 151.155 167.92L151.266 167.916C151.266 167.916 150.519 165.543 150 163.6H144.687ZM78.482 140.617C78.407 140.542 76.542 139.525 76.335 139.506C76.128 139.487 75.882 140.243 75.882 140.243L78.202 140.507L78.482 140.617Z" fill="#F2BEA2"/>
<path fill-rule="evenodd" clip-rule="evenodd" d="M54.625 70.1321C54.625 70.1321 57.599 72.8871 58.406 75.6561C59.214 78.4251 56.501 94.8601 56.501 94.8601L50.091 76.2861L54.625 70.1321Z" fill="#A0B4D8"/>
<path fill-rule="evenodd" clip-rule="evenodd" d="M45 65.484C45 65.484 51.136 111.082 55.774 125.637C56.582 128.174 61.557 141.809 61.557 141.809L66.166 139.613C66.166 139.613 60.048 123.121 58.726 118.657C54.539 104.514 47.468 60.738 47.468 60.738L45 65.484Z" fill="#A0B4D8"/>
<path fill-rule="evenodd" clip-rule="evenodd" d="M44.145 286.168C44.145 286.168 41.421 294.434 39.535 301.948C37.648 309.462 40.906 322.322 40.906 322.322C40.906 322.322 43.034 324.422 43.813 322.428C44.396 320.938 44.194 314.358 45.07 312.937C46.02 311.396 49.218 307.783 49.218 307.783L44.145 286.168ZM53.545 282.892C53.545 283.522 54.145 304.229 58.773 313.002C61.855 318.843 61.18 319.471 61.18 319.471C61.18 319.471 65.307 324.182 64.888 318.153C64.375 310.783 64.998 306.182 64.998 303.218C64.998 298.755 66.33 288.348 66.33 288.348L53.545 282.892Z" fill="#F2BEA2"/>
<path fill-rule="evenodd" clip-rule="evenodd" d="M17.067 77.6901C13.923 82.4121 -1.79602 137.612 -1.79602 137.612L30.996 149.915C30.996 149.915 33.816 144.777 32.872 144.148C31.928 143.518 9.17098 132.602 9.17098 132.602L22.384 96.3201C22.879 94.8991 27.428 103.438 27.766 108.013C30.329 142.658 29.64 142.543 29.64 142.543C29.64 142.543 62.404 142.535 61.27 141.591C60.137 140.646 54.644 148.101 56.121 113.426C56.293 109.391 59.615 103.251 60.353 99.6491C61.914 92.0351 59.435 93.9921 58.418 76.6421C58.115 71.4671 54.36 75.6661 52.958 72.2511C52.599 71.3771 31.408 63.9441 31.408 63.9441C31.408 63.9441 20.21 72.9681 17.066 77.6901H17.067Z" fill="#D8E1F1"/>
<path fill-rule="evenodd" clip-rule="evenodd" d="M52.447 82.9371C52.537 77.7001 50.569 79.2801 50.569 79.2801L48.164 76.4601C48.854 79.0901 43.984 69.3571 45.531 82.3271C45.532 82.3401 51.801 107.113 51.801 107.113C51.801 107.113 52.278 92.7881 52.447 82.9371Z" fill="white"/>
<path fill-rule="evenodd" clip-rule="evenodd" d="M29.788 141.36C29.788 141.36 30.27 141.721 27.506 163.755C21.594 210.885 34.726 315.353 34.726 315.353C34.726 315.353 41.556 319.747 69.999 317.176C72.733 316.928 66.211 140.242 66.211 140.242L29.788 141.359V141.36Z" fill="#D8E1F1"/>
<path fill-rule="evenodd" clip-rule="evenodd" d="M29.3 149.289L54.024 154.802C54.024 154.802 55.591 156.02 54.209 155.32C52.826 154.621 29.191 150.305 29.191 150.305L29.3 149.289Z" fill="#A0B4D8"/>
<path fill-rule="evenodd" clip-rule="evenodd" d="M38.92 138.173C32.125 149.016 38.175 195.128 38.716 200.557C39.058 203.995 42.668 206.517 46.113 206.302L58.501 203.292L48.988 138.866L38.919 138.173H38.92Z" fill="#A0B4D8"/>
<path fill-rule="evenodd" clip-rule="evenodd" d="M37.275 144.792L40.867 141.195L40.759 143.239L40.137 144.454L37.275 144.792Z" fill="#F2BEA2"/>
<path fill-rule="evenodd" clip-rule="evenodd" d="M38.92 138.173C38.92 138.173 40.192 138.779 40.57 141.509C41.273 146.572 41.898 161.683 46.751 213.115C48.915 236.045 51.363 264.137 57.381 304.481C59.021 315.464 76.267 327.15 87.035 324.491L90.925 323.532C95.587 322.382 100.9 333.618 100.9 333.618L130.31 324.22C130.31 324.22 129.11 318.201 123.696 313.974C120.083 311.154 112.112 308.124 104.24 309.587C99.861 310.402 89.772 306.037 87.007 251.652C85.712 226.187 82.82 163.61 79.351 148.419C76.811 137.297 75.067 138.335 75.067 138.335" fill="white"/>
<path fill-rule="evenodd" clip-rule="evenodd" d="M40.021 139.517C40.269 140.05 40.427 140.621 40.53 141.2C40.709 142.362 40.822 143.532 40.93 144.702C41.143 147.042 41.328 149.385 41.516 151.727L42.663 165.778C43.451 175.144 44.288 184.505 45.161 193.863L47.805 221.933C48.694 231.29 49.611 240.643 50.634 249.983C51.648 259.325 52.763 268.655 53.981 277.973C54.59 282.633 55.221 287.288 55.879 291.94L56.882 298.916L57.397 302.402L57.654 304.145C57.739 304.725 57.838 305.279 57.994 305.835C58.594 308.056 59.741 310.112 61.117 311.971C62.502 313.832 64.137 315.504 65.912 317.005C69.474 319.985 73.602 322.35 78.052 323.652C80.274 324.288 82.592 324.643 84.88 324.469C85.45 324.422 86.016 324.342 86.573 324.224C87.123 324.104 87.707 323.948 88.273 323.812L89.981 323.388L90.835 323.176C91.156 323.096 91.492 323.067 91.819 323.088C92.478 323.128 93.092 323.354 93.639 323.648C94.189 323.944 94.682 324.313 95.141 324.709C96.056 325.509 96.838 326.422 97.558 327.369C98.988 329.279 100.19 331.317 101.247 333.453L100.783 333.252L130.198 323.867L129.948 324.293C128.906 320.15 126.361 316.271 122.844 313.791C121.066 312.571 119.062 311.661 117.002 310.971C114.937 310.28 112.798 309.834 110.629 309.641C108.459 309.457 106.289 309.535 104.129 309.943C102.962 310.127 101.751 309.86 100.735 309.312C99.711 308.766 98.853 307.987 98.116 307.135C96.645 305.415 95.595 303.418 94.702 301.387C93.814 299.348 93.11 297.242 92.488 295.117C91.26 290.862 90.395 286.519 89.681 282.161C88.974 277.801 88.44 273.416 88.004 269.024C87.574 264.631 87.231 260.23 86.975 255.824C86.717 251.419 86.524 247.015 86.303 242.611C85.446 224.994 84.531 207.381 83.399 189.781C82.827 180.981 82.209 172.182 81.354 163.407C80.909 159.023 80.451 154.633 79.685 150.292C79.281 148.126 78.767 145.981 78.145 143.867C77.83 142.812 77.484 141.764 77.052 140.75C76.84 140.241 76.588 139.75 76.298 139.282C76.153 139.048 75.983 138.83 75.79 138.634C75.601 138.454 75.343 138.247 75.067 138.335C75.343 138.245 75.604 138.451 75.794 138.63C75.992 138.823 76.156 139.046 76.307 139.276C76.607 139.74 76.85 140.237 77.072 140.741C77.511 141.754 77.864 142.801 78.187 143.854C78.824 145.966 79.353 148.11 79.771 150.276C80.566 154.618 81.054 159.006 81.528 163.39C82.441 172.163 83.118 180.959 83.748 189.757C84.98 207.354 85.892 224.971 86.802 242.585C87.032 246.989 87.237 251.395 87.504 255.793C87.775 260.191 88.116 264.585 88.561 268.967C89.006 273.35 89.549 277.722 90.263 282.066C90.984 286.406 91.855 290.726 93.084 294.943C93.704 297.048 94.407 299.13 95.284 301.133C96.164 303.126 97.202 305.075 98.607 306.707C99.309 307.517 100.117 308.239 101.043 308.729C101.963 309.222 103.014 309.444 104.03 309.284C106.201 308.867 108.471 308.776 110.687 308.964C112.909 309.152 115.105 309.61 117.221 310.31C119.334 311.014 121.387 311.935 123.248 313.206C125.096 314.5 126.671 316.149 127.925 318.012C129.168 319.888 130.135 321.921 130.674 324.147L130.752 324.468L130.423 324.573L101.016 333.985L100.701 334.085L100.552 333.783C99.532 331.707 98.342 329.677 96.958 327.825C96.261 326.902 95.508 326.022 94.653 325.272C93.807 324.538 92.817 323.898 91.773 323.824C91.517 323.807 91.26 323.829 91.011 323.89L90.156 324.1L88.446 324.52C87.871 324.657 87.321 324.805 86.724 324.934C86.133 325.057 85.535 325.14 84.936 325.188C82.532 325.366 80.138 324.988 77.857 324.331C73.291 322.981 69.103 320.565 65.477 317.521C63.673 315.986 62.005 314.276 60.589 312.363C59.182 310.451 57.999 308.33 57.375 306.002C57.22 305.422 57.103 304.833 57.024 304.238L56.77 302.494L56.263 299.006L55.276 292.025C54.628 287.369 54.006 282.711 53.409 278.048C52.212 268.724 51.117 259.387 50.123 250.039C49.121 240.692 48.225 231.335 47.357 221.976C46.494 212.616 45.607 203.259 44.794 193.896C43.979 184.532 43.208 175.164 42.48 165.793L41.426 151.734C41.253 149.391 41.083 147.047 40.886 144.706C40.786 143.536 40.68 142.366 40.509 141.204C40.417 140.624 40.249 140.058 40.011 139.521C39.758 138.999 39.426 138.481 38.919 138.173C39.428 138.478 39.764 138.995 40.021 139.517Z" fill="#D8E1F1"/>
<path fill-rule="evenodd" clip-rule="evenodd" d="M18.397 11.6649C18.397 11.6649 15.076 31.6219 16.375 47.3849C17.675 63.1469 28.05 79.7249 38.595 82.6169C49.138 85.5089 57.467 81.1409 61.495 75.7589C71.404 62.5189 74.034 19.5439 65.657 9.71092C60.269 3.38492 51.992 -0.257078 37.754 0.639922C31.428 1.03992 20.99 4.37792 18.397 11.6639" fill="#191B46"/>
<path fill-rule="evenodd" clip-rule="evenodd" d="M37.136 20.9169C35.217 21.0979 26.073 21.2419 26.794 37.1489C27.517 53.0569 39.904 65.1549 52.904 57.2009C65.902 49.2469 63.124 29.5749 58.239 23.7009C55.649 20.5879 48.475 19.8429 37.136 20.9169ZM32.53 144.342C32.53 144.342 39.294 144.342 42.19 144.662C43.496 144.806 44.677 150.316 41.947 151.014C37.61 152.122 31.437 149.738 31.437 149.738L32.531 144.342H32.53Z" fill="#F2BEA2"/>
<path fill-rule="evenodd" clip-rule="evenodd" d="M32.386 143.893L30.987 150.416L31.418 150.641L33.046 144.208L32.386 143.893Z" fill="#A0B4D8"/>
<path fill-rule="evenodd" clip-rule="evenodd" d="M29.19 149.289L31.414 150.24L31.664 150.415L31.584 150.735L29.191 149.738L29.19 149.289ZM33.233 144.342L29.64 142.544L32.784 144.792L33.233 144.342Z" fill="#A0B4D8"/>
<path fill-rule="evenodd" clip-rule="evenodd" d="M42.424 46.21C42.146 47.19 44.957 48.505 45.894 48.453C48.275 48.321 49.478 46.272 48.811 46.425C45.987 47.071 42.424 46.209 42.424 46.209" fill="#D29473"/>
<path fill-rule="evenodd" clip-rule="evenodd" d="M30.288 30.1549C30.288 30.1549 35.683 29.6719 38.28 30.1659C38.541 30.2159 38.779 30.2429 38.991 30.2539C39.216 30.2639 39.439 30.2089 39.634 30.0949C39.828 29.9819 39.987 29.8159 40.09 29.6159C40.193 29.4159 40.237 29.1899 40.216 28.9659C40.216 28.9659 33.611 27.8149 30.288 30.1549Z" fill="#613619"/>
<path fill-rule="evenodd" clip-rule="evenodd" d="M29.032 32.3541C29.032 32.3541 38.47 31.0001 40.22 32.9701C41.516 34.4281 39.156 39.8331 37.591 41.0891C36.458 41.9991 34.833 41.4901 33.71 41.2571C28.165 40.1111 29.032 32.3551 29.032 32.3551" fill="white"/>
<path fill-rule="evenodd" clip-rule="evenodd" d="M32.706 34.6351C40.929 32.9391 38.552 40.9871 37.226 41.3541C36.067 41.6741 31.172 41.8801 30.892 38.0861C30.762 36.3211 30.652 35.0591 32.706 34.6351ZM27.737 31.7411C27.887 31.7091 36.1 30.9161 40.668 32.3061C40.971 32.3981 40.904 33.6311 40.592 33.5721C34.713 32.4741 26.555 32.9551 26.555 32.9551L27.737 31.7411Z" fill="#2B1E1C"/>
<path fill-rule="evenodd" clip-rule="evenodd" d="M32.119 37.3771C32.043 37.5851 31.704 37.6521 31.364 37.5271C31.023 37.4011 30.809 37.1301 30.886 36.9221C30.963 36.7131 31.301 36.6461 31.642 36.7721C31.982 36.8971 32.196 37.1681 32.119 37.3771Z" fill="white"/>
<path fill-rule="evenodd" clip-rule="evenodd" d="M58.783 30.1549C58.783 30.1549 53.387 29.6719 50.79 30.1659C50.555 30.2119 50.318 30.2409 50.079 30.2539C49.854 30.2639 49.631 30.2089 49.436 30.0949C49.242 29.9819 49.083 29.8159 48.98 29.6159C48.877 29.4159 48.833 29.1899 48.854 28.9659C48.854 28.9659 55.459 27.8149 58.783 30.1549Z" fill="#613619"/>
<path fill-rule="evenodd" clip-rule="evenodd" d="M60.038 32.3541C60.038 32.3541 50.601 31.0001 48.85 32.9701C47.554 34.4281 49.914 39.8331 51.479 41.0891C52.613 41.9991 54.237 41.4901 55.361 41.2571C60.906 40.1111 60.038 32.3551 60.038 32.3551" fill="white"/>
<path fill-rule="evenodd" clip-rule="evenodd" d="M56.365 34.6351C48.141 32.9391 50.519 40.9871 51.845 41.3541C53.003 41.6741 57.899 41.8801 58.178 38.0861C58.308 36.3211 58.419 35.0591 56.365 34.6351ZM61.334 31.7411C61.184 31.7091 52.97 30.9161 48.402 32.3061C48.099 32.3981 48.166 33.6311 48.478 33.5721C54.358 32.4741 62.515 32.9551 62.515 32.9551L61.334 31.7411Z" fill="#2B1E1C"/>
<path fill-rule="evenodd" clip-rule="evenodd" d="M56.951 37.3771C57.028 37.5851 57.366 37.6521 57.707 37.5271C58.047 37.4011 58.261 37.1301 58.184 36.9221C58.107 36.7131 57.769 36.6461 57.428 36.7721C57.088 36.8971 56.875 37.1681 56.951 37.3771Z" fill="white"/>
<path fill-rule="evenodd" clip-rule="evenodd" d="M180.157 120.516L165 122C165 122 175.01 116.232 175.01 115.737C175.01 115.242 171.372 91.7335 172.579 87.0612C174.306 80.3676 181.637 78.5921 184.36 78.2655C191.682 77.3881 207.636 75.2822 223.979 76.2481C246.285 77.5662 248.631 78.3137 249.076 78.656C252.003 80.9174 258.207 117.175 244.214 118.868C237.82 119.642 188.028 123.373 180.157 120.517" fill="#FFDDE3"/>
<path fill-rule="evenodd" clip-rule="evenodd" d="M120.34 319.305L118.747 323.043C118.595 323.399 118.313 323.685 117.958 323.84C117.603 323.996 117.202 324.01 116.837 323.88L112.586 322.365C112.264 322.251 111.914 322.248 111.59 322.357C111.267 322.466 110.989 322.681 110.803 322.967L108.753 326.109C108.558 326.408 108.264 326.63 107.922 326.734C107.58 326.838 107.213 326.818 106.884 326.678L102.402 324.773C101.086 324.213 101.197 322.309 102.57 321.908L118.515 317.245C119.748 316.884 120.845 318.122 120.34 319.305Z" fill="#A0B4D8"/>
<path fill-rule="evenodd" clip-rule="evenodd" d="M113.466 324.71C113.466 325.08 113.079 325.378 112.602 325.378C112.125 325.378 111.738 325.079 111.738 324.71C111.738 324.342 112.125 324.043 112.602 324.043C113.079 324.043 113.466 324.342 113.466 324.71Z" fill="#A0B4D8"/>
<path fill-rule="evenodd" clip-rule="evenodd" d="M40.412 320.813C41.587 319.753 44.132 320.368 44.132 320.368L44.764 322.738C45.154 323.741 44.837 326.209 42.844 326.21C40.046 326.21 39.014 325.697 38.499 324.842C38.353 324.599 38.492 322.544 40.412 320.812" fill="#1E1301"/>
<path fill-rule="evenodd" clip-rule="evenodd" d="M40.053 144.142C40.053 144.142 43.797 144.22 45.047 144.142C46.297 144.063 47.354 143.794 47.59 144.34C47.765 144.745 46.88 145.163 45.339 145.207C43.797 145.251 41.839 145.207 41.839 145.207L42.262 145.929H44.121C45.722 145.929 48.182 145.626 48.529 146.089C48.923 146.614 47.392 146.773 46.086 146.95C44.971 147.102 42.922 147.405 42.922 147.405L43.005 147.696C43.005 147.696 43.992 147.797 44.992 147.858C45.992 147.918 48.529 147.7 48.357 148.241C48.189 148.767 47.193 148.944 46.086 148.944H43.296L43.464 149.428C43.464 149.428 45.35 149.592 45.892 149.592C46.434 149.592 46.845 149.735 46.946 150.043C47.047 150.351 46.392 150.69 44.934 150.734C43.475 150.778 40.881 151.142 40.797 151.054C40.714 150.966 40.053 144.142 40.053 144.142ZM78.482 140.617C78.24 140.261 78.002 139.918 77.585 140.027C76.862 140.215 75.787 140.485 75.053 140.626C73.855 140.857 72.464 141.157 72.656 141.629C72.853 142.117 73.478 142.043 74.96 141.801C76.428 141.561 78.157 141.615 76.647 142.005C75.137 142.395 73.34 142.542 72.289 142.942C72.051 143.032 71.569 143.254 71.812 143.759C71.94 144.026 73.013 144.089 74.074 143.814C75.136 143.54 76.742 143.355 77.324 143.478C77.511 143.518 76.727 143.708 75.799 144.01C74.869 144.31 74.014 144.306 72.716 144.676C72.49 144.741 72.119 145.25 72.626 145.429C73.133 145.607 73.562 145.584 74.606 145.315C75.651 145.045 77.264 144.76 77.694 144.972C77.757 145.004 77.822 145.164 77.805 145.233C77.706 145.636 75.663 145.909 75.152 146.041C74.641 146.173 74.137 146.186 74.117 146.501C74.096 146.816 74.805 147.103 76.192 146.789C77.578 146.476 79.781 146.374 79.838 146.271C79.883 146.19 80.694 143.872 78.482 140.617Z" fill="#F2BEA2"/>
<path fill-rule="evenodd" clip-rule="evenodd" d="M42.654 53.1501C42.654 53.1501 44.897 52.0391 46.139 51.8591C47.38 51.6791 49.63 52.1371 49.63 52.1371L42.654 53.1501Z" fill="#613619"/>
<path fill-rule="evenodd" clip-rule="evenodd" d="M71.484 324.166C70.322 324.013 65.669 320.103 65.007 319.542L65.036 319.471H61.18L61.657 324.531C61.707 324.778 61.924 324.955 62.175 324.955H62.863L63.123 323.115L63.484 323.095L64.45 324.478C64.66 324.778 65.002 324.959 65.37 324.962L72.701 325.022C72.701 325.022 72.735 324.331 71.484 324.166Z" fill="#1E1301"/>
<path fill-rule="evenodd" clip-rule="evenodd" d="M75.332 138.335L69.227 138.173H58.897L75.487 138.403L75.332 138.335Z" fill="#A0B4D8"/>
<path d="M184.674 93.976V102.222C184.674 102.315 184.702 102.39 184.758 102.446C184.814 102.53 184.903 102.572 185.024 102.572H185.388V104H184.478C184.095 104 183.759 103.865 183.47 103.594C183.134 103.286 182.966 102.908 182.966 102.46V93.976H184.674ZM187.632 95.474C187.483 95.222 187.408 94.956 187.408 94.676C187.408 94.2653 187.525 93.9433 187.758 93.71C187.991 93.4767 188.309 93.36 188.71 93.36C188.953 93.36 189.191 93.3973 189.424 93.472V94.214C189.2 94.158 189.027 94.13 188.906 94.13C188.495 94.13 188.29 94.354 188.29 94.802C188.29 94.97 188.337 95.1147 188.43 95.236C188.542 95.3947 188.715 95.474 188.948 95.474H189.886V95.824L189.564 96.23H187.086V95.474H187.632ZM189.508 97.56V102.362V102.572H190.222V104H189.732L189.214 103.426H189.186C188.869 103.809 188.472 104 187.996 104H185.294V102.572H187.408C187.539 102.572 187.632 102.535 187.688 102.46C187.772 102.385 187.814 102.292 187.814 102.18V97.56H189.508ZM194.334 97.56V102.362V102.572H195.048V104H194.558L194.04 103.426H194.012C193.695 103.809 193.298 104 192.822 104H190.12V102.572H192.234C192.365 102.572 192.458 102.535 192.514 102.46C192.598 102.385 192.64 102.292 192.64 102.18V97.56H194.334ZM191.296 105.022C191.548 105.022 191.763 105.111 191.94 105.288C192.117 105.465 192.206 105.68 192.206 105.932C192.206 106.184 192.117 106.399 191.94 106.576C191.763 106.753 191.548 106.842 191.296 106.842C191.044 106.842 190.829 106.753 190.652 106.576C190.475 106.399 190.386 106.184 190.386 105.932C190.386 105.68 190.475 105.465 190.652 105.288C190.829 105.111 191.044 105.022 191.296 105.022ZM193.424 105.022C193.676 105.022 193.891 105.111 194.068 105.288C194.245 105.465 194.334 105.68 194.334 105.932C194.334 106.184 194.245 106.399 194.068 106.576C193.891 106.753 193.676 106.842 193.424 106.842C193.181 106.842 192.971 106.753 192.794 106.576C192.617 106.399 192.528 106.184 192.528 105.932C192.528 105.68 192.617 105.465 192.794 105.288C192.971 105.111 193.181 105.022 193.424 105.022ZM204.284 92.8C204.518 92.8 204.714 92.884 204.872 93.052C205.04 93.2107 205.124 93.4067 205.124 93.64C205.124 93.8733 205.04 94.0693 204.872 94.228C204.714 94.3867 204.518 94.466 204.284 94.466C204.051 94.466 203.855 94.3867 203.696 94.228C203.538 94.0693 203.458 93.8733 203.458 93.64C203.458 93.4067 203.538 93.2107 203.696 93.052C203.855 92.884 204.051 92.8 204.284 92.8ZM203.22 94.48C203.472 94.48 203.687 94.5687 203.864 94.746C204.042 94.9233 204.13 95.138 204.13 95.39C204.13 95.6327 204.042 95.8427 203.864 96.02C203.687 96.1973 203.472 96.286 203.22 96.286C202.978 96.286 202.768 96.1973 202.59 96.02C202.413 95.8427 202.324 95.6327 202.324 95.39C202.324 95.138 202.413 94.9233 202.59 94.746C202.768 94.5687 202.978 94.48 203.22 94.48ZM205.348 94.48C205.6 94.48 205.815 94.5687 205.992 94.746C206.17 94.9233 206.258 95.138 206.258 95.39C206.258 95.6327 206.17 95.8427 205.992 96.02C205.815 96.1973 205.6 96.286 205.348 96.286C205.096 96.286 204.882 96.1973 204.704 96.02C204.527 95.8427 204.438 95.6327 204.438 95.39C204.438 95.138 204.527 94.9233 204.704 94.746C204.882 94.5687 205.096 94.48 205.348 94.48ZM209.8 97.56V102.46C209.8 102.88 209.651 103.244 209.352 103.552C209.063 103.851 208.708 104 208.288 104H205.348L204.83 103.426H204.788C204.48 103.809 204.088 104 203.612 104H200.672L200.14 103.426H200.098C199.79 103.809 199.398 104 198.922 104H194.946V102.572H198.376C198.61 102.572 198.726 102.455 198.726 102.222V99.17H200.434V101.97C200.434 102.241 200.43 102.441 200.42 102.572H203.066C203.3 102.572 203.416 102.455 203.416 102.222V98.358H205.124V102.096C205.124 102.152 205.12 102.236 205.11 102.348C205.11 102.451 205.11 102.525 205.11 102.572H207.742C207.976 102.572 208.092 102.455 208.092 102.222V97.56H209.8ZM214.596 100.024C214.913 99.1093 215.492 98.414 216.332 97.938C216.957 97.5833 217.634 97.406 218.362 97.406C219.09 97.406 219.757 97.602 220.364 97.994C221.129 98.4607 221.671 99.1373 221.988 100.024L221.834 100.416C221.442 100.593 221.045 100.883 220.644 101.284C220.252 101.713 219.995 102.143 219.874 102.572H222.128V104H219.048C218.787 104 218.549 103.879 218.334 103.636H218.264C218.068 103.851 217.793 103.981 217.438 104.028C217.382 104.037 217.331 104.047 217.284 104.056C216.715 104.149 216.318 104.373 216.094 104.728C215.917 104.999 215.828 105.363 215.828 105.82C215.828 107.183 216.729 107.864 218.53 107.864C219.053 107.864 219.599 107.785 220.168 107.626V108.214L219.426 109.124C219.118 109.217 218.689 109.273 218.138 109.292C217.027 109.292 216.113 109.026 215.394 108.494C214.545 107.878 214.12 106.968 214.12 105.764C214.12 104.999 214.302 104.378 214.666 103.902C215.114 103.277 215.809 102.875 216.752 102.698C216.659 102.287 216.43 101.867 216.066 101.438C215.683 100.981 215.245 100.64 214.75 100.416L214.596 100.024ZM220.196 99.912C219.972 99.52 219.669 99.2307 219.286 99.044C218.997 98.904 218.675 98.834 218.32 98.834C217.947 98.834 217.592 98.9133 217.256 99.072C216.883 99.2587 216.593 99.5387 216.388 99.912C216.705 100.052 217.041 100.332 217.396 100.752C217.807 101.191 218.096 101.667 218.264 102.18H218.32C218.497 101.657 218.801 101.158 219.23 100.682C219.575 100.299 219.897 100.043 220.196 99.912ZM226.244 97.56V102.362V102.572H226.958V104H226.468L225.95 103.426H225.922C225.605 103.809 225.208 104 224.732 104H222.03V102.572H224.144C224.275 102.572 224.368 102.535 224.424 102.46C224.508 102.385 224.55 102.292 224.55 102.18V97.56H226.244ZM225.348 105.022C225.591 105.022 225.801 105.111 225.978 105.288C226.156 105.465 226.244 105.68 226.244 105.932C226.244 106.184 226.156 106.399 225.978 106.576C225.801 106.753 225.591 106.842 225.348 106.842C225.096 106.842 224.882 106.753 224.704 106.576C224.527 106.399 224.438 106.184 224.438 105.932C224.438 105.68 224.527 105.465 224.704 105.288C224.882 105.111 225.096 105.022 225.348 105.022ZM231.056 93.976V99.912C232.307 98.2227 233.861 97.378 235.718 97.378C236.829 97.378 237.744 97.7327 238.462 98.442C239.125 99.086 239.456 99.884 239.456 100.836V102.46C239.456 102.899 239.293 103.272 238.966 103.58C238.668 103.86 238.327 104 237.944 104H226.842V102.572H229.362V93.976H231.056ZM237.748 100.92C237.739 100.341 237.548 99.8747 237.174 99.52C236.745 99.072 236.162 98.848 235.424 98.848C234.678 98.848 233.964 99.0953 233.282 99.59C232.405 100.225 231.663 101.219 231.056 102.572H237.398C237.632 102.572 237.748 102.455 237.748 102.222V100.92ZM242.903 93.976V103.65L242.035 104.35H241.195V93.976H242.903ZM240.943 107.458C240.784 107.225 240.705 106.959 240.705 106.66C240.705 106.259 240.821 105.937 241.055 105.694C241.297 105.451 241.619 105.33 242.021 105.33C242.235 105.33 242.473 105.372 242.735 105.456V106.198C242.548 106.142 242.375 106.114 242.217 106.114C241.806 106.114 241.601 106.338 241.601 106.786C241.601 106.973 241.647 107.122 241.741 107.234C241.853 107.383 242.021 107.458 242.245 107.458H243.183V107.808L242.861 108.214H240.383V107.458H240.943Z" fill="#FD5C7A"/>
</g>
<defs>
<clipPath id="clip0_389_1065">
<rect width="253" height="335" fill="white"/>
</clipPath>
</defs>
</svg>
