<?xml version="1.0" encoding="UTF-8"?>
<svg width="248px" height="335px" viewBox="0 0 248 335" version="1.1" xmlns="http://www.w3.org/2000/svg" xmlns:xlink="http://www.w3.org/1999/xlink">
    <!-- Generator: sketchtool 62 (101010) - https://sketch.com -->
    <title>3863B2FA-3DE0-40C5-806C-FBF8720EBCE9</title>
    <desc>Created with sketchtool.</desc>
    <defs>
        <polygon id="path-1" points="0 0.0994012075 63.0916125 0.0994012075 63.0916125 86.0700653 0 86.0700653"></polygon>
    </defs>
    <g id="Asset-Artboard-Page" stroke="none" stroke-width="1" fill="none" fill-rule="evenodd">
        <g id="images/img-no-search-results-images/img-post-placeholder" transform="translate(0.017045, 0.000000)">
            <g id="Group" transform="translate(120.356364, 117.812081)">
                <path d="M54.8821478,182.986471 C55.0796862,182.986471 61.3221024,183.447815 61.2624872,183.843396 C61.2028721,184.239483 60.2808577,184.568797 58.6348726,184.568797 L53.3018405,184.568797 L54.8821478,182.986471 Z" id="Fill-1" fill="#3B2B20"></path>
                <path d="M17.355252,183.777885 C16.8944974,184.107199 14.7215746,185.558002 15.3141899,185.887316 C15.9068052,186.216629 18.2105782,186.480688 18.5404825,186.480688 C18.8693764,186.480688 18.5778683,185.338459 18.5404825,185.359705 C18.5025915,185.380951 17.355252,183.777885 17.355252,183.777885" id="Fill-3" fill="#3B2B20"></path>
                <path d="M4.77523722,107.841278 C4.77523722,107.841278 3.6319394,108.694662 3.22019052,108.929886 C2.59877809,109.285504 0.912881134,109.808056 0.344010899,110.176321 C-0.353183529,110.628053 0.157081958,110.890594 0.578429895,110.858219 C1.86217702,110.759576 2.36132782,110.498047 2.18349272,110.858219 C1.77578554,111.684792 -0.136952213,114.068903 0.269744536,114.524176 C0.752223288,115.064939 1.85965096,113.568609 2.48358945,112.743554 C2.5118814,112.706626 2.58816861,112.735966 2.56644444,112.777446 C2.13044532,113.614642 1.03918447,115.641111 1.47973052,116.010388 C2.24310789,116.651311 3.36417632,112.965625 3.66376784,113.103725 C3.95325509,113.237272 2.66597147,116.214249 3.52432896,116.324021 C4.24931012,116.416593 4.89901449,113.066797 5.09655291,113.33035 C5.29409133,113.593902 4.44230162,115.417522 5.31884679,115.505541 C5.81749237,115.556127 7.64788034,108.353207 7.9110965,108.287445 C8.17481787,108.221684 8.39610132,107.841278 8.39610132,107.841278 L4.77523722,107.841278 Z" id="Fill-5" fill="#F2BEA2"></path>
                <path d="M53.5100888,108.835691 C53.5100888,108.835691 54.6533866,109.689075 55.0646303,109.924299 C55.686548,110.279918 57.3724449,110.802975 57.9413152,111.17124 C58.6385096,111.622466 58.1282441,111.885007 57.7068962,111.853138 C56.423149,111.753989 55.9239982,111.49246 56.1018333,111.853138 C56.5095405,112.679205 58.4222783,115.063316 58.0155816,115.519095 C57.5331028,116.059351 56.4256751,114.563022 55.8017366,113.737967 C55.7734447,113.701039 55.6971574,113.730379 55.7188816,113.771859 C56.1548807,114.609055 57.2461416,116.63603 56.8050903,117.004801 C56.0422182,117.645724 54.9211497,113.960544 54.6215582,114.098138 C54.3320709,114.231685 55.6193546,117.208662 54.7604919,117.318939 C54.0360159,117.411511 53.3863115,114.06121 53.1882679,114.325268 C52.9912347,114.588315 53.8425192,116.411935 52.9664792,116.499954 C52.4678336,116.55054 50.6369404,109.348126 50.3742294,109.281859 C50.1105081,109.216097 49.8887194,108.835691 49.8887194,108.835691 L53.5100888,108.835691 Z" id="Fill-7" fill="#F2BEA2"></path>
                <path d="M45.0171506,32.0415584 C45.0171506,40.5460522 46.8495596,67.4359745 42.0242666,76.7048206 C38.9076052,82.6911505 29.6854401,72.1768808 26.5697892,75.3207916 C3.53963715,98.5574036 4.19793019,46.03917 4.19793019,32.0415584 C4.19793019,18.0439467 13.3357246,6.69652799 24.6080456,6.69652799 C35.8793562,6.69652799 45.0171506,18.0439467 45.0171506,32.0415584" id="Fill-9" fill="#191B46"></path>
                <path d="M14.1054172,58.1446174 L0.429796149,108.252436 L8.19846235,110.324433 C8.19846235,110.324433 20.3943134,67.4357214 19.8800062,66.6450645 C19.3646886,65.8539017 14.1054172,58.1446174 14.1054172,58.1446174" id="Fill-11" fill="#D8E1F1"></path>
                <path d="M44.3205116,66.5713114 C49.5631108,83.6910823 56.5613266,109.39072 56.5613266,109.39072 L48.5622831,111.25835 L44.8919079,87.0479596 L50.6200172,129.369603 L56.8609181,183.743833 C56.8609181,183.743833 32.1999374,190.040254 16.267023,184.568888 C8.49178911,181.898461 6.36029386,179.618557 6.36029386,179.618557 L10.9617773,80.0752054 C10.9617773,80.0752054 11.5089234,63.035866 14.105215,58.1447197 C17.7856944,51.2119283 35.7303685,38.5194314 44.3205116,66.5713114" id="Fill-13" fill="#D8E1F1"></path>
                <path d="M28.827637,51.1811723 L25.865066,51.3804806 C25.865066,51.3804806 30.5867899,119.547452 30.9298298,128.631154 C32.4313239,168.363816 33.501871,186.803878 33.501871,186.803878 L35.6091158,186.803878 C35.6091158,186.803878 34.1657213,141.518407 33.1401382,127.237514 C32.2449001,114.777206 28.827637,51.1811723 28.827637,51.1811723" id="Fill-15" fill="#A0B4D8"></path>
                <path d="M49.8887207,27.4947505 C49.8887207,38.1800006 39.6606758,46.8423224 27.0434769,46.8423224 C14.4267832,46.8423224 4.19823311,38.1800006 4.19823311,27.4947505 C4.19823311,16.8089946 14.4267832,8.14667279 27.0434769,8.14667279 C39.6606758,8.14667279 49.8887207,16.8089946 49.8887207,27.4947505" id="Fill-17" fill="#F2BEA2"></path>
                <path d="M51.4152206,19.7035673 C49.4989463,10.7149668 40.2681931,-1.24302336 21.3070307,0.104583799 C7.7405365,1.06875019 3.63769884,13.3327847 1.61027765,21.6723687 C-3.03212787,40.7720698 9.03994524,76.7047198 9.03994524,76.7047198 C9.03994524,76.7047198 6.83216288,46.7583998 6.36029361,32.8998991 C6.18650022,27.7821282 9.12431587,16.528799 16.5140716,13.5695265 C19.0805555,12.5411161 23.2288623,14.7380598 27.6363436,14.8048331 C35.9188114,14.9307919 44.9510157,13.8158797 44.9510157,13.8158797 L51.4152206,19.7035673 Z" id="Fill-19" fill="#191B46"></path>
                <path d="M12.8162129,19.9777427 C12.8162129,19.9777427 17.9304881,19.7217782 20.3651114,20.2853047 C20.6106451,20.3424667 20.8334442,20.3763592 21.0340139,20.3940643 C21.7054425,20.4542614 22.2702711,19.8983229 22.2384427,19.2240134 C22.2384427,19.2240134 16.0425057,17.8905702 12.8162129,19.9777427" id="Fill-21" fill="#000000"></path>
                <path d="M11.2181728,23.5056511 C11.2181728,23.5056511 18.9646096,22.1545029 20.5039948,23.7196293 C22.5516246,25.8017432 20.2397682,31.6803258 17.5277827,31.8806458 C14.7551717,32.0845068 12.8161627,31.672232 11.1226874,29.833942 C9.97534784,28.589024 11.2181728,23.5056511 11.2181728,23.5056511" id="Fill-23" fill="#FFFFFF"></path>
                <path d="M12.6780878,22.7621909 C21.6865473,21.0817288 17.5554177,28.0772468 16.5879341,28.6933825 C16.3671558,28.8335053 11.0411965,29.8335877 10.9189349,25.801895 C10.8739709,24.3288349 10.9603624,23.0829052 12.6780878,22.7621909" id="Fill-25" fill="#000000"></path>
                <path d="M10.3478927,22.9454641 C13.1487956,22.2853186 16.8328116,22.1173736 20.0146454,23.1645008 C21.1432921,23.535801 21.6525472,25.1909703 21.4585453,25.0113905 C18.9759267,22.709734 10.7555999,24.1944289 10.7555999,24.1944289 L10.3478927,22.9454641 Z" id="Fill-27" fill="#000000"></path>
                <path d="M18.6942698,25.2489921 C18.6139409,25.4432418 18.2916147,25.4938276 17.9748459,25.3628103 C17.6575719,25.2317929 17.4655909,24.9672289 17.546425,24.773485 C17.6267539,24.5792353 17.9485749,24.5281436 18.2653436,24.6596669 C18.5826176,24.7911901 18.7745987,25.0547424 18.6942698,25.2489921" id="Fill-29" fill="#FFFFFF"></path>
                <path d="M40.675498,25.5043992 C40.675498,25.5043992 35.9335652,23.5689843 33.449431,23.2948089 C33.1993503,23.2669867 32.9780669,23.2250005 32.7830545,23.1754263 C32.1293084,23.0100106 31.7802059,22.2982675 32.0328126,21.6725205 C32.0328126,21.6725205 38.3206984,22.4662126 40.675498,25.5043992" id="Fill-31" fill="#000000"></path>
                <path d="M41.0173769,29.3630389 C41.0173769,29.3630389 34.1535479,25.522055 32.1842262,26.4892565 C29.5641896,27.7761606 29.8031555,34.0892752 32.2958783,35.1758594 C34.845185,36.2872306 36.8114755,36.5401598 39.0167319,35.3670739 C40.5111531,34.5718643 41.0173769,29.3630389 41.0173769,29.3630389" id="Fill-33" fill="#FFFFFF"></path>
                <path d="M37.0220484,27.8815298 C29.075547,23.3116036 30.3320127,31.1053664 30.8710754,32.1180952 C31.1347968,32.612319 36.2298738,35.0976021 37.6778154,31.3330027 C38.2067738,29.9575733 38.5366781,28.7531241 37.0220484,27.8815298" id="Fill-35" fill="#000000"></path>
                <path d="M42.0243666,29.122957 C39.5988371,27.5725006 36.1780374,26.1935302 32.8294831,26.1272628 C31.6412212,26.1039933 30.6136172,27.4971277 30.8566249,27.3919091 C33.9596454,26.0422785 41.2266346,30.1665432 41.2266346,30.1665432 L42.0243666,29.122957 Z" id="Fill-37" fill="#000000"></path>
                <path d="M37.1517853,29.9321278 C37.1629,30.1415533 37.4503664,30.2968518 37.7929011,30.2776292 C38.1349306,30.2589125 38.4037041,30.0727565 38.3920842,29.8633311 C38.3804643,29.6533997 38.0929979,29.498607 37.7509684,29.5178296 C37.4084337,29.5365464 37.1401654,29.7221965 37.1517853,29.9321278" id="Fill-39" fill="#FFFFFF"></path>
                <path d="M24.2989554,39.1245417 C24.3873677,38.7618411 24.1004065,38.4122928 23.7275591,38.4036932 C23.0798755,38.3890233 22.1209806,38.5068884 22.053282,39.3228382 C22.0209483,39.7052673 22.0446933,40.0229465 22.093699,40.278911 C22.1831218,40.7483477 23.400686,40.9001053 23.7826273,40.6127776 C24.2474236,40.2632293 24.1367819,39.7912633 24.2989554,39.1245417" id="Fill-41" fill="#BC7450"></path>
                <path d="M52.2460468,18.8042529 C51.1446816,8.69517488 26.5700923,11.0944622 26.5700923,11.0944622 C26.5700923,11.0944622 39.714734,14.0163013 39.9597625,14.3840605 C40.2042858,14.7513139 45.9834217,24.3686973 44.0383502,34.1980355 C41.516325,46.9441543 43.4861519,62.8119264 43.4861519,62.8119264 C43.4861519,62.8119264 44.6713825,69.4862246 45.9066292,71.8268322 C46.0263648,72.0544686 44.1414137,64.0806197 47.6834647,51.4432605 C48.486754,48.5785833 53.3479171,28.9133308 52.2460468,18.8042529" id="Fill-43" fill="#1C1E51"></path>
                <path d="M21.3185001,34.2650594 C21.1593579,34.8275741 22.7709884,35.5818092 23.3085354,35.5519636 C24.6736219,35.4760848 25.3637433,34.3009754 24.9807916,34.3884889 C23.3615828,34.7597891 21.3185001,34.2650594 21.3185001,34.2650594" id="Fill-45" fill="#BC7450"></path>
                <path d="M24.3305318,45.7876589 C24.0693365,47.1018795 23.1766244,49.7460023 23.1766244,50.0990916 C23.1766244,51.0678107 24.8837405,51.8523974 26.9889647,51.8523974 C29.0876212,51.8523974 30.7881695,51.0718576 30.7992842,50.1076912 C30.8649619,50.1056677 30.9099259,50.1041502 30.9099259,50.1041502 C30.9099259,50.1041502 30.1627153,47.7311676 29.6433559,45.7876589 L24.3305318,45.7876589 Z" id="Fill-47" fill="#F2BEA2"></path>
            </g>
            <path d="M78.4822192,140.617399 C78.4069424,140.542026 76.5427051,139.525251 76.3350624,139.506028 C76.1279249,139.487311 75.8823912,140.242558 75.8823912,140.242558 L78.202331,140.507122 L78.4822192,140.617399 Z" id="Fill-49" fill="#F2BEA2"></path>
            <path d="M54.6247258,70.1318768 C54.6247258,70.1318768 57.5989168,72.8872883 58.4062478,75.6558521 C59.214084,78.4249218 56.5010882,94.8602659 56.5010882,94.8602659 L50.0914462,76.285646 L54.6247258,70.1318768 Z" id="Fill-51" fill="#A0B4D8"></path>
            <path d="M44.9995039,65.484304 C44.9995039,65.484304 51.1358254,111.081888 55.7736841,125.637462 C56.5820255,128.174342 61.5573667,141.808748 61.5573667,141.808748 L66.165923,139.612816 C66.165923,139.612816 60.0477891,123.120815 58.7266562,118.65712 C54.5394478,104.51382 47.4684816,60.7383391 47.4684816,60.7383391 L44.9995039,65.484304 Z" id="Fill-53" fill="#A0B4D8"></path>
            <path d="M44.1454933,286.167826 C44.1454933,286.167826 41.4208777,294.434061 39.5344111,301.947578 C37.6484496,309.461601 40.9060653,322.322044 40.9060653,322.322044 C40.9060653,322.322044 43.0335187,324.421357 43.8130629,322.428274 C44.3960792,320.937509 44.194499,314.357806 45.0700338,312.93685 C46.0198349,311.396005 49.2183406,307.782657 49.2183406,307.782657 L44.1454933,286.167826 Z" id="Fill-55" fill="#F2BEA2"></path>
            <path d="M53.5451894,282.892088 C53.5451894,283.521376 54.1448777,304.228696 58.7731372,313.001295 C61.8549387,318.84295 61.1804789,319.47072 61.1804789,319.47072 C61.1804789,319.47072 65.3065563,324.182287 64.8877345,318.152959 C64.3754481,310.783106 64.9973658,306.181816 64.9973658,303.217991 C64.9973658,298.754801 66.3301186,288.347772 66.3301186,288.347772 L53.5451894,282.892088 Z" id="Fill-57" fill="#F2BEA2"></path>
            <g id="Group-61" transform="translate(-1.796364, 63.844829)">
                <mask id="mask-2" fill="white">
                    <use xlink:href="#path-1"></use>
                </mask>
                <g id="Clip-60"></g>
                <path d="M18.8630002,13.8450962 C15.7190573,18.5667801 -0.000151564016,73.7665732 -0.000151564016,73.7665732 L32.7917329,86.0700653 C32.7917329,86.0700653 35.6113287,80.9320598 34.6675901,80.3027717 C33.7243568,79.6729778 10.9665151,68.7565499 10.9665151,68.7565499 L24.1798657,32.4748556 C24.67548,31.0538989 29.223916,39.5932974 29.562409,44.1682823 C32.1248512,78.8125124 31.436364,78.6987984 31.436364,78.6987984 C31.436364,78.6987984 64.2003431,78.6900946 63.0666443,77.7456567 C61.9329455,76.8012187 56.4402657,84.2560565 57.9170044,49.5814749 C58.0887769,45.5462411 61.4110601,39.4056239 62.1491768,35.8039109 C63.7102861,28.1902335 61.2312041,30.1474003 60.2142096,12.7974631 C59.9105764,7.62151816 56.1563358,11.8206502 54.7538634,8.40559894 C54.395162,7.53198119 33.2034818,0.0994012075 33.2034818,0.0994012075 C33.2034818,0.0994012075 22.006943,9.12341225 18.8630002,13.8450962 Z" id="Fill-59" fill="#D8E1F1" mask="url(#mask-2)"></path>
            </g>
            <path d="M52.4469585,82.936925 C52.5368865,77.7002769 50.5685752,79.2795674 50.5685752,79.2795674 L48.1637597,76.4604175 C48.8533759,79.0903763 43.9836244,69.3571512 45.5310929,82.3273654 C45.5321033,82.3400118 51.801801,107.113424 51.801801,107.113424 C51.801801,107.113424 52.277712,92.7875092 52.4469585,82.936925" id="Fill-62" fill="#FFFFFF"></path>
            <path d="M29.7877308,141.35928 C29.7877308,141.35928 30.2697044,141.721475 27.5056821,163.755156 C21.5941807,210.884986 34.7256861,315.353378 34.7256861,315.353378 C34.7256861,315.353378 41.5566758,319.746759 69.9986718,317.175986 C72.7333916,316.928116 66.2105821,140.241838 66.2105821,140.241838 L29.7877308,141.35928 Z" id="Fill-64" fill="#D8E1F1"></path>
            <path d="M29.29953,149.288591 L54.0236625,154.801943 C54.0236625,154.801943 55.5913397,156.019544 54.2085706,155.320448 C52.8258016,154.621351 29.1909091,150.305366 29.1909091,150.305366 L29.29953,149.288591 Z" id="Fill-66" fill="#A0B4D8"></path>
            <path d="M38.9191608,138.173091 C32.1250514,149.015663 38.1749815,195.128211 38.7155598,200.55658 C39.0575893,203.995406 42.6683493,206.516605 46.112894,206.302121 L58.5007259,203.292263 L48.9875581,138.866117 L38.9191608,138.173091 Z" id="Fill-68" fill="#A0B4D8"></path>
            <path d="M37.2745455,144.791946 L40.8672727,141.194631 C40.8672727,141.194631 40.7595536,143.239443 40.7590484,143.239443 C40.7585432,143.239443 40.1366255,144.453504 40.1366255,144.453504 L37.2745455,144.791946 Z" id="Fill-70" fill="#F2BEA2"></path>
            <path d="M38.9191621,138.173091 C38.9191621,138.173091 40.1917945,138.778604 40.5707046,141.508723 C41.2729511,146.571861 41.8979001,161.682868 46.7509797,213.114521 C48.9148086,236.044079 51.3625674,264.13744 57.3816794,304.481179 C59.0200864,315.463875 76.2670604,327.149714 87.034673,324.491933 L90.9243107,323.532319 C95.5869249,322.381491 100.899749,333.618127 100.899749,333.618127 L130.310745,324.220287 C130.310745,324.220287 129.109853,318.201075 123.695986,313.973615 C120.083206,311.153454 112.112454,308.123361 104.240219,309.587316 C99.86103,310.402254 89.771919,306.036694 87.0068862,251.651839 C85.7120244,226.187424 82.820183,163.61019 79.351388,148.418751 C76.8116804,137.29745 75.0666734,138.335472 75.0666734,138.335472" id="Fill-72" fill="#FFFFFF"></path>
            <path d="M40.0210324,139.516652 C40.2690921,140.050332 40.4272239,140.621447 40.5297822,141.200149 C40.7086277,142.362106 40.8223007,143.532157 40.929406,144.702208 C41.142606,147.042309 41.3275141,149.38494 41.5159587,151.727065 L42.662793,165.778299 C43.4509258,175.143764 44.2875591,184.504677 45.161073,193.862554 L47.8048545,221.933657 C48.6935248,231.289511 49.6109922,240.64233 50.633544,249.983514 C51.6480124,259.32571 52.7620079,268.656271 53.9805825,277.97368 C54.5898698,282.632132 55.2208813,287.288054 55.8791742,291.940435 L56.8820227,298.915719 L57.3968352,302.40159 L57.6539887,304.144779 C57.7388646,304.725504 57.8378864,305.278914 57.9939973,305.834852 C58.5931804,308.056077 59.7410251,310.112392 61.1167211,311.970916 C62.5015109,313.83197 64.1378969,315.504338 65.911701,317.005221 C69.4739603,319.984222 73.6015534,322.350122 78.052483,323.652202 C80.2739061,324.288066 82.5928354,324.643179 84.8799362,324.468658 C85.4503221,324.421613 86.0161611,324.341687 86.5734114,324.223822 C87.1235887,324.104946 87.7066049,323.947624 88.2724439,323.811548 L89.9805702,323.387638 L90.834886,323.175683 C91.1562017,323.095758 91.4916634,323.06743 91.8190416,323.087664 C92.4778398,323.128133 93.091674,323.354252 93.6393253,323.648155 C94.1895026,323.943577 94.6820857,324.313359 95.1413246,324.709447 C96.056266,325.508703 96.8383362,326.421778 97.5577601,327.369757 C98.9885243,329.278867 100.190427,331.317477 101.246828,333.453212 L100.782537,333.25188 L130.198079,323.866686 L129.947493,324.293125 C128.906248,320.149638 126.361489,316.270714 122.843688,313.790995 C121.065842,312.570359 119.061661,311.661331 117.002412,310.971846 C114.93912,310.283372 112.79449,309.831641 110.629145,309.641944 C108.458243,309.457305 106.288352,309.535207 104.129575,309.943435 C102.961522,310.126556 101.750526,309.859969 100.735047,309.311618 C99.7109794,308.765797 98.8526219,307.98728 98.1160208,307.134909 C96.6448395,305.414989 95.5950062,303.418366 94.701789,301.387344 C93.8141291,299.348228 93.1098617,297.241833 92.4879441,295.117733 C91.2597704,290.861945 90.3948452,286.519149 89.6809787,282.161177 C88.97368,277.800677 88.4396695,273.415895 88.0036704,269.023525 C87.567166,264.630649 87.2367565,260.22968 86.975056,255.824663 C86.7173972,251.419141 86.5239005,247.015136 86.302617,242.610626 C85.4462804,224.993596 84.531339,207.380107 83.3986507,189.780276 C82.8267492,180.980866 82.2093785,172.182468 81.353547,163.40734 C80.9089593,159.022558 80.4507308,154.633223 79.6853326,150.292451 C79.2867192,148.126364 78.7623078,145.98203 78.1454423,143.867035 C77.8296839,142.811814 77.4836128,141.764181 77.0521606,140.750441 C76.8339084,140.244582 76.5939321,139.746817 76.297877,139.282439 C76.1488391,139.051262 75.9861604,138.827166 75.7896324,138.634434 C75.6011878,138.454854 75.3430238,138.246947 75.0666721,138.335472 C75.3425186,138.244923 75.6037139,138.451313 75.7936741,138.630387 C75.992223,138.822614 76.1564173,139.046203 76.3074761,139.276369 C76.6070676,139.739735 76.8500752,140.236994 77.0718639,140.741335 C77.5108943,141.753558 77.8640384,142.800179 78.187375,143.854389 C78.8193969,145.96736 79.3574491,148.108659 79.7712188,150.276263 C80.5664246,154.617541 81.0539555,159.005358 81.5278456,163.389635 C82.4412714,172.16274 83.1177521,180.958608 83.7477531,189.7565 C84.9799685,207.353802 85.8923838,224.970832 86.8017678,242.585333 C87.0326503,246.988832 87.2372617,251.39486 87.5040144,255.792794 C87.7753139,260.191234 88.1158277,264.585122 88.5614259,268.967374 C89.0060137,273.349627 89.549118,277.722269 90.2634897,282.06557 C90.9844292,286.405837 91.855417,290.72688 93.0840958,294.943211 C93.7039926,297.047583 94.4072496,299.130203 95.2837948,301.132897 C96.1648869,303.125979 97.2020899,305.074547 98.6070882,306.707458 C99.3088295,307.517338 100.116666,308.239198 101.042722,308.729375 C101.962715,309.221575 103.014064,309.444153 104.030048,309.284302 C106.20095,308.867474 108.471379,308.775914 110.687245,308.963081 C112.909173,309.152273 115.105335,309.610075 117.221169,310.310183 C119.334476,311.013832 121.386653,311.935 123.247859,313.205717 C125.095929,314.500209 126.670679,316.149308 127.924619,318.012385 C129.167949,319.887603 130.135938,321.920648 130.67399,324.147438 L130.752298,324.468152 L130.423404,324.573371 L101.016451,333.984869 L100.701198,334.085535 L100.55216,333.782526 C99.5321338,331.706988 98.341346,329.677484 96.9575666,327.824524 C96.2613826,326.902343 95.5070991,326.021644 94.6527833,325.272467 C93.8065509,324.537961 92.8173432,323.897544 91.7735724,323.824194 C91.5154084,323.807501 91.2592652,323.829253 91.0107002,323.889956 L90.1558793,324.099887 L88.4467425,324.51975 C87.8713045,324.656837 87.3206219,324.805054 86.723965,324.933542 C86.1328653,325.057477 85.5351979,325.140438 84.9355097,325.187989 C82.5322098,325.365545 80.1380037,324.988175 77.8569654,324.330559 C73.2908472,322.981434 69.1026285,320.564947 65.4772175,317.520691 C63.6725954,315.985916 62.0053913,314.276114 60.5892783,312.363463 C59.1822591,310.451317 57.9985443,308.329746 57.3746058,306.001785 C57.2139479,305.425613 57.1068427,304.8201 57.0239877,304.238362 L56.7703706,302.494162 L56.2631364,299.005762 L55.2759495,292.024913 C54.6277608,287.369497 54.0063484,282.71054 53.408681,278.048041 C52.2108201,268.724056 51.1170332,259.386413 50.1227733,250.039159 C49.1214405,240.691904 48.2246868,231.334533 47.3567302,221.975644 C46.4938258,212.616754 45.6076816,203.259383 44.7942881,193.895435 C43.981905,184.531487 43.2064026,175.163998 42.480411,165.793474 L41.4255255,151.734147 C41.2527425,149.391011 41.0829908,147.046862 40.8854524,144.706254 C40.7854202,143.536204 40.6803358,142.365141 40.5090685,141.20369 C40.4105519,140.625999 40.2559566,140.054885 40.0114333,139.521204 C39.7578162,138.999158 39.425891,138.480653 38.9191621,138.173091 C39.4279119,138.477618 39.7638788,138.995111 40.0210324,139.516652 Z" id="Fill-74" fill="#D8E1F1"></path>
            <path d="M18.3973443,11.6651999 C18.3973443,11.6651999 15.0755664,31.6218266 16.3754804,47.3848857 C17.6748892,63.1474389 28.050456,79.7249303 38.5942588,82.6169238 C49.1375564,85.5094232 57.4670091,81.1413344 61.4950753,75.7589991 C71.4038249,62.5186567 74.0339657,19.5444531 65.6570229,9.7105624 C60.2689224,3.3848009 51.9915067,-0.257380847 37.7535838,0.641529843 C31.4278073,1.04065226 20.989594,4.378813 18.3973443,11.6651999" id="Fill-76" fill="#191B46"></path>
            <path d="M37.1361135,20.9166451 C35.2173131,21.0982483 26.0729508,21.2419121 26.7943955,37.1491405 C27.5168506,53.0568747 39.9046829,65.154988 52.9038234,57.2013739 C65.9019534,49.2472538 63.123785,29.5749202 58.2388767,23.7013964 C55.6486477,20.5883429 48.4751228,19.8427073 37.1361135,20.9166451" id="Fill-78" fill="#F2BEA2"></path>
            <path d="M32.5306996,144.342282 C32.5306996,144.342282 39.2944962,144.342282 42.1898741,144.661984 C43.4958507,144.806154 44.6765343,150.315965 41.9468665,151.013544 C37.6096096,152.122386 31.4363636,149.738255 31.4363636,149.738255 L32.5306996,144.342282 Z" id="Fill-80" fill="#F2BEA2"></path>
            <polygon id="Fill-113" fill="#A0B4D8" points="32.3862085 143.892617 30.9872727 150.415663 31.4182197 150.640771 33.0455119 144.208273"></polygon>
            <polygon id="Fill-123" fill="#A0B4D8" points="29.1909091 149.288591 31.4136054 150.240357 31.6641913 150.414878 31.5833571 150.735592 29.1909091 149.738255"></polygon>
            <polygon id="Fill-129" fill="#A0B4D8" points="33.2327273 144.342282 29.64 142.543624 32.7836364 144.791946"></polygon>
            <path d="M42.4240796,46.2093188 C42.145707,47.1901786 44.9567142,48.5054109 45.8948954,48.4533075 C48.2749556,48.3207725 49.4783739,46.2715394 48.810987,46.4248146 C45.9873495,47.0713019 42.4240796,46.2093188 42.4240796,46.2093188" id="Fill-82" fill="#D29473"></path>
            <path d="M30.2876411,30.1547345 C30.2876411,30.1547345 35.6833198,29.6716395 38.2801165,30.1663692 C38.5413118,30.2164492 38.7787621,30.2432597 38.9909517,30.2538828 C39.7033025,30.2892929 40.2772249,29.6782157 40.2160941,28.9664727 C40.2160941,28.9664727 33.6114398,27.8146327 30.2876411,30.1547345" id="Fill-84" fill="#613619"></path>
            <path d="M29.0319868,32.3542584 C29.0319868,32.3542584 38.4698778,30.9990633 40.2204421,32.9693824 C41.5163144,34.4272668 39.1564627,39.8318596 37.5913117,41.0879064 C36.4576129,41.9984518 34.8333519,41.4890523 33.7097574,41.2563573 C28.1645355,40.1100818 29.0319868,32.3542584 29.0319868,32.3542584" id="Fill-86" fill="#FFFFFF"></path>
            <path d="M32.7056434,34.6348213 C40.9290015,32.9386776 38.5519726,40.987393 37.2252823,41.3536346 C36.0673332,41.6733372 31.1718156,41.8802334 30.8924326,38.0857884 C30.7625927,36.3208479 30.6514458,35.0587308 32.7056434,34.6348213" id="Fill-88" fill="#2B1E1C"></path>
            <path d="M27.7369214,31.741209 C27.8864645,31.7093399 36.1002233,30.9161536 40.6683625,32.306253 C40.9714905,32.3983193 40.9042971,33.6305908 40.5920753,33.572417 C34.7134126,32.4741981 26.5552273,32.9552696 26.5552273,32.9552696 L27.7369214,31.741209 Z" id="Fill-90" fill="#2B1E1C"></path>
            <path d="M32.1190414,37.3767768 C32.0427542,37.5851905 31.7042613,37.6524697 31.3637475,37.5270168 C31.0227284,37.401058 30.8090232,37.1304237 30.8863208,36.9215041 C30.9631133,36.7130904 31.301101,36.6458112 31.6416148,36.7712641 C31.9821286,36.8972229 32.1958338,37.1678572 32.1190414,37.3767768" id="Fill-92" fill="#FFFFFF"></path>
            <path d="M58.7828391,30.1547345 C58.7828391,30.1547345 53.3871604,29.6716395 50.7903638,30.1663692 C50.5286633,30.2164492 50.2917182,30.2432597 50.0790234,30.2538828 C49.3666725,30.2892929 48.7932554,29.6782157 48.8543862,28.9664727 C48.8543862,28.9664727 55.4590404,27.8146327 58.7828391,30.1547345" id="Fill-94" fill="#613619"></path>
            <path d="M60.038495,32.3542584 C60.038495,32.3542584 50.600604,30.9990633 48.8500397,32.9693824 C47.5541674,34.4272668 49.914019,39.8318596 51.4786649,41.0879064 C52.6128689,41.9984518 54.2371299,41.4890523 55.3607244,41.2563573 C60.9059464,40.1100818 60.038495,32.3542584 60.038495,32.3542584" id="Fill-96" fill="#FFFFFF"></path>
            <path d="M56.3648385,34.6348213 C48.1414803,32.9386776 50.5185093,40.987393 51.8451996,41.3536346 C53.0031487,41.6733372 57.8986663,41.8802334 58.1780493,38.0857884 C58.3078892,36.3208479 58.4190361,35.0587308 56.3648385,34.6348213" id="Fill-98" fill="#2B1E1C"></path>
            <path d="M61.3336102,31.741209 C61.184067,31.7093399 52.9703082,30.9161536 48.4021691,32.306253 C48.099041,32.3983193 48.1662344,33.6305908 48.4784563,33.572417 C54.3571189,32.4741981 62.5153042,32.9552696 62.5153042,32.9552696 L61.3336102,31.741209 Z" id="Fill-100" fill="#2B1E1C"></path>
            <path d="M56.9514405,37.3767768 C57.0277277,37.5851905 57.3662207,37.6524697 57.7067345,37.5270168 C58.0472483,37.401058 58.2614587,37.1304237 58.1841611,36.9215041 C58.1073687,36.7130904 57.7693809,36.6458112 57.4283619,36.7712641 C57.0883533,36.8972229 56.8746481,37.1678572 56.9514405,37.3767768" id="Fill-102" fill="#FFFFFF"></path>
            <path d="M178.971194,120.800683 L164.816364,122.308725 C164.816364,122.308725 174.163677,116.444842 174.163677,115.942161 C174.163677,115.438755 170.76722,91.5392965 171.893779,86.7888548 C173.506963,79.9841681 180.352507,78.1787246 182.896227,77.847231 C189.734906,76.9550271 204.634166,74.8137377 219.89725,75.7958874 C240.72906,77.1363693 242.919634,77.8951053 243.334561,78.2440078 C246.068965,80.5427022 251.863461,117.403054 238.794765,119.12508 C232.823315,119.912106 186.322431,123.70506 178.971194,120.800683" id="Fill-104" fill="#FFDDE3"></path>
            <path d="M200.428507,96.2281888 L200.428507,89.5713666 L202.851301,89.5713666 L202.851301,88.3795003 L196.5972,88.3795003 L196.5972,89.5713666 L199.019994,89.5713666 L199.019994,96.2281888 L200.428507,96.2281888 Z M204.129679,98.5199442 C204.665526,98.5199442 205.103135,98.3813403 205.442504,98.1041324 C205.781874,97.8269245 206.033212,97.457101 206.196518,96.9946621 L206.196518,96.9946621 L208.569555,90.3416724 L207.095976,90.3416724 L205.73722,94.7872185 L205.675981,94.7872185 L204.321053,90.3416724 L202.851301,90.3416724 L204.983207,96.3508244 L204.845418,96.7263964 C204.715283,97.0508701 204.547512,97.241211 204.342104,97.2974191 C204.136696,97.3536271 203.882169,97.3382977 203.578522,97.2514307 L203.578522,97.2514307 L203.257014,98.3628172 C203.336115,98.396031 203.450939,98.4305223 203.601487,98.4662911 C203.752034,98.5020599 203.928098,98.5199442 204.129679,98.5199442 Z M210.911972,98.435632 L210.911972,95.3007556 L210.969384,95.3007556 C211.043382,95.4438306 211.147362,95.5952091 211.281324,95.7548911 C211.415286,95.9145731 211.593264,96.0506221 211.815257,96.1630382 C212.037251,96.2754543 212.316657,96.3316624 212.653475,96.3316624 C213.115325,96.3316624 213.528692,96.212859 213.893579,95.9752522 C214.258465,95.7376455 214.546802,95.3927324 214.758589,94.9405131 C214.970376,94.4882937 215.07627,93.9389878 215.07627,93.2925952 C215.07627,92.6385379 214.968463,92.086677 214.752848,91.6370126 C214.537233,91.1873481 214.246345,90.8462675 213.880183,90.6137705 C213.51402,90.3812736 213.103842,90.2650251 212.649648,90.2650251 C212.305175,90.2650251 212.021303,90.3231493 211.798034,90.4393978 C211.574764,90.5556463 211.3987,90.694889 211.269842,90.8571258 C211.140983,91.0193627 211.040831,91.1720187 210.969384,91.3150937 L210.969384,91.3150937 L210.889007,91.3150937 L210.889007,90.3416725 L209.526425,90.3416725 L209.526425,98.435632 L210.911972,98.435632 Z M212.266899,95.1934493 C211.825463,95.1934493 211.484817,95.0177992 211.244962,94.6664988 C211.005107,94.3151985 210.885179,93.8546757 210.885179,93.2849305 C210.885179,92.7126303 211.003831,92.2559399 211.241134,91.9148592 C211.478438,91.5737785 211.82036,91.4032382 212.266899,91.4032382 C212.728748,91.4032382 213.077049,91.5795271 213.311801,91.9321049 C213.546553,92.2846826 213.663929,92.7356245 213.663929,93.2849305 C213.663929,93.8367914 213.545277,94.292843 213.307973,94.6530856 C213.07067,95.0133281 212.723645,95.1934493 212.266899,95.1934493 Z M218.861647,96.3431594 C219.548042,96.3431594 220.115147,96.1885873 220.562962,95.879443 C221.010777,95.5702987 221.295924,95.1602354 221.418403,94.6492532 L221.418403,94.6492532 L220.124715,94.5036232 C220.030304,94.7514496 219.874015,94.9398743 219.655849,95.0688974 C219.437683,95.1979204 219.179328,95.2624319 218.880784,95.2624319 C218.431694,95.2624319 218.071273,95.1219118 217.799522,94.8408715 C217.527771,94.5598313 217.388068,94.1676523 217.380413,93.6643348 L217.380413,93.6643348 L221.475815,93.6643348 L221.475815,93.238942 C221.475815,92.5491159 221.352698,91.9851192 221.106464,91.5469519 C220.860229,91.1087846 220.53298,90.7855883 220.124715,90.577363 C219.716451,90.3691377 219.271187,90.2650251 218.788925,90.2650251 C218.227561,90.2650251 217.738282,90.3934094 217.321087,90.650178 C216.903891,90.9069466 216.580469,91.2646342 216.350821,91.7232408 C216.121172,92.1818474 216.006348,92.7139077 216.006348,93.3194217 C216.006348,93.9351554 216.121172,94.4691319 216.350821,94.9213512 C216.580469,95.3735706 216.908995,95.7235934 217.336397,95.9714198 C217.763798,96.2192462 218.272215,96.3431594 218.861647,96.3431594 Z M220.147681,92.7292372 L217.384241,92.7292372 C217.404654,92.3536652 217.543719,92.0291915 217.801436,91.7558159 C218.059153,91.4824404 218.394696,91.3457526 218.808063,91.3457526 C219.206121,91.3457526 219.528267,91.4760531 219.774502,91.7366541 C220.020736,91.9972551 220.145129,92.3281161 220.147681,92.7292372 L220.147681,92.7292372 Z M184.286112,109.383427 C184.776029,109.383427 185.20981,109.304225 185.587455,109.14582 C185.965099,108.987416 186.261091,108.767055 186.47543,108.484737 C186.689769,108.202419 186.796938,107.876029 186.796938,107.505567 C186.794387,106.682886 186.24323,106.151464 185.143467,105.911302 L185.143467,105.911302 L184.140668,105.69669 C183.842124,105.630262 183.628423,105.542756 183.499565,105.434173 C183.370706,105.325589 183.307553,105.185708 183.310105,105.014528 C183.307553,104.815245 183.403878,104.653008 183.599079,104.527818 C183.794281,104.402627 184.03605,104.340032 184.324387,104.340032 C184.643343,104.340032 184.890216,104.414124 185.065004,104.562309 C185.239792,104.710494 185.353978,104.881673 185.407563,105.075846 L185.407563,105.075846 L186.670631,104.937881 C186.57622,104.439673 186.330624,104.043023 185.933842,103.747931 C185.53706,103.452839 184.994195,103.305293 184.305249,103.305293 C183.833193,103.305293 183.41855,103.378746 183.061318,103.525654 C182.704087,103.672561 182.425957,103.879509 182.226928,104.146497 C182.027899,104.413486 181.928385,104.728378 181.928385,105.091176 C181.925833,105.520401 182.059795,105.874895 182.33027,106.154658 C182.600745,106.434421 183.01794,106.633065 183.581856,106.750591 L183.581856,106.750591 L184.584655,106.961371 C185.112847,107.078897 185.376943,107.302452 185.376943,107.632035 C185.376943,107.833873 185.276791,108.001859 185.076486,108.135992 C184.876182,108.270124 184.611448,108.337191 184.282284,108.337191 C183.623958,108.337191 183.234831,108.068925 183.114903,107.532394 L183.114903,107.532394 L181.763803,107.662694 C181.850559,108.20178 182.112104,108.623341 182.548436,108.927375 C182.984769,109.23141 183.563994,109.383427 184.286112,109.383427 Z M190.505766,109.383427 C191.079888,109.383427 191.578098,109.256959 192.000397,109.004023 C192.422695,108.751086 192.748669,108.396592 192.978318,107.940541 C193.207966,107.484489 193.322791,106.953706 193.322791,106.348192 C193.322791,105.740123 193.207966,105.208063 192.978318,104.752011 C192.748669,104.29596 192.422695,103.940827 192.000397,103.686613 C191.578098,103.4324 191.079888,103.305293 190.505766,103.305293 C189.931644,103.305293 189.434072,103.4324 189.013049,103.686613 C188.592026,103.940827 188.266053,104.29596 188.035128,104.752011 C187.804203,105.208063 187.688741,105.740123 187.688741,106.348192 C187.688741,106.953706 187.804203,107.484489 188.035128,107.940541 C188.266053,108.396592 188.592026,108.751086 189.013049,109.004023 C189.434072,109.256959 189.931644,109.383427 190.505766,109.383427 Z M190.51342,108.272042 C190.197015,108.272042 189.933557,108.186453 189.723046,108.015274 C189.512535,107.844095 189.35497,107.612236 189.250352,107.319699 C189.145734,107.027162 189.093426,106.702049 189.093426,106.344361 C189.093426,105.984119 189.145734,105.657729 189.250352,105.365192 C189.35497,105.072654 189.512535,104.839518 189.723046,104.665785 C189.933557,104.492051 190.197015,104.405184 190.51342,104.405184 C190.827274,104.405184 191.08818,104.492051 191.29614,104.665785 C191.5041,104.839518 191.65975,105.072654 191.763092,105.365192 C191.866434,105.657729 191.918105,105.984119 191.918105,106.344361 C191.918105,106.702049 191.866434,107.027162 191.763092,107.319699 C191.65975,107.612236 191.5041,107.844095 191.29614,108.015274 C191.08818,108.186453 190.827274,108.272042 190.51342,108.272042 Z M195.879546,109.268456 L195.879546,105.689025 C195.879546,105.326228 195.984802,105.033052 196.195313,104.809497 C196.405825,104.585942 196.660352,104.474165 196.958895,104.474165 C197.252336,104.474165 197.490277,104.564864 197.67272,104.746263 C197.855163,104.927662 197.946385,105.170378 197.946385,105.474413 L197.946385,105.474413 L197.946385,109.268456 L199.30514,109.268456 L199.30514,105.597048 C199.30514,105.26491 199.398913,104.994728 199.58646,104.786503 C199.774006,104.578277 200.034913,104.474165 200.369179,104.474165 C200.649861,104.474165 200.887165,104.559116 201.081091,104.729017 C201.275016,104.898919 201.371979,105.166546 201.371979,105.531898 L201.371979,105.531898 L201.371979,109.268456 L202.761354,109.268456 L202.761354,105.317286 C202.761354,104.660673 202.590393,104.161188 202.248472,103.81883 C201.90655,103.476472 201.465114,103.305293 200.924164,103.305293 C200.498038,103.305293 200.129962,103.403018 199.819936,103.598469 C199.50991,103.79392 199.28983,104.055159 199.159696,104.382188 L199.159696,104.382188 L199.098456,104.382188 C198.986184,104.047495 198.792258,103.784339 198.516679,103.59272 C198.241101,103.401102 197.905559,103.305293 197.510052,103.305293 C197.117098,103.305293 196.779004,103.401102 196.49577,103.59272 C196.212537,103.784339 196.009681,104.047495 195.887201,104.382188 L195.887201,104.382188 L195.818307,104.382188 L195.818307,103.38194 L194.493999,103.38194 L194.493999,109.268456 L195.879546,109.268456 Z M206.772552,109.383427 C207.458947,109.383427 208.026052,109.228855 208.473867,108.919711 C208.921682,108.610566 209.206829,108.200503 209.329308,107.689521 L209.329308,107.689521 L208.03562,107.543891 C207.941209,107.791717 207.784921,107.980142 207.566754,108.109165 C207.348588,108.238188 207.090233,108.3027 206.79169,108.3027 C206.342599,108.3027 205.982178,108.162179 205.710427,107.881139 C205.438676,107.600099 205.298973,107.20792 205.291318,106.704602 L205.291318,106.704602 L209.386721,106.704602 L209.386721,106.27921 C209.386721,105.589384 209.263603,105.025387 209.017369,104.58722 C208.771134,104.149052 208.443885,103.825856 208.03562,103.617631 C207.627356,103.409405 207.182093,103.305293 206.69983,103.305293 C206.138467,103.305293 205.649187,103.433677 205.231992,103.690446 C204.814797,103.947214 204.491375,104.304902 204.261726,104.763508 C204.032077,105.222115 203.917253,105.754175 203.917253,106.359689 C203.917253,106.975423 204.032077,107.509399 204.261726,107.961619 C204.491375,108.413838 204.8199,108.763861 205.247302,109.011687 C205.674704,109.259514 206.183121,109.383427 206.772552,109.383427 Z M208.058586,105.769506 L205.295146,105.769506 C205.315559,105.393934 205.454625,105.06946 205.712342,104.796085 C205.970058,104.522709 206.305601,104.386022 206.718969,104.386022 C207.117026,104.386022 207.439173,104.516322 207.685407,104.776923 C207.931642,105.037524 208.056035,105.368385 208.058586,105.769506 L208.058586,105.769506 Z M212.65713,109.349788 L212.785523,109.348936 C212.982001,109.343826 213.148496,109.325942 213.28501,109.295283 C213.421523,109.264624 213.526779,109.23652 213.600777,109.210971 L213.600777,109.210971 L213.3673,108.126411 C213.329026,108.136631 213.273527,108.148128 213.200805,108.160902 C213.128083,108.173677 213.048344,108.180064 212.961588,108.180064 C212.788075,108.180064 212.640079,108.135992 212.5176,108.047848 C212.395121,107.959703 212.333881,107.776388 212.333881,107.497903 L212.333881,107.497903 L212.333881,104.455003 L213.493607,104.455003 L213.493607,103.38194 L212.333881,103.38194 L212.333881,101.971629 L210.948333,101.971629 L210.948333,103.38194 L210.113943,103.38194 L210.113943,104.455003 L210.948333,104.455003 L210.948333,107.727845 C210.945782,108.282261 211.121208,108.694879 211.474612,108.965699 C211.828016,109.23652 212.264986,109.364266 212.785523,109.348936 L212.65713,109.349788 Z M216.16136,109.268457 L216.16136,105.819327 C216.16136,105.392656 216.280649,105.062434 216.519229,104.82866 C216.757808,104.594885 217.062093,104.477998 217.432083,104.477998 C217.796969,104.477998 218.08084,104.588498 218.283697,104.809498 C218.486553,105.030498 218.587982,105.339003 218.587982,105.735014 L218.587982,105.735014 L218.587982,109.268457 L219.973529,109.268457 L219.973529,105.520402 C219.973529,104.810136 219.788534,104.263385 219.418545,103.880149 C219.048555,103.496912 218.558638,103.305294 217.948792,103.305294 C217.49715,103.305294 217.126522,103.401103 216.83691,103.592721 C216.547297,103.784339 216.334872,104.047495 216.199634,104.382189 L216.199634,104.382189 L216.13074,104.382189 L216.13074,101.419769 L214.775812,101.419769 L214.775812,109.268457 L216.16136,109.268457 Z M222.078641,102.546485 C222.298083,102.546485 222.486268,102.473031 222.643195,102.326124 C222.800121,102.179216 222.878584,102.002289 222.878584,101.795341 C222.878584,101.585838 222.800121,101.407633 222.643195,101.260726 C222.486268,101.113818 222.298083,101.040364 222.078641,101.040364 C221.856648,101.040364 221.667187,101.113818 221.510261,101.260726 C221.353334,101.407633 221.274871,101.585838 221.274871,101.795341 C221.274871,102.002289 221.353334,102.179216 221.510261,102.326124 C221.667187,102.473031 221.856648,102.546485 222.078641,102.546485 Z M222.767589,109.268457 L222.767589,103.381941 L221.382042,103.381941 L221.382042,109.268457 L222.767589,109.268457 Z M225.57696,109.268456 L225.57696,105.819326 C225.57696,105.392655 225.69306,105.062433 225.925261,104.828659 C226.157461,104.594884 226.456004,104.477997 226.820891,104.477997 C227.178122,104.477997 227.458166,104.589136 227.661022,104.811413 C227.863879,105.03369 227.965307,105.341557 227.965307,105.735014 L227.965307,105.735014 L227.965307,109.268456 L229.350881,109.268456 L229.350881,105.520401 C229.353406,104.815245 229.170325,104.269772 228.801611,103.88398 C228.432897,103.498189 227.944894,103.305293 227.3376,103.305293 C226.898716,103.305293 226.53064,103.403018 226.233373,103.598469 C225.936105,103.79392 225.719853,104.055159 225.584615,104.382188 L225.584615,104.382188 L225.51572,104.382188 L225.51572,103.38194 L224.191412,103.38194 L224.191412,109.268456 L225.57696,109.268456 Z M233.319949,111.575542 C233.850693,111.575542 234.323387,111.494423 234.73803,111.332186 C235.152674,111.169949 235.479924,110.924678 235.719779,110.596372 C235.959634,110.268066 236.079562,109.857364 236.079562,109.364266 L236.079562,109.364266 L236.079562,103.38194 L234.713152,103.38194 L234.713152,104.355361 L234.636602,104.355361 C234.567708,104.212286 234.467555,104.05963 234.336145,103.897393 C234.204735,103.735157 234.027395,103.595914 233.804126,103.479665 C233.580856,103.363417 233.295709,103.305293 232.948684,103.305293 C232.497041,103.305293 232.087501,103.420902 231.720063,103.652122 C231.352625,103.883341 231.061099,104.221867 230.845484,104.667699 C230.629869,105.113531 230.522062,105.659644 230.522062,106.306036 C230.522062,106.944764 230.629869,107.477463 230.845484,107.904134 C231.061099,108.330804 231.351987,108.650807 231.718149,108.864142 C232.084311,109.077477 232.493214,109.184144 232.944856,109.184144 C233.281675,109.184144 233.561718,109.133046 233.784988,109.03085 C234.008258,108.928653 234.188149,108.802185 234.324663,108.651445 C234.461176,108.500705 234.565156,108.353798 234.636602,108.210723 L234.636602,108.210723 L234.705497,108.210723 L234.705497,109.325942 C234.705497,109.747502 234.577276,110.052814 234.320835,110.241878 C234.064394,110.430941 233.73842,110.525473 233.342914,110.525473 C232.926995,110.525473 232.615693,110.446271 232.409009,110.287866 C232.202325,110.129462 232.056881,109.96978 231.972677,109.80882 L231.972677,109.80882 L230.724918,110.111577 C230.852501,110.512698 231.129993,110.856973 231.557395,111.1444 C231.984797,111.431828 232.572315,111.575542 233.319949,111.575542 Z M233.331433,108.095752 C232.874687,108.095752 232.527663,107.931599 232.290359,107.603293 C232.053055,107.274986 231.934403,106.840013 231.934403,106.298372 C231.934403,105.764395 232.051779,105.321757 232.286532,104.970456 C232.521284,104.619156 232.869584,104.443506 233.331433,104.443506 C233.777973,104.443506 234.119894,104.613407 234.357198,104.953211 C234.594502,105.293014 234.713153,105.741401 234.713153,106.298372 C234.713153,106.860452 234.593226,107.300536 234.35337,107.618622 C234.113515,107.936709 233.772869,108.095752 233.331433,108.095752 Z" id="Typesomething" fill="#FD6884" fill-rule="nonzero"></path>
            <g id="Group-131" transform="translate(38.396550, 51.816611)">
                <path d="M81.9439101,267.488404 L80.349962,271.226698 C80.0342036,271.966769 79.1975703,272.333011 78.4402555,272.063388 L74.1893903,270.548848 C73.5275608,270.312612 72.7904545,270.561494 72.4059871,271.150314 L70.3558313,274.292201 C69.9531763,274.909854 69.1660539,275.150137 68.4875524,274.861292 L64.0058047,272.956229 C62.6897239,272.396243 62.8008708,270.492697 64.1735355,270.091552 L80.118069,265.428042 C81.3512948,265.067365 82.4486182,266.3052 81.9439101,267.488404" id="Fill-109" fill="#A0B4D8"></path>
                <path d="M75.0697265,272.89381 C75.0697265,273.26258 74.6827331,273.561037 74.2058117,273.561037 C73.728385,273.561037 73.3413916,273.26258 73.3413916,272.89381 C73.3413916,272.525039 73.728385,272.226582 74.2058117,272.226582 C74.6827331,272.226582 75.0697265,272.525039 75.0697265,272.89381" id="Fill-111" fill="#A0B4D8"></path>
                <path d="M2.01556867,268.996111 C3.19069496,267.936843 5.73494947,268.551461 5.73494947,268.551461 L6.36697139,270.921914 C6.75750132,271.92402 6.44073254,274.39261 4.44766581,274.393117 C1.6497942,274.394127 0.618148504,273.880681 0.102830871,273.025274 C-0.0436810049,272.781956 0.0952526706,270.727159 2.01556867,268.996111" id="Fill-115" fill="#1E1301"></path>
                <path d="M1.65691774,92.3252347 C1.65691774,92.3252347 5.40054896,92.4031369 6.65044689,92.3252347 C7.90034482,92.2468266 8.95725123,91.9777098 9.19318588,92.5235312 C9.36849493,92.928724 8.48386628,93.3460573 6.94195501,93.390067 C5.40054896,93.4340767 3.44183665,93.390067 3.44183665,93.390067 L3.86571068,94.112433 L5.72439074,94.112433 C7.32541198,94.112433 9.78580119,93.8089179 10.1328828,94.2722843 C10.526444,94.7978714 8.99514223,94.956711 7.68916562,95.1337615 C6.57415967,95.2850132 4.52551937,95.5885283 4.52551937,95.5885283 L4.60887958,95.879397 C4.60887958,95.879397 5.59556133,95.9805687 6.59537863,96.0412717 C7.59570114,96.1014689 10.1328828,95.8834439 9.96060502,96.4242067 C9.79287418,96.9502996 8.79659337,97.1273501 7.68916562,97.1273501 L4.9003877,97.1273501 L5.06710812,97.6109509 C5.06710812,97.6109509 6.95357492,97.7758608 7.49566889,97.7758608 C8.03725764,97.7758608 8.44799613,97.9185129 8.54954402,98.2265808 C8.6505867,98.5341428 7.99583015,98.8735739 6.53727909,98.9175836 C5.07872803,98.9615933 2.48395206,99.3253056 2.40059185,99.237792 C2.31723164,99.1497726 1.65691774,92.3252347 1.65691774,92.3252347" id="Fill-117" fill="#F2BEA2"></path>
                <path d="M40.0856713,88.8007867 C39.8436741,88.4446623 39.6047082,88.1016902 39.1884124,88.2104498 C38.465452,88.3981233 37.3903579,88.6682518 36.6562828,88.8093863 C35.4584219,89.0405637 34.0675694,89.3405378 34.2590453,89.8125039 C34.4565837,90.3001515 35.0815327,90.226802 36.5638288,89.9844958 C38.0309685,89.7447188 39.7608191,89.7988457 38.2507363,90.1883568 C36.7411587,90.5783737 34.9436094,90.7255786 33.8922604,91.1252068 C33.6543049,91.2157555 33.1728365,91.4378274 33.4153389,91.9426743 C33.5431579,92.2092617 34.6167364,92.2714824 35.6776845,91.9978129 C36.7391378,91.7236375 38.3452112,91.5384933 38.927217,91.6614169 C39.1146512,91.7013797 38.3300548,91.8920884 37.4019778,92.1930743 C36.4733956,92.4935543 35.6175641,92.4895074 34.3191657,92.8597959 C34.0933353,92.9245458 33.7220035,93.4334395 34.2292377,93.6120076 C34.736472,93.7905756 35.1659033,93.767812 36.2101794,93.4981894 C37.2544555,93.2280609 38.8676018,92.9432625 39.2970332,93.1557231 C39.3606901,93.1870864 39.4253574,93.3474435 39.4086854,93.4167461 C39.3096636,93.8189037 37.2665806,94.0920673 36.7553047,94.2240964 C36.2440287,94.3561255 35.7408362,94.3697837 35.7201224,94.6844277 C35.6994087,94.9995776 36.4087283,95.2863994 37.7950338,94.9727671 C39.1813394,94.6591348 41.3840697,94.5574572 41.4416641,94.4542621 C41.4861229,94.3733247 42.2969903,92.0554807 40.0856713,88.8007867" id="Fill-119" fill="#F2BEA2"></path>
                <path d="M4.25745314,1.33319024 C4.25745314,1.33319024 6.5006005,0.222324838 7.74241497,0.04223919 C8.98372422,-0.138352317 11.2339446,0.320461399 11.2339446,0.320461399 C11.2339446,0.320461399 6.70521192,0.977571672 4.25745314,1.33319024" id="Fill-121" fill="#613619"></path>
                <path d="M33.087202,272.349403 C31.9257165,272.196634 27.2721962,268.286853 26.6103667,267.725856 C26.6270387,267.682858 26.6391638,267.654024 26.6391638,267.654024 L22.7838806,267.654024 L23.2602968,272.715139 C23.3108182,272.961492 23.5270495,273.138037 23.7781405,273.138037 L24.4662411,273.138037 L24.7259208,271.298229 L25.0876536,271.278501 L26.0531163,272.661012 C26.2632851,272.961998 26.6058197,273.142589 26.9726046,273.145625 L34.3048516,273.206328 C34.3048516,273.206328 34.3381103,272.514313 33.087202,272.349403" id="Fill-125" fill="#1E1301"></path>
                <polygon id="Fill-127" fill="#A0B4D8" points="36.9355132 86.5185099 30.8300095 86.3566351 20.5009219 86.3566351 37.0911189 86.585789"></polygon>
            </g>
        </g>
    </g>
</svg>